<?xml version="1.0" encoding="UTF-8" standalone="no"?>
<!-- Generator: Adobe Illustrator 19.1.0, SVG Export Plug-In . SVG Version: 6.00 Build 0)  -->

<svg
   xmlns:dc="http://purl.org/dc/elements/1.1/"
   xmlns:cc="http://creativecommons.org/ns#"
   xmlns:rdf="http://www.w3.org/1999/02/22-rdf-syntax-ns#"
   xmlns:svg="http://www.w3.org/2000/svg"
   xmlns="http://www.w3.org/2000/svg"
   xmlns:xlink="http://www.w3.org/1999/xlink"
   xmlns:sodipodi="http://sodipodi.sourceforge.net/DTD/sodipodi-0.dtd"
   xmlns:inkscape="http://www.inkscape.org/namespaces/inkscape"
   version="1.0"
   id="Capa_1"
   x="0px"
   y="0px"
   viewBox="0 0 633.9455 441.50647"
   enable-background="new 0 0 1700 1110"
   xml:space="preserve"
   sodipodi:docname="chicasNegras.svg"
   width="633.9455"
   height="441.50647"
   inkscape:version="0.92.3 (2405546, 2018-03-11)"><metadata
   id="metadata363"><rdf:RDF><cc:Work
       rdf:about=""><dc:format>image/svg+xml</dc:format><dc:type
         rdf:resource="http://purl.org/dc/dcmitype/StillImage" /><dc:title></dc:title></cc:Work></rdf:RDF></metadata><defs
   id="defs361">
	
	
	
	
	
	
	
	
	
	

	

		
		
	
		
		
	
			
			
			
			
			
			
			
			
			
			
		
			
		</defs><sodipodi:namedview
   pagecolor="#ffffff"
   bordercolor="#666666"
   borderopacity="1"
   objecttolerance="10"
   gridtolerance="10"
   guidetolerance="10"
   inkscape:pageopacity="0"
   inkscape:pageshadow="2"
   inkscape:window-width="1366"
   inkscape:window-height="714"
   id="namedview359"
   showgrid="false"
   fit-margin-top="0"
   fit-margin-left="0"
   fit-margin-right="0"
   fit-margin-bottom="0"
   inkscape:zoom="0.40470588"
   inkscape:cx="422.70708"
   inkscape:cy="334.18659"
   inkscape:window-x="0"
   inkscape:window-y="0"
   inkscape:window-maximized="1"
   inkscape:current-layer="Capa_1" />
<pattern
   x="429.055"
   y="411"
   width="490.25"
   height="490.25"
   patternUnits="userSpaceOnUse"
   id="suciedad_invertida_2"
   viewBox="493.125 -985.6 490.25 490.25"
   overflow="visible">
	<g
   id="g294">
		<polygon
   fill="none"
   points="493.125,-985.6 983.375,-985.6 983.375,-495.35 493.125,-495.35   "
   id="polygon2" />
		<g
   id="g6">
			<polygon
   fill="#FFFFFF"
   points="1476.5,0 980.5,0 980.5,-499.5 1476.5,-499.5    "
   id="polygon4" />
		</g>
		<g
   id="g10">
			<polygon
   fill="#FFFFFF"
   points="986.25,0 490.25,0 490.25,-499.5 986.25,-499.5    "
   id="polygon8" />
		</g>
		<g
   id="g14">
			<polygon
   fill="#FFFFFF"
   points="496,0 0,0 0,-499.5 496,-499.5    "
   id="polygon12" />
		</g>
		<g
   id="g18">
			<polygon
   fill="#FFFFFF"
   points="1476.5,-490.25 980.5,-490.25 980.5,-989.75 1476.5,-989.75    "
   id="polygon16" />
		</g>
		<g
   id="g276">
			<polygon
   fill="#FFFFFF"
   points="986.25,-490.25 490.25,-490.25 490.25,-989.75 986.25,-989.75    "
   id="polygon20" />
			<path
   d="M673.782-985.6c0.304,0.518,0.681,1.01,0.886,1.564c0.152,0.41,0.223,1.246,0.085,1.303     c-0.673,0.279-1.429,0.475-2.151,0.46c-0.311-0.007-0.827-0.566-0.871-0.922c-0.098-0.786,0.046-1.602,0.091-2.405     C672.475-985.6,673.129-985.6,673.782-985.6z"
   id="path22" />
			<path
   d="M983.375-598.057c-0.335-0.131-0.813-0.167-0.974-0.412c-0.318-0.485-0.461-1.085-0.677-1.638     c0.55-0.134,1.101-0.268,1.65-0.401C983.375-599.691,983.375-598.874,983.375-598.057z"
   id="path24" />
			<path
   d="M493.125-600.753c0.848-0.12,1.333,0.227,1.283,1.102c-0.043,0.766-0.345,1.33-1.283,1.104     C493.125-599.282,493.125-600.018,493.125-600.753z"
   id="path26" />
			<path
   d="M615.931-658.727c0.861,0.5,1.727,0.993,2.577,1.511c0.118,0.072,0.214,0.268,0.224,0.413     c0.068,0.964,0.178,1.932,0.141,2.893c-0.038,0.976-1.816,2.096-2.861,1.89c-1.742-0.342-2.335-1.19-2.083-2.917     c0.036-0.25-0.088-0.527-0.154-0.788c-0.144-0.568-0.597-1.338-0.381-1.655c0.347-0.51,1.125-0.736,1.742-1.042     c0.163-0.081,0.4-0.013,0.603-0.013C615.802-658.532,615.867-658.629,615.931-658.727z"
   id="path28" />
			<path
   d="M660.474-758.283c-0.956-0.623-1.721-1.074-2.429-1.602c-0.348-0.258-0.54-0.73-0.893-0.979     c-0.873-0.615-0.873-1.548-0.346-2.115c0.387-0.416,1.371-0.461,2.048-0.367c0.626,0.088,1.36,0.443,1.754,0.922     c0.669,0.81,1.22,1.773,1.553,2.764C662.234-759.443,661.188-758.85,660.474-758.283z"
   id="path30" />
			<path
   d="M903.638-517.962c1.121-0.018,2.188,0.022,2.251,1.564c0.007,0.172,0.281,0.372,0.474,0.492     c0.997,0.623,1.104,1.115,0.436,2.148c-0.414,0.639-1.569,0.878-2.161,0.328c-0.915-0.851-1.772-1.773-2.577-2.729     c-0.271-0.323-0.544-0.974-0.396-1.239c0.179-0.319,0.797-0.416,1.242-0.553C903.131-518.019,903.393-517.962,903.638-517.962z"
   id="path32" />
			<path
   d="M520.795-582.511c0.293-0.686,0.409-1.738,0.914-1.979c1.074-0.514,1.621,0.482,2.099,1.323     c0.135,0.239,0.392,0.407,0.582,0.616c0.494,0.542,0.549,1.065-0.07,1.563c-0.185,0.148-0.413,0.284-0.519,0.482     c-0.264,0.488-0.196,1.402-1.123,1.037c-0.848-0.334-1.797-0.705-1.631-1.955c0.042-0.319,0.006-0.649,0.006-0.976     C520.967-582.438,520.881-582.475,520.795-582.511z"
   id="path34" />
			<path
   d="M597.699-687.938c1.414-0.172,2.057,0.931,2.737,1.685c0.734,0.816,0.03,2.153-1.077,2.211     c-1.149,0.06-2.502,0.36-2.563-1.495c-0.003-0.075-0.042-0.171-0.098-0.219c-0.496-0.437-1.15-0.938-0.598-1.599     C596.415-687.731,597.152-687.755,597.699-687.938z"
   id="path36" />
			<path
   d="M917.092-739.564c1.028-0.854,2.244-0.602,2.81,0.684c0.504,1.146-0.786,1.342-1.208,1.991     c-0.112,0.174-0.918,0.158-1.143-0.052c-0.697-0.651-1.293-1.421-1.867-2.189c-0.113-0.15,0.042-0.501,0.074-0.76     C916.155-739.793,916.553-739.696,917.092-739.564z"
   id="path38" />
			<path
   d="M769.235-826.475c-0.345,0.37-0.82,1.166-1.521,1.549c-0.677,0.369-0.959-0.373-0.998-0.968     c-0.051-0.759,0.079-1.534-0.807-1.979c-0.155-0.078-0.224-0.662-0.099-0.875c0.15-0.259,0.535-0.486,0.845-0.525     C767.62-829.393,769.2-827.912,769.235-826.475z"
   id="path40" />
			<path
   d="M533.906-936.076c1.05,0.757,1.999,1.38,2.854,2.112c0.152,0.13-0.025,1.015-0.158,1.043     c-0.597,0.128-1.258,0.185-1.848,0.052c-0.624-0.141-1.242-0.456-1.766-0.831c-0.33-0.235-0.759-0.923-0.662-1.057     C532.665-935.221,533.213-935.53,533.906-936.076z"
   id="path42" />
			<path
   d="M573.383-925.571c0.478,0.422,1.31,0.804,1.363,1.273c0.111,0.993-0.943,1.761-1.913,1.732     c-1.048-0.03-1.298-0.671-1.266-1.55C571.607-925.16,572.288-925.373,573.383-925.571z"
   id="path44" />
			<path
   d="M704.775-875.947c0.994-0.689,2.104-1.123,3.329-0.756c0.306,0.092,0.573,0.813,0.57,1.244     c-0.001,0.254-0.613,0.76-0.871,0.713c-1.019-0.184-2.007-0.542-3.006-0.836C704.79-875.703,704.783-875.825,704.775-875.947z"
   id="path46" />
			<path
   d="M755.779-733.663c0.579,0.546,1.329,1.16,1.284,1.224c-0.456,0.658-1.041,1.227-1.59,1.819     c-0.485-0.58-0.971-1.16-1.456-1.74C754.534-732.742,755.052-733.125,755.779-733.663z"
   id="path48" />
			<path
   d="M608.905-604.313c0.603,0.625,1.187,0.958,1.296,1.406c0.177,0.731-0.751,1.758-1.382,1.722     c-1.031-0.06-1.316-0.895-1.239-1.642C607.627-603.278,608.296-603.664,608.905-604.313z"
   id="path50" />
			<path
   d="M499.429-981.247c0.179-0.39,0.314-1.102,0.744-1.464c0.247-0.209,1.069,0.015,1.461,0.289     c0.569,0.396,1.306,0.941,0.808,1.789c-0.145,0.245-0.839,0.326-1.223,0.234C500.655-980.534,500.145-980.893,499.429-981.247z"
   id="path52" />
			<path
   d="M746.368-737.314c0.325,0,0.713-0.111,0.962,0.027c0.335,0.187,0.778,0.567,0.775,0.862     c-0.002,0.296-0.448,0.752-0.781,0.844c-0.531,0.146-1.159,0.16-1.691,0.022c-0.417-0.109-0.994-0.477-1.076-0.827     c-0.169-0.727,0.434-0.945,1.078-0.95c0.244-0.001,0.489,0,0.733,0C746.368-737.329,746.368-737.322,746.368-737.314z"
   id="path54" />
			<path
   d="M739.489-843.935c-0.35,0.389-0.638,1.006-1.061,1.117c-0.825,0.218-1.079-0.485-1.173-1.175     c-0.038-0.277-0.121-0.617-0.005-0.832c0.263-0.486,0.636-0.912,0.965-1.363c0.316,0.438,0.659,0.859,0.933,1.321     c0.112,0.191,0.074,0.472,0.104,0.713C739.331-844.08,739.41-844.008,739.489-843.935z"
   id="path56" />
			<path
   d="M542.526-926.592c0.036,0.713-2.193,2.207-2.75,1.919c-0.201-0.104-0.511-0.432-0.486-0.469     c0.475-0.718,0.903-1.513,1.544-2.05c0.26-0.217,1.009,0.127,1.523,0.262C542.456-926.904,542.496-926.658,542.526-926.592z"
   id="path58" />
			<path
   d="M542.982-921.799c-0.143,1.076-0.214,1.818-0.365,2.546c-0.031,0.148-0.381,0.346-0.551,0.317     c-0.162-0.026-0.32-0.299-0.411-0.496c-0.212-0.463-0.423-0.933-0.56-1.42c-0.134-0.477-0.314-1.017-0.198-1.455     c0.058-0.218,0.816-0.471,1.115-0.352C542.463-922.477,542.788-921.984,542.982-921.799z"
   id="path60" />
			<path
   d="M657.213-755.648c-0.166,0.142-0.744,0.74-0.824,0.68c-0.667-0.505-1.242-1.131-1.846-1.72     c0.405-0.291,0.791-0.79,1.219-0.829C656.75-757.608,657.242-757.002,657.213-755.648z"
   id="path62" />
			<path
   d="M629.17-891.2c-1.228-0.041-1.991-0.792-1.88-1.681c0.042-0.336,0.457-0.625,0.702-0.936     c0.643,0.585,1.303,1.154,1.886,1.793C629.913-891.984,629.327-891.379,629.17-891.2z"
   id="path64" />
			<path
   d="M778.456-690.993c0.747,0.662,1.444,1.218,2.041,1.865c0.107,0.117-0.114,0.795-0.327,0.889     c-0.292,0.129-0.766,0.035-1.08-0.124c-0.401-0.204-0.746-0.544-1.068-0.872c-0.23-0.235-0.585-0.609-0.523-0.809     C777.594-690.354,777.998-690.567,778.456-690.993z"
   id="path66" />
			<path
   d="M511.881-978.525c-0.089,2.184-0.915,2.898-2.259,2.279c-0.645-0.297-0.947-0.881-0.314-1.297     C510.025-978.014,510.939-978.184,511.881-978.525z"
   id="path68" />
			<path
   d="M901.667-509.868c-1.066-0.226-1.647-0.606-1.508-1.46c0.071-0.439,0.563-0.808,0.865-1.209     c0.576,0.508,1.152,1.015,1.729,1.523C902.391-510.633,902.028-510.251,901.667-509.868z"
   id="path70" />
			<path
   d="M890.197-705.979c0.172,0.177,0.645,0.459,0.787,0.859c0.192,0.538-1.045,1.581-1.887,1.565     c-0.271-0.006-0.722-0.385-0.768-0.649C888.206-704.914,889.177-705.938,890.197-705.979z"
   id="path72" />
			<path
   d="M608.956-722.127c0.473,0.56,1.009,1.079,1.389,1.695c0.176,0.285,0.144,0.799,0.009,1.129     c-0.057,0.142-0.757,0.231-0.919,0.08c-0.459-0.425-0.899-0.942-1.132-1.512c-0.146-0.356,0.093-0.871,0.159-1.315     C608.625-722.075,608.79-722.102,608.956-722.127z"
   id="path74" />
			<path
   d="M952.394-629c-0.728-0.6-1.238-1.021-1.749-1.442c0.36-0.315,0.722-0.891,1.082-0.891     c0.654,0.001,1.62-0.018,1.622,1.009C953.349-629.964,952.849-629.603,952.394-629z"
   id="path76" />
			<path
   d="M610.443-781.289c0.567,0.629,1.166,0.988,1.207,1.403c0.089,0.881-0.683,0.93-1.358,0.928     c-0.676-0.002-1.333-0.213-1.167-0.988C609.217-780.371,609.823-780.685,610.443-781.289z"
   id="path78" />
			<path
   d="M696.971-872.885c0.709,0.83,1.205,1.35,1.582,1.945c0.039,0.062-0.863,0.88-0.934,0.826     c-0.526-0.398-1.018-0.888-1.369-1.445C696.154-871.711,696.578-872.189,696.971-872.885z"
   id="path80" />
			<path
   d="M878.254-826.998c-0.707,0.618-1.104,0.965-1.501,1.312c-0.313-0.435-0.845-0.857-0.871-1.31     c-0.023-0.381,0.542-0.797,0.847-1.197C877.134-827.875,877.539-827.558,878.254-826.998z"
   id="path82" />
			<path
   d="M876.93-796.799c-0.46-0.57-0.746-0.926-1.032-1.281c0.385-0.309,0.782-0.875,1.152-0.857     c0.408,0.019,0.792,0.573,1.186,0.894C877.868-797.691,877.5-797.342,876.93-796.799z"
   id="path84" />
			<path
   d="M874.984-646.977c-0.579,0.538-0.938,0.871-1.298,1.205c-0.287-0.411-0.8-0.822-0.799-1.232     c0.001-0.4,0.526-0.801,0.821-1.2C874.063-647.865,874.415-647.525,874.984-646.977z"
   id="path86" />
			<path
   d="M780.925-804.728c-0.549,0.543-0.878,0.868-1.207,1.193c-0.289-0.406-0.778-0.799-0.807-1.224     c-0.024-0.354,0.489-0.745,0.765-1.12C780.031-805.552,780.387-805.225,780.925-804.728z"
   id="path88" />
			<path
   d="M855.767-847.365c-0.573,0.494-0.929,0.801-1.285,1.108c-0.289-0.46-0.697-0.895-0.809-1.396     c-0.045-0.198,0.621-0.811,0.869-0.761C854.928-848.336,855.232-847.853,855.767-847.365z"
   id="path90" />
			<path
   d="M566.658-595.097c-0.55,0.45-0.946,1.006-1.239,0.955c-0.355-0.061-0.901-0.669-0.861-0.974     c0.056-0.431,0.574-0.801,0.895-1.196C565.786-595.977,566.119-595.641,566.658-595.097z"
   id="path92" />
			<path
   d="M854.463-964.577c-0.579-0.58-0.933-0.935-1.286-1.289c0.36-0.304,0.747-0.872,1.076-0.841     c0.398,0.038,0.848,0.531,1.067,0.939C855.401-965.617,854.89-965.148,854.463-964.577z"
   id="path94" />
			<path
   d="M616.387-685.724c-0.481-0.516-0.794-0.853-1.108-1.189c0.383-0.273,0.769-0.764,1.147-0.759     c0.383,0.005,0.759,0.502,1.138,0.783C617.233-686.56,616.902-686.232,616.387-685.724z"
   id="path96" />
			<path
   d="M715.746-910.046c-0.482-0.564-0.785-0.92-1.088-1.275c0.413-0.288,0.813-0.768,1.244-0.799     c0.3-0.021,0.9,0.577,0.898,0.894C716.797-910.891,716.237-910.56,715.746-910.046z"
   id="path98" />
			<path
   d="M670.681-887.837c-0.41-0.565-0.661-0.911-0.911-1.257c0.418-0.277,0.836-0.766,1.256-0.769     c0.348-0.002,0.699,0.567,1.049,0.884C671.68-888.655,671.284-888.332,670.681-887.837z"
   id="path100" />
			<path
   d="M604.948-619.888c-0.458-0.624-0.928-0.988-0.924-1.348c0.003-0.287,0.611-0.82,0.902-0.789     c0.401,0.043,0.756,0.515,1.13,0.803C605.761-620.866,605.465-620.51,604.948-619.888z"
   id="path102" />
			<path
   d="M719.475-819.209c-0.482,0.58-0.965,1.161-1.447,1.741c-0.274-0.235-0.775-0.46-0.787-0.708     c-0.063-1.346,1.213-0.925,1.836-1.391C719.209-819.447,719.342-819.328,719.475-819.209z"
   id="path104" />
			<path
   d="M830.398-977.843c-0.403-0.546-0.908-0.95-0.842-1.208c0.086-0.331,0.654-0.783,0.968-0.75     c0.401,0.043,0.757,0.52,1.132,0.809C831.307-978.674,830.958-978.354,830.398-977.843z"
   id="path106" />
			<path
   d="M861.86-735.376c-0.605,0.514-0.938,1.008-1.31,1.04c-0.267,0.023-0.843-0.594-0.817-0.887     c0.031-0.374,0.472-0.871,0.846-1C860.813-736.303,861.246-735.804,861.86-735.376z"
   id="path108" />
			<path
   d="M717.158-968.6c-0.508,0.512-0.832,0.839-1.157,1.166c-0.262-0.348-0.744-0.706-0.728-1.04     c0.02-0.386,0.479-0.75,0.746-1.124C716.336-969.319,716.653-969.041,717.158-968.6z"
   id="path110" />
			<path
   d="M723.315-530.541c0.225,0.407,0.634,0.822,0.617,1.219c-0.015,0.33-0.53,0.638-0.825,0.956     c-0.297-0.308-0.813-0.599-0.837-0.927c-0.03-0.397,0.354-0.825,0.56-1.24C722.992-530.536,723.153-530.538,723.315-530.541z"
   id="path112" />
			<path
   d="M975.101-790.258c-0.596,0.513-0.916,0.992-1.297,1.047c-0.262,0.037-0.607-0.518-0.915-0.808     c0.354-0.304,0.671-0.697,1.08-0.87C974.15-790.966,974.52-790.598,975.101-790.258z"
   id="path114" />
			<path
   d="M703.188-604.997c-0.672,0.4-1.082,0.837-1.376,0.769c-0.33-0.075-0.783-0.626-0.76-0.937     c0.025-0.321,0.547-0.819,0.875-0.838C702.236-606.021,702.574-605.516,703.188-604.997z"
   id="path116" />
			<path
   d="M748.16-901.197c-0.222-0.352-0.646-0.726-0.611-1.049c0.039-0.348,0.51-0.648,0.791-0.971     c0.301,0.308,0.792,0.585,0.847,0.932c0.051,0.32-0.364,0.716-0.573,1.078C748.462-901.203,748.311-901.2,748.16-901.197z"
   id="path118" />
			<path
   d="M718.949-741.16c-0.447-0.666-0.908-1.057-0.853-1.352c0.061-0.336,0.584-0.811,0.906-0.811     c0.301-0.002,0.802,0.518,0.843,0.853C719.883-742.167,719.416-741.803,718.949-741.16z"
   id="path120" />
			<path
   d="M733.105-932.205c-0.378-0.691-0.758-1.076-0.721-1.415c0.031-0.291,0.539-0.53,0.836-0.792     c0.281,0.318,0.729,0.611,0.789,0.967C734.053-933.182,733.589-932.834,733.105-932.205z"
   id="path122" />
			<path
   d="M961.655-721.587c0.421,0.663,0.828,1.023,0.81,1.363c-0.014,0.291-0.583,0.829-0.781,0.777     c-0.354-0.094-0.776-0.51-0.858-0.863C960.767-720.565,961.211-720.938,961.655-721.587z"
   id="path124" />
			<path
   d="M686.947-744.428c-0.634,0.368-1.001,0.755-1.295,0.706c-0.316-0.053-0.564-0.515-0.843-0.798     c0.318-0.281,0.608-0.726,0.965-0.788C686.029-745.352,686.373-744.883,686.947-744.428z"
   id="path126" />
			<path
   d="M915.459-720.118c-0.702,0.351-1.099,0.715-1.439,0.667c-0.286-0.04-0.768-0.655-0.697-0.844     c0.127-0.343,0.578-0.726,0.934-0.77C914.523-721.097,914.852-720.622,915.459-720.118z"
   id="path128" />
			<path
   d="M690.75-856.525c-0.351,0.223-0.707,0.623-1.049,0.611c-0.285-0.009-0.77-0.498-0.773-0.78     c-0.004-0.3,0.434-0.821,0.718-0.851c0.341-0.034,0.726,0.35,1.091,0.553C690.74-856.836,690.745-856.682,690.75-856.525z"
   id="path130" />
			<path
   d="M639.455-650.463c-0.604,0.398-0.982,0.833-1.238,0.77c-0.355-0.087-0.618-0.549-0.92-0.85     c0.325-0.276,0.622-0.715,0.983-0.774C638.54-651.36,638.884-650.9,639.455-650.463z"
   id="path132" />
			<path
   d="M602.823-682.673c-0.35,0.231-0.703,0.643-1.047,0.635c-0.29-0.006-0.774-0.487-0.793-0.781     c-0.018-0.283,0.427-0.807,0.715-0.843c0.341-0.042,0.733,0.326,1.102,0.517C602.808-682.988,602.815-682.83,602.823-682.673z"
   id="path134" />
			<path
   d="M695.092-611.986c-0.682,0.375-1.092,0.778-1.344,0.696c-0.342-0.112-0.719-0.569-0.775-0.927     c-0.032-0.204,0.554-0.719,0.843-0.704C694.155-612.905,694.475-612.467,695.092-611.986z"
   id="path136" />
			<path
   d="M740.603-608.999c-0.692,0.394-1.072,0.78-1.416,0.751c-0.285-0.024-0.789-0.615-0.731-0.82     c0.1-0.343,0.543-0.746,0.895-0.805C739.618-609.918,739.968-609.467,740.603-608.999z"
   id="path138" />
			<path
   d="M865.957-606.097c-0.693,0.453-1.046,0.857-1.392,0.853c-0.275-0.004-0.542-0.512-0.813-0.796     c0.314-0.287,0.59-0.712,0.955-0.813C864.942-606.919,865.31-606.51,865.957-606.097z"
   id="path140" />
			<path
   d="M529.25-599.957c-0.596,0.405-0.961,0.843-1.23,0.79c-0.357-0.069-0.638-0.523-0.952-0.811     c0.32-0.279,0.613-0.722,0.971-0.783C528.31-600.808,528.665-600.368,529.25-599.957z"
   id="path142" />
			<path
   d="M782.736-528.956c-0.42-0.578-0.87-0.934-0.82-1.195c0.068-0.356,0.517-0.642,0.802-0.957     c0.292,0.31,0.745,0.587,0.82,0.944C783.593-529.905,783.146-529.541,782.736-528.956z"
   id="path144" />
			<path
   d="M811.339-840.436c-0.683,0.38-1.092,0.786-1.344,0.704c-0.345-0.111-0.571-0.592-0.849-0.914     c0.303-0.26,0.613-0.733,0.906-0.723C810.393-841.355,810.716-840.916,811.339-840.436z"
   id="path146" />
			<path
   d="M647.276-838.777c0.409,0.578,0.853,0.938,0.799,1.195c-0.075,0.355-0.521,0.634-0.81,0.945     c-0.289-0.313-0.741-0.592-0.814-0.949C646.398-837.84,646.853-838.199,647.276-838.777z"
   id="path148" />
			<path
   d="M541.083-814.948c-0.4-0.691-0.791-1.067-0.759-1.404c0.028-0.294,0.531-0.544,0.824-0.814     c0.284,0.315,0.729,0.6,0.797,0.958C541.995-815.948,541.548-815.593,541.083-814.948z"
   id="path150" />
			<path
   d="M607.768-717.496c0.434,0.603,0.856,0.938,0.868,1.286c0.009,0.265-0.505,0.547-0.787,0.821     c-0.285-0.321-0.681-0.604-0.81-0.979C606.972-716.563,607.377-716.919,607.768-717.496z"
   id="path152" />
			<path
   d="M905.972-848.393c-0.376-0.615-0.801-1.017-0.725-1.258c0.109-0.342,0.588-0.567,0.908-0.843     c0.244,0.308,0.672,0.61,0.682,0.926C906.847-849.271,906.416-848.961,905.972-848.393z"
   id="path154" />
			<path
   d="M916.174-643.119c-0.438-0.658-0.854-1.011-0.842-1.349c0.01-0.295,0.503-0.573,0.782-0.858     c0.301,0.3,0.76,0.562,0.849,0.914C917.026-644.156,916.599-643.777,916.174-643.119z"
   id="path156" />
			<path
   d="M633.129-581.515c-0.364,0.203-0.745,0.587-1.087,0.555c-0.289-0.027-0.743-0.538-0.738-0.83     c0.004-0.287,0.481-0.78,0.771-0.796c0.343-0.018,0.707,0.38,1.063,0.597C633.134-581.831,633.132-581.673,633.129-581.515z"
   id="path158" />
			<path
   d="M856.531-534.095c-0.344,0.238-0.688,0.657-1.032,0.656c-0.286,0-0.779-0.477-0.8-0.771     c-0.021-0.286,0.411-0.819,0.697-0.858c0.34-0.047,0.735,0.318,1.107,0.505C856.513-534.406,856.522-534.25,856.531-534.095z"
   id="path160" />
			<path
   d="M975.086-799.998c-0.685,0.377-1.099,0.782-1.347,0.699c-0.345-0.117-0.567-0.6-0.842-0.926     c0.306-0.256,0.62-0.727,0.913-0.713C974.149-800.922,974.469-800.48,975.086-799.998z"
   id="path162" />
			<path
   d="M977.745-703.837c-0.37-0.608-0.76-0.965-0.719-1.26c0.045-0.312,0.501-0.563,0.777-0.842     c0.288,0.307,0.743,0.583,0.808,0.932C978.659-704.754,978.189-704.405,977.745-703.837z"
   id="path164" />
			<path
   d="M777.669-678.573c-0.411-0.589-0.86-0.964-0.798-1.208c0.088-0.345,0.555-0.594,0.859-0.884     c0.261,0.291,0.704,0.566,0.731,0.879C778.488-679.492,778.076-679.159,777.669-678.573z"
   id="path166" />
			<path
   d="M739.262-928.244c0.588,0.692,1.058,1.247,1.528,1.801c-0.173,0.127-0.46,0.395-0.503,0.359     c-0.541-0.435-1.058-0.904-1.539-1.405C738.715-927.525,739.006-927.874,739.262-928.244z"
   id="path168" />
			<path
   d="M566.624-936.224c-0.314,0.138-0.67,0.438-0.931,0.371c-0.349-0.09-0.624-0.466-0.931-0.72     c0.268-0.235,0.556-0.682,0.8-0.66c0.385,0.035,0.74,0.387,1.108,0.603C566.656-936.494,566.64-936.358,566.624-936.224z"
   id="path170" />
			<path
   d="M838.417-748.801c0.366,0.642,0.755,1.018,0.697,1.305c-0.063,0.305-0.56,0.742-0.841,0.723     c-0.278-0.019-0.712-0.523-0.729-0.833C837.528-747.898,837.965-748.217,838.417-748.801z"
   id="path172" />
			<path
   d="M576.601-912.545c0.375,0.611,0.801,1.016,0.722,1.25c-0.114,0.34-0.592,0.558-0.915,0.828     c-0.243-0.307-0.668-0.608-0.676-0.922C575.723-911.682,576.156-911.986,576.601-912.545z"
   id="path174" />
			<path
   d="M969.98-774.735c-0.67,0.374-1.061,0.768-1.329,0.697c-0.303-0.079-0.642-0.562-0.68-0.899     c-0.023-0.205,0.503-0.67,0.768-0.658C969.059-775.583,969.362-775.189,969.98-774.735z"
   id="path176" />
			<path
   d="M707.177-882.941c-0.642,0.383-1.008,0.777-1.295,0.727c-0.309-0.057-0.763-0.542-0.747-0.818     c0.016-0.284,0.502-0.728,0.815-0.757C706.24-883.816,706.57-883.386,707.177-882.941z"
   id="path178" />
			<path
   d="M546.187-509.742c-0.406-0.654-0.81-1.018-0.759-1.3c0.055-0.303,0.511-0.675,0.842-0.733     c0.199-0.035,0.69,0.468,0.695,0.735C546.972-510.719,546.601-510.391,546.187-509.742z"
   id="path180" />
			<path
   d="M787.03-659.615c-0.65,0.411-1.012,0.817-1.292,0.768c-0.304-0.054-0.676-0.506-0.738-0.837     c-0.036-0.196,0.462-0.688,0.73-0.695C786.05-660.39,786.38-660.022,787.03-659.615z"
   id="path182" />
			<path
   d="M534.778-950.506c-0.128-0.375-0.409-0.782-0.342-1.119c0.064-0.322,0.486-0.789,0.758-0.794     c0.297-0.005,0.602,0.448,0.904,0.7c-0.23,0.275-0.461,0.551-0.692,0.825C535.197-950.764,534.987-950.635,534.778-950.506z"
   id="path184" />
			<path
   d="M905.128-865.761c-0.512,0.339-0.832,0.716-1.102,0.683c-0.286-0.033-0.524-0.459-0.783-0.715     c0.284-0.268,0.537-0.686,0.863-0.754C904.326-866.594,904.65-866.148,905.128-865.761z"
   id="path186" />
			<path
   d="M931.466-499.832c-0.572,0.337-0.91,0.692-1.223,0.671c-0.259-0.018-0.487-0.478-0.729-0.743     c0.285-0.261,0.544-0.671,0.867-0.731C930.611-500.679,930.93-500.251,931.466-499.832z"
   id="path188" />
			<path
   d="M858.609-756.677c-0.477,0.366-0.805,0.794-1.023,0.745c-0.319-0.072-0.56-0.488-0.834-0.759     c0.262-0.244,0.508-0.657,0.789-0.683C857.81-757.398,858.116-757.019,858.609-756.677z"
   id="path190" />
			<path
   d="M736.174-963.035c-0.235-0.488-0.483-0.854-0.427-0.909c0.475-0.466,1.003-0.878,1.532-1.282     c0.017-0.013,0.362,0.336,0.344,0.361C737.211-964.308,736.769-963.771,736.174-963.035z"
   id="path192" />
			<path
   d="M732.255-893.054c-0.5,0.329-0.857,0.729-1.07,0.663c-0.312-0.096-0.52-0.527-0.771-0.815     c0.276-0.225,0.55-0.617,0.831-0.622C731.513-893.831,731.788-893.433,732.255-893.054z"
   id="path194" />
			<path
   d="M536.163-918.48c0.32,0.549,0.68,0.891,0.631,1.157c-0.05,0.278-0.497,0.483-0.769,0.721     c-0.235-0.275-0.644-0.544-0.654-0.827C535.361-917.701,535.767-917.986,536.163-918.48z"
   id="path196" />
			<path
   d="M620.916-851.285c-0.41,0.35-0.684,0.582-0.957,0.814c-0.218-0.336-0.58-0.662-0.603-1.011     c-0.016-0.226,0.462-0.486,0.718-0.732C620.315-851.946,620.557-851.68,620.916-851.285z"
   id="path198" />
			<path
   d="M544.13-583.729c-0.336-0.52-0.705-0.84-0.667-1.1c0.041-0.274,0.47-0.491,0.73-0.732     c0.241,0.26,0.652,0.507,0.674,0.785C544.889-584.516,544.499-584.222,544.13-583.729z"
   id="path200" />
			<path
   d="M816.044-961.574c0.338,0.605,0.645,0.904,0.613,1.162c-0.04,0.326-0.357,0.617-0.555,0.924     c-0.209-0.252-0.569-0.493-0.588-0.76C815.491-960.566,815.759-960.906,816.044-961.574z"
   id="path202" />
			<path
   d="M903.072-771.736c-0.379-0.512-0.733-0.783-0.751-1.076c-0.015-0.235,0.414-0.721,0.583-0.695     c0.307,0.049,0.736,0.357,0.796,0.628C903.755-772.629,903.394-772.285,903.072-771.736z"
   id="path204" />
			<path
   d="M571.521-714.021c-0.371-0.541-0.749-0.85-0.721-1.116c0.028-0.276,0.449-0.513,0.699-0.767     c0.231,0.231,0.638,0.455,0.648,0.695C572.158-714.907,571.843-714.594,571.521-714.021z"
   id="path206" />
			<path
   d="M573.463-700.028c0.339,0.442,0.732,0.749,0.683,0.941c-0.076,0.297-0.456,0.516-0.707,0.767     c-0.219-0.241-0.59-0.47-0.614-0.729C572.804-699.295,573.147-699.572,573.463-700.028z"
   id="path208" />
			<path
   d="M731.209-937.602c0.316,0.501,0.648,0.8,0.641,1.09c-0.006,0.226-0.512,0.66-0.664,0.609     c-0.293-0.099-0.627-0.446-0.688-0.743C730.456-936.851,730.848-937.143,731.209-937.602z"
   id="path210" />
			<path
   d="M863.609-822.382c-0.465,0.362-0.761,0.756-0.965,0.713c-0.299-0.063-0.642-0.401-0.744-0.698     c-0.05-0.147,0.392-0.654,0.617-0.658C862.81-823.031,863.109-822.698,863.609-822.382z"
   id="path212" />
			<path
   d="M583.594-731.9c0.365-0.371,0.73-0.741,1.096-1.112c0.178,0.187,0.524,0.521,0.51,0.539     c-0.341,0.387-0.722,0.74-1.095,1.099C583.934-731.55,583.764-731.726,583.594-731.9z"
   id="path214" />
			<path
   d="M714.346-982.144c-0.341-0.315-0.682-0.63-1.023-0.945c0.233-0.217,0.466-0.433,0.699-0.649     c0.291,0.371,0.582,0.741,0.873,1.112C714.711-982.466,714.529-982.305,714.346-982.144z"
   id="path216" />
			<path
   d="M929.261-649.533c-0.404,0.341-0.684,0.745-0.887,0.709c-0.299-0.052-0.543-0.418-0.811-0.65     c0.252-0.25,0.471-0.631,0.766-0.703C928.529-650.227,928.836-649.845,929.261-649.533z"
   id="path218" />
			<path
   d="M728.225-711.075c-0.584,0.311-0.908,0.622-1.197,0.593c-0.227-0.023-0.582-0.478-0.566-0.72     c0.014-0.236,0.436-0.635,0.662-0.624C727.415-711.813,727.691-711.463,728.225-711.075z"
   id="path220" />
			<path
   d="M818.666-678.727c-0.61,0.241-0.938,0.493-1.211,0.443c-0.257-0.047-0.456-0.411-0.682-0.635     c0.295-0.152,0.585-0.408,0.887-0.424C817.894-679.354,818.143-679.064,818.666-678.727z"
   id="path222" />
			<path
   d="M653.369-801.11c0.315,0.459,0.659,0.739,0.636,0.983c-0.024,0.26-0.398,0.485-0.618,0.727     c-0.25-0.253-0.629-0.474-0.703-0.769C652.636-800.364,653.029-800.668,653.369-801.11z"
   id="path224" />
			<path
   d="M737.234-970.928c-0.457,0.322-0.775,0.703-0.969,0.646c-0.293-0.084-0.499-0.473-0.742-0.732     c0.251-0.211,0.493-0.573,0.755-0.588C736.523-971.617,736.789-971.262,737.234-970.928z"
   id="path226" />
			<path
   d="M554.267-515.041c0.332,0.437,0.691,0.702,0.679,0.949c-0.012,0.26-0.379,0.503-0.592,0.753     c-0.261-0.243-0.651-0.448-0.736-0.741C553.563-514.273,553.948-514.594,554.267-515.041z"
   id="path228" />
			<path
   d="M725.029-977c0.365,0.43,0.775,0.715,0.736,0.91c-0.059,0.299-0.43,0.537-0.668,0.801     c-0.232-0.229-0.617-0.438-0.654-0.693C724.408-976.228,724.736-976.525,725.029-977z"
   id="path230" />
			<path
   d="M531.01-522.202c-0.42,0.358-0.709,0.772-0.905,0.732c-0.299-0.062-0.534-0.437-0.795-0.679     c0.231-0.233,0.441-0.623,0.699-0.657C530.254-522.837,530.548-522.499,531.01-522.202z"
   id="path232" />
			<path
   d="M937.455-684.858c0.287,0.466,0.648,0.807,0.581,0.998c-0.101,0.286-0.501,0.467-0.774,0.692     c-0.196-0.262-0.549-0.525-0.546-0.785C936.72-684.199,937.094-684.44,937.455-684.858z"
   id="path234" />
			<path
   d="M749.295-778.901c-0.291-0.495-0.614-0.801-0.57-1.038c0.048-0.251,0.443-0.438,0.688-0.652     c0.214,0.246,0.584,0.484,0.596,0.739C750.019-779.611,749.654-779.353,749.295-778.901z"
   id="path236" />
			<path
   d="M712.973-570.716c-0.293-0.436-0.631-0.72-0.6-0.954c0.033-0.248,0.488-0.67,0.637-0.623     c0.294,0.091,0.629,0.422,0.701,0.714C713.754-571.404,713.33-571.114,712.973-570.716z"
   id="path238" />
			<path
   d="M967.628-551.257c-0.365,0.234-0.656,0.523-0.758,0.467c-0.306-0.167-0.537-0.47-0.798-0.72     c0.227-0.186,0.503-0.558,0.67-0.514C967.026-551.949,967.242-551.613,967.628-551.257z"
   id="path240" />
			<path
   d="M540.412-545.612c-0.365,0.678-0.521,1.147-0.83,1.466c-0.159,0.165-0.592,0.066-0.9,0.087     c0.062-0.277,0.032-0.673,0.205-0.808C539.243-545.146,539.707-545.284,540.412-545.612z"
   id="path242" />
			<path
   d="M517.83-541.386c-0.286-0.452-0.614-0.74-0.581-0.979c0.035-0.253,0.413-0.458,0.641-0.684     c0.24,0.256,0.609,0.484,0.674,0.778C518.605-542.084,518.191-541.799,517.83-541.386z"
   id="path244" />
			<path
   d="M651.299-690.008c-0.449,0.359-0.709,0.728-0.949,0.716c-0.254-0.014-0.666-0.378-0.682-0.61     c-0.015-0.228,0.355-0.635,0.608-0.681C650.513-690.625,650.816-690.298,651.299-690.008z"
   id="path246" />
			<path
   d="M891.873-496.828c-0.498,0.308-0.768,0.603-1.036,0.599c-0.207-0.003-0.604-0.425-0.568-0.579     c0.063-0.273,0.369-0.641,0.617-0.678C891.111-497.52,891.394-497.167,891.873-496.828z"
   id="path248" />
			<path
   d="M669.732-981.916c0.309,0.422,0.492,0.674,0.678,0.926c-0.268,0.18-0.527,0.479-0.806,0.498     c-0.193,0.014-0.604-0.392-0.577-0.551C669.072-981.308,669.393-981.524,669.732-981.916z"
   id="path250" />
			<path
   d="M549.21-782.908c-0.5,0.313-0.802,0.648-1.028,0.604c-0.247-0.05-0.532-0.428-0.59-0.707     c-0.03-0.145,0.396-0.547,0.609-0.541C548.467-783.545,548.724-783.238,549.21-782.908z"
   id="path252" />
			<path
   d="M518.88-831.402c-0.508,0.297-0.821,0.625-1.048,0.574c-0.245-0.056-0.517-0.447-0.566-0.729     c-0.025-0.148,0.414-0.537,0.624-0.523C518.157-832.063,518.405-831.748,518.88-831.402z"
   id="path254" />
			<path
   d="M495.579-708.113c0.355,0.47,0.674,0.712,0.696,0.979c0.018,0.211-0.364,0.658-0.51,0.635     c-0.284-0.046-0.681-0.308-0.743-0.554C494.966-707.278,495.29-707.599,495.579-708.113z"
   id="path256" />
			<path
   d="M977.778-708.211c-0.453,0.359-0.716,0.725-0.946,0.706c-0.247-0.021-0.574-0.373-0.65-0.642     c-0.043-0.153,0.334-0.594,0.542-0.607C976.989-708.772,977.274-708.489,977.778-708.211z"
   id="path258" />
			<path
   d="M887.79-947.734c-0.295-0.473-0.627-0.771-0.585-1.002c0.046-0.248,0.448-0.607,0.681-0.597     c0.226,0.011,0.589,0.421,0.602,0.671C888.499-948.426,888.136-948.169,887.79-947.734z"
   id="path260" />
			<path
   d="M787.768-570.678c-0.489,0.335-0.776,0.683-1.005,0.647c-0.249-0.04-0.549-0.407-0.616-0.684     c-0.035-0.147,0.373-0.564,0.583-0.566C786.997-571.283,787.268-570.988,787.768-570.678z"
   id="path262" />
			<path
   d="M545.13-970.781c-0.286-0.535-0.584-0.84-0.544-1.089c0.041-0.256,0.414-0.458,0.641-0.683     c0.199,0.248,0.543,0.492,0.554,0.748C545.792-971.549,545.467-971.279,545.13-970.781z"
   id="path264" />
			<path
   d="M949.42-837.449c0.357,0.404,0.723,0.646,0.696,0.829c-0.041,0.274-0.315,0.601-0.575,0.72     c-0.122,0.057-0.612-0.304-0.63-0.503C948.888-836.667,949.163-836.958,949.42-837.449z"
   id="path266" />
			<path
   d="M929.226-804.106c-0.477,0.277-0.753,0.563-1.016,0.552c-0.2-0.01-0.582-0.477-0.532-0.6     c0.107-0.265,0.415-0.556,0.687-0.609C928.545-804.799,928.804-804.445,929.226-804.106z"
   id="path268" />
			<path
   d="M707.855-893.065c-0.451,0.29-0.737,0.608-0.916,0.558c-0.262-0.077-0.446-0.418-0.664-0.646     c0.207-0.195,0.424-0.556,0.621-0.546C707.158-893.685,707.406-893.383,707.855-893.065z"
   id="path270" />
			<path
   d="M881.8-777.908c-0.32-0.477-0.66-0.762-0.627-0.992c0.035-0.242,0.402-0.538,0.673-0.602     c0.145-0.034,0.557,0.371,0.556,0.576C882.399-778.659,882.106-778.394,881.8-777.908z"
   id="path272" />
			<path
   d="M874.599-713.243c-0.286-0.492-0.613-0.809-0.556-1.022c0.063-0.24,0.463-0.497,0.742-0.53     c0.156-0.019,0.532,0.416,0.511,0.615C875.268-713.917,874.948-713.685,874.599-713.243z"
   id="path274" />
		</g>
		<g
   id="g280">
			<polygon
   fill="#FFFFFF"
   points="496,-490.25 0,-490.25 0,-989.75 496,-989.75    "
   id="polygon278" />
		</g>
		<g
   id="g284">
			<polygon
   fill="#FFFFFF"
   points="1476.5,-980.5 980.5,-980.5 980.5,-1480 1476.5,-1480    "
   id="polygon282" />
		</g>
		<g
   id="g288">
			<polygon
   fill="#FFFFFF"
   points="986.25,-980.5 490.25,-980.5 490.25,-1480 986.25,-1480    "
   id="polygon286" />
		</g>
		<g
   id="g292">
			<polygon
   fill="#FFFFFF"
   points="496,-980.5 0,-980.5 0,-1480 496,-1480    "
   id="polygon290" />
		</g>
	</g>
</pattern>
<pattern
   id="SVGID_1_"
   xlink:href="#suciedad_invertida_2"
   patternTransform="matrix(1.482,0,0,0.8995,3009.5486,-3166.967)">
</pattern>

<pattern
   id="SVGID_2_"
   xlink:href="#suciedad_invertida_2"
   patternTransform="matrix(-1.482,0,0,0.8995,-17620.44,-1877.1415)">
</pattern>


<g
   id="g1942"
   transform="translate(-378.27766,-404.0009)"><path
     d="m 499.23625,557.70412 c 1.489,-9.885 0.248,-12.115 -0.738,-15.082 -0.98,-2.974 -0.98,-5.693 -1.495,-15.581 -0.478,-9.885 -1.228,-19.531 -0.478,-26.942 0.741,-7.42 0.992,-7.916 -0.251,-16.319 -1.243,-8.415 -5.929,-10.146 -9.147,-11.377 -3.218,-1.243 -7.423,-2.465 -10.384,-3.959 -2.967,-1.482 -4.459,-5.935 -4.459,-5.935 1.984,2.967 6.933,-0.493 6.933,-0.493 -3.953,-0.496 -1.978,-1.231 0.245,-4.456 2.223,-3.219 -0.493,-3.947 -1.975,-7.91 -1.495,-3.953 1.231,-8.89 1.73,-16.319 0.487,-7.414 -1.73,-6.667 -6.933,-16.561 -5.188,-9.891 -10.127,-7.674 -17.051,-11.377 -6.936,-3.705 -4.198,0.992 -7.178,2.474 -2.961,1.479 -2.474,2.472 -4.698,2.472 -2.217,0 -3.705,1.482 -4.943,4.449 -1.243,2.968 -1.73,3.953 -1.73,3.953 -5.436,1.237 -0.744,8.905 -0.744,8.905 -1.231,1.231 -1.485,6.927 -1.485,6.927 0,0 -3.219,0.493 -7.662,2.232 -4.456,1.724 -15.569,4.199 -23.984,5.178 -8.409,0.986 -22.26,6.186 -22.26,6.186 -6.421,3.209 2.23,11.377 7.916,17.054 5.699,5.687 31.901,20.043 31.901,20.043 4.205,1.718 3.46,6.915 3.46,6.915 -14.58,7.169 -0.242,27.442 0.251,34.859 0.493,7.426 -4.205,19.792 -5.2,24.477 -0.992,4.704 -8.902,32.886 -10.375,41.054 -1.488,8.158 -2.232,32.387 -2.48,36.849 -0.251,4.44 -1.981,21.745 -4.701,27.69 -2.716,5.935 -0.493,20.766 0.502,25.21495 0.986,4.446 2.716,5.935 4.199,16.819 1.485,10.871 7.417,30.905 9.888,39.06 2.468,8.164 9.398,27.209 8.902,31.901 -0.493,4.698 -0.493,12.115 0.989,16.812 1.479,4.704 -0.251,9.64 -0.251,9.64 -8.645,14.837 -3.702,18.806 -3.702,18.806 l -6.679,0.729 c -4.943,0.251 -1.247,12.121 -1.247,12.121 5.693,7.668 23.249,5.194 23.249,5.194 6.685,-2.726 9.659,-17.315 9.659,-17.315 1.225,1.73 0.98,17.315 0.98,17.315 l 4.208,-0.49 c -0.757,-5.19 6.428,-25.721 7.659,-31.655 1.241,-5.941 -2.462,-8.902 -4.205,-14.843 -1.73,-5.922 1.24,-13.591 2.481,-20.012 1.221,-6.434 3.947,-14.853 6.428,-22.76 2.474,-7.91 4.456,-15.578 5.935,-27.203 1.473,-11.615 0.245,-27.438 -0.744,-34.117 -0.992,-6.67295 -1.736,-13.85095 0.989,-19.78295 2.722,-5.935 8.409,-26.952 8.409,-26.952 l 4.691,-0.986 c -3.956,8.896 12.363,-6.186 12.363,-6.186 2.968,-6.679 2.474,-7.417 2.226,-14.825 -0.245,-7.423 -1.476,-20.775 -0.732,-27.702 0.732,-6.93 0.236,-18.295 1.718,-28.189 z m -81.351,-94.204 c -5.218,-0.648 -12.942,-5.147 -14.704,-6.198 -0.36,0.18 -0.565,0.335 -0.62,0.505 -0.078,0.22 -0.112,0.329 0,0 v 0 c 0.087,-0.273 0.248,-0.735 0.248,-0.735 0,0 0.143,0.078 0.372,0.23 1.141,-0.602 3.941,-1.597 9.017,-5.172 6.679,-4.704 20.781,-5.197 20.781,-5.197 1.476,0.493 0.738,4.446 -0.499,6.428 -1.243,1.981 0.986,5.19 1.73,7.665 0.738,2.474 1.485,4.692 1.485,4.692 -2.964,-2.218 -11.869,-1.474 -17.81,-2.218 z m 23.497,294.98295 c -3.219,-4.205 -3.724,-16.561 -4.949,-23.491 -1.221,-6.924 -0.493,-14.087 -1.485,-27.69 -0.989,-13.6 -5.436,-16.573 -9.147,-28.189 -3.705,-11.62195 16.074,-40.54795 16.074,-40.54795 l 3.219,-0.254 c -1.737,2.722 -1.982,28.688 -2.23,34.123 -0.251,5.442 1.24,13.59395 2.481,18.54895 1.234,4.943 0.735,10.878 1.234,20.279 0.497,9.386 -5.197,47.221 -5.197,47.221 z m 32.146,-212.40095 c -4.691,-8.403 -1.739,-11.135 0.248,-15.327 1.975,-4.205 1.237,-5.684 1.237,-9.395 0,-3.712 5.436,-9.395 5.436,-9.395 -0.986,3.46 2.223,15.575 2.713,22.003 0.499,6.428 0,10.878 0.248,15.581 0.251,4.698 1.736,15.569 1.736,15.569 -0.737,-3.203 -6.926,-10.62 -11.618,-19.036 z"
     id="path342"
     inkscape:connector-curvature="0"
     style="fill:#2f2430" /><path
     d="m 915.71712,784.57147 -1.064,-1.913 c 3.4,-0.626 12.75,-15.926 12.75,-15.926 7.43,-10.193 19.747,-6.799 19.747,-6.799 l 7.258,-17.188 c -0.844,-2.55 -5.998,-17.746 -7.063,-24.118 -2.225,-13.301 -2.225,-16.412 -1.775,-22.181 0.481,-6.363 2.845,-5.8 1.775,-10.208 -6.069,-25.097 -5.531,-43.862 -8.41,-53.698 -1.925,2.505 -4.903,2.225 -4.903,2.225 l 1.613,-6.924 c -19.526,-37.71 5.044,-53.43201 5.044,-53.43201 0.371,-0.974 0.821,-1.846 1.243,-2.734 -10.697,-6.38899 -23.249,-15.00299 -22.493,-19.88299 0.994,-6.50501 3.269,-33.92601 9.109,-48.31401 0.467,-2.901 1.667,-4.458 2.851,-5.44 0.86,-1.206 1.789,-2.115 2.774,-2.686 0.351,-1.475 3.932,0.252 5.545,-1.78 1.698,-2.117 2.131,-8.489 2.131,-8.489 2.338,-4.676 -2.352,-21.029 -2.352,-21.029 -0.62,-1.693 -1.693,-12.956 -1.693,-12.956 0.855,-18.479 17.205,-21.878 17.205,-21.878 2.55,0.645 2.55,-0.221 2.55,-0.221 12.322,-6.36 24.22001,18.286 24.22001,18.286 0,0 0.841,0 3.394,-1.073 2.551,-1.064 9.361,-3.323 16.14897,-4.464 2.412,-0.41 6.126,-3.592 8.917,2.984 6.578,15.472 -5.308,45.659 -5.308,45.659 -4.679,12.316 -5.28197,16.724 -5.28197,16.724 0.198,5.002 2.30397,13.225 2.30397,13.225 9.525,11.578 -0.433,18.485 -1.059,24.435 -0.642,5.93901 -5.30197,22.93201 -6.37797,31.432 -1.059,8.498 -0.634,9.352 -0.634,9.352 1.061,0.631 1.061,5.94501 1.061,5.94501 1.914,2.967 0.413,6.998 1.475,10.386 0,0 1.398,4.77 2.508,9.257 1.13497,4.47 1.69297,15.125 2.53597,17.36 0.83,2.248 -1.401,1.135 -1.401,1.135 l 0.832,4.555 c 1.277,1.279 3.185,14.445 4.458,20.608 1.271,6.154 2.768,25.476 3.822,33.767 0.572,4.464 1.064,11.462 -3.822,16.56 -4.891,5.104 -32.49898,42.067 -32.49898,42.067 -0.846,3.807 5.09801,24.002 6.80501,27.186 1.698,3.187 4.243,7.651 5.514,11.473 1.274,3.80999 7.646,14.43699 9.132,17.20799 1.492,2.752 7.64897,5.514 7.64897,5.514 8.495,1.913 3.19,11.691 3.19,11.691 -5.94497,4.031 -24.01597,1.059 -24.01597,1.059 -2.748,-1.282 -4.24001,-8.719 -6.14801,-13.384 -1.908,-4.668 -5.098,-5.528 -5.098,-5.528 l -0.427,14.875 h -1.492 c 1.073,-2.132 -6.366,-20.398 -6.366,-20.398 -3.609,-5.724 3.606,-19.74999 3.606,-19.74999 1.492,-2.984 -3.81,-14.02 -3.81,-14.02 -1.492,8.503 -19.767,35.04899 -20.403,37.59699 -0.634,2.545 0,8.073 0,8.073 2.774,5.729 -1.699,10.61 -1.699,10.61 h -6.154 c -4.045,-2.961 -10.621,-14.004 -9.99,-20.392 0.637,-6.36 6.163,-10.82499 8.076,-14.01999 1.914,-3.165 -0.427,-8.274 -0.427,-8.274 -2.965,-2.775 -15.077,7.852 -15.077,7.852 z m 78.58301,-313.51101 2.341,-11.475 c 1.064,-3.171 -8.489,-0.419 -8.489,-0.419 0.846,6.371 6.148,11.894 6.148,11.894 z m -24.41801,241.72201 c 0,0 9.13501,-12.752 11.89701,-16.342 2.754,-3.629 2.064,-7.745 0.297,-11.377 -3.581,-7.332 -6.56501,-24.856 -6.56501,-24.856 0,0 -2.867,27.514 -2.867,30.472 0,2.992 -1.914,8.925 -2.763,11.487 -0.845,2.545 10e-4,10.616 10e-4,10.616 z m -22.538,-171.65101 c -1.322,-2.655 -3.612,-5.101 -5.806,-7.094 -2.364,6.397 -4.792,12.489 -6.162,14.629 -1.783,2.77401 0.113,2.36101 3.793,4.93401 2.961,2.078 6.103,4.487 9.021,6.828 0.218,-0.41 0.459,-0.801 0.662,-1.223 4.261,-8.75801 0.499,-14.06001 -1.508,-18.07401 z"
     id="path344"
     inkscape:connector-curvature="0"
     style="fill:#2f2430" /><path
     style="fill:#423344"
     inkscape:connector-curvature="0"
     id="path348"
     d="m 578.43388,648.08883 c 5.2,9.505 14.867,39.839 19.906,47.581 3.278,5.05 2.301,6.343 1.146,13.273 -1.146,6.915 1.727,42.092 2.301,48.733 0.583,6.629 -2.301,20.469 -4.034,24.805 -1.724,4.317 -4.617,10.655 -4.617,10.655 l 2.313,2.896 c -2.599,2.015 -4.611,8.656 -5.197,15.286 -0.572,6.635 -2.584,19.028 -2.584,19.028 -1.732,10.088 14.991,10.375 14.991,10.375 6.341,-1.421 5.475,-11.235 5.775,-14.991 0.286,-3.739 0,-18.737 0,-18.737 -1.446,-3.756 2.298,-4.617 2.298,-4.617 l 2.018,5.772 c -3.462,2.882 -0.572,26.815 -0.572,26.815 0.86,12.69 12.398,10.38 12.398,10.38 6.924,-0.866 7.496,-5.472 8.934,-9.508 1.447,-4.036 -3.451,-15.283 -3.451,-21.924 0,-6.635 -2.318,-16.724 -2.318,-16.724 l -2.299,-42.978 c 0,0 0.866,-11.53 2.885,-18.159 2.018,-6.641 4.605,-29.994 4.903,-37.201 0.28,-7.215 0.275,-14.131 2.307,-21.346 2.013,-7.21 3.445,-21.346 8.642,-37.781 5.189,-16.427 3.176,-30.86 1.732,-39.797 -1.447,-8.937 -9.808,-21.632 -9.808,-21.632 l 1.732,-2.296 c 2.024,2.887 2.89,-6.641 2.89,-6.641 0.28,-2.593 0.28,-4.614 0.28,-4.614 l 2.301,4.614 c 4.337,3.465 0.872,-6.915 0.872,-6.915 3.745,-1.732 24.811,-26.824 24.811,-26.824 2.004,0 5.475,-6.066 5.475,-6.066 l 3.159,-4.6 c 3.759,-4.331 16.455,-1.158 16.455,-1.158 3.739,0.297 7.496,-5.186 8.936,-6.93 1.432,-1.727 4.031,-10.666 4.031,-10.666 -1.438,-3.453 -4.903,4.048 -4.903,4.048 l -0.855,-7.798 c -1.452,-2.301 -2.024,5.489 -2.024,5.489 l -6.063,-3.756 c -6.338,-1.732 1.738,4.903 1.738,4.903 1.152,0.575 -2.884,1.452 -7.215,1.452 -4.322,0 -7.793,1.147 -10.38,2.004 -2.596,0.881 -9.805,9.814 -9.805,9.814 -4.903,-0.58 -6.915,5.769 -6.915,5.769 -1.161,1.715 -13.268,10.663 -13.268,10.663 0,0 0,-15.566 1.141,-25.66 1.166,-10.091 -2.299,-11.83 -6.63,-14.422 -4.317,-2.599 -10.666,-7.215 -12.104,-8.942 -1.435,-1.73 -1.149,-10.386 -1.149,-10.386 0,0 -1.449,-2.298 1.149,0.306 1.766,1.772 4.886,-0.102 6.692,-1.452 -2.902,1.568 -6.154,-1.398 -8.127,-2.884 -2.318,-1.732 0,-26.249 0,-26.249 2.873,-0.575 6.332,-5.478 6.332,-5.478 3.462,-9.514 -3.459,-21.626 -6.918,-22.207 -3.456,-0.572 -7.496,-2.31 -10.677,-5.183 -3.773,-3.437 -14.42,-4.042 -14.42,-4.042 -14.697,-1.721 -14.983,13.27 -14.983,13.27 0.858,1.738 -1.447,3.17 -1.447,3.17 -6.349,4.325 0.292,6.344 0.292,6.344 -4.617,4.903 -2.884,23.359 0.283,37.204 3.176,13.842 -0.866,10.091 -0.866,10.091 -2.61,-2.31 -16.713,-0.286 -16.713,-0.286 -7.221,-0.577 -8.367,10.955 -9.239,17.596 -0.855,6.624 -4.031,39.783 -4.031,39.783 -1.441,10.094 12.984,10.972 12.984,10.972 -0.289,1.721 3.737,18.162 6.341,24.797 2.587,6.624 -0.583,12.402 -3.171,16.152 0.002,-0.002 -13.62,20.359 6.34,56.81 z m 49.608,-92.581 0.292,-7.49 c 2.944,0.249 3.377,-2.658 3.453,-3.507 v -0.252 c 0,0 0,0.096 0,0.252 l -0.569,10.997 z m 6.049,18.465 c 0,-2.03 -2.59,-4.909 -2.59,-4.909 7.207,-2.592 2.59,6.933 2.59,4.909 z" /><path
     d="m 857.58358,601.47098 c -2.549,-2.691 -14.019,-20.108 -16.143,-22.94 -2.124,-2.832 -10.337,-12.037 -13.594,-15.718 -3.257,-3.682 -17.842,-20.533 -17.842,-20.533 0,0 0.425,-3.257 2.124,-13.028 1.699,-9.771 5.098,-13.028 5.098,-13.028 0,0 2.407,1.274 5.24,-0.283 2.832,-1.558 4.248,-6.939 4.248,-6.939 0,0 3.965,2.974 15.718,5.381 11.753,2.407 16.568,0.283 19.683,-3.965 3.115,-4.248 -4.39,-14.585 -6.514,-17.559 -2.124,-2.974 -10.337,-18.55 -12.178,-22.232 -1.841,-3.682 -5.947,-11.612 -7.647,-13.311 -1.699,-1.699 -10.054,-5.806 -10.054,-5.806 0,0 0.425,-6.656 -3.257,-20.958 -3.682,-14.302 -14.585,-18.692 -16.709,-19.4 -2.124,-0.708 -5.098,1.416 -5.098,1.416 0,0 -6.08899,-3.965 -16.14299,6.089 -10.054,10.054 -10.762,20.391 -11.045,22.515 -0.283,2.124 -4.39,6.231 -5.523,9.063 -1.133,2.832 -1.275,17.842 -1.558,19.258 -0.283,1.416 -2.549,4.531 -3.682,5.239 -1.133,0.708 -6.797,-1.416 -11.045,0.566 -4.248,1.982 -6.514,5.947 -8.072,8.78 -1.558,2.832 -2.124,19.966 -2.407,24.923 -0.283,4.956 -2.407,34.552 -2.832,37.526 -0.425,2.974 9.488,31.012 11.045,33.985 1.558,2.974 2.266,12.32 2.266,12.32 0,0 -1.133,10.62 -1.416,13.169 -0.283,2.549 -1.699,17.134 -1.841,19.966 -0.142,2.832 -2.974,6.655 -2.124,7.647 0.85,0.991 3.682,2.266 3.682,2.266 0,0 0.142,4.815 0.566,5.664 0.425,0.85 1.841,0.991 4.956,-1.416 3.115,-2.407 3.257,-6.797 3.823,-7.08 0.566,-0.283 4.39,1.274 4.39,1.274 0,0 12.036,34.269 13.453,37.101 1.416,2.832 4.673,13.311 3.54,19.966 -1.133,6.655 -2.549,20.533 -2.691,25.914 -0.142,5.381 5.806,33.419 8.78,43.048 2.974,9.629 3.115,18.834 3.115,18.834 0,0 -0.425,0.708 -0.991,0.708 -0.566,0 -0.85,2.549 -0.85,2.549 l 1.983,2.266 c 0,0 -3.115,4.956 -2.407,8.496 0.708,3.54 4.815,15.01 5.098,17.134 0.283,2.124 0.283,14.019 0.283,14.019 l 1.983,0.425 0.283,-4.815 c 0,0 0.283,6.089 0.708,7.505 0.425,1.416 2.691,7.222 6.08899,8.78 3.398,1.558 13.736,-1.841 13.736,-1.841 0,0 5.381,-1.841 5.664,-2.407 0.283,-0.566 -0.85,-10.904 -0.85,-11.612 0,-0.708 -2.124,-2.407 -2.124,-2.407 0,0 -1.416,-3.54 -1.416,-4.248 0,-0.708 -5.948,-13.028 -5.948,-13.028 0,0 -0.566,-21.666 -0.566,-23.79 0,-2.124 0.425,-4.815 1.133,-7.364 0.708,-2.549 -0.566,-9.912 -0.425,-11.47 0.141,-1.558 3.257,-12.745 4.673,-21.524 1.416,-8.78 5.664,-38.658 5.098,-42.907 -0.566,-4.248 -1.416,-14.161 -1.133,-16.71 0.283,-2.549 8.78,-40.075 8.78,-40.075 0,0 9.488,-2.974 12.036,-4.673 2.548,-1.699 5.664,-6.089 8.072,-7.93 2.407,-1.841 10.054,-5.239 15.293,-9.488 5.239,-4.248 5.523,-9.629 5.523,-9.629 0,0 -9.488,-0.987 -12.037,-3.678 z m -33.579,-119.034 0.137,-0.412 c 0,0 2.195,-1.852 2.333,-4.047 0.137,-2.195 0.206,-4.939 0.206,-4.939 0,0 3.156,-1.441 5.763,0.823 2.607,2.264 8.644,19.003 8.85,20.032 0.206,1.029 -0.549,2.264 -0.549,2.264 l -10.496,-8.095 c 0,0 -0.755,-2.195 -1.509,-2.95 -0.755,-0.755 -4.734,-2.127 -4.734,-2.127 v -0.549 z m -66.69399,73.136 c -0.423,1.815 -1.331,10.344 -1.331,10.344 0,0 -3.993,-18.208 -3.75,-20.991 0.242,-2.783 2.964,-24.802 2.964,-24.802 0,0 3.327,17.18 3.569,21.051 0.242,3.873 -1.028,12.583 -1.452,14.398 z"
     id="path354"
     inkscape:connector-curvature="0"
     style="fill:#2f2430" /></g>
</svg>