<?xml version="1.0" encoding="utf-8"?>
<!-- Generator: Adobe Illustrator 16.0.0, SVG Export Plug-In . SVG Version: 6.00 Build 0)  -->
<!DOCTYPE svg PUBLIC "-//W3C//DTD SVG 1.1//EN" "http://www.w3.org/Graphics/SVG/1.1/DTD/svg11.dtd">
<svg version="1.1" xmlns="http://www.w3.org/2000/svg" xmlns:xlink="http://www.w3.org/1999/xlink" x="0px" y="0px"
	 width="335.986px" height="235.19px" viewBox="0 0 335.986 235.19" enable-background="new 0 0 335.986 235.19"
	 xml:space="preserve">
<g id="bg">
	<g>
		<g>
			<rect fill="#EAECF0" width="335.986" height="235.19"/>
		</g>
	</g>
	<g>
		<polyline fill="none" stroke="#231F20" stroke-width="2" stroke-linejoin="round" stroke-miterlimit="10" points="
			256.585,107.843 252.536,103.245 248.573,107.843 		"/>
		
			<line fill="none" stroke="#231F20" stroke-width="2" stroke-linejoin="round" stroke-miterlimit="10" x1="252.675" y1="103.245" x2="252.675" y2="124.72"/>
	</g>
	<polyline fill="none" stroke="#231F20" stroke-width="2" stroke-linejoin="round" stroke-miterlimit="10" points="245.448,94.949 
		241.399,90.352 237.435,94.949 	"/>
	
		<line fill="none" stroke="#0E3C54" stroke-width="2" stroke-miterlimit="10" stroke-dasharray="2" x1="241.591" y1="90.352" x2="241.591" y2="112.518"/>
	
		<line fill="none" stroke="#0E3C54" stroke-width="2" stroke-miterlimit="10" stroke-dasharray="2" x1="241.591" y1="115.982" x2="241.591" y2="138.842"/>
	<g>
		<polyline fill="none" stroke="#231F20" stroke-width="2" stroke-linejoin="round" stroke-miterlimit="10" points="38.555,53.626 
			42.604,58.224 46.566,53.626 		"/>
		
			<line fill="none" stroke="#231F20" stroke-width="2" stroke-linejoin="round" stroke-miterlimit="10" x1="42.465" y1="58.224" x2="42.465" y2="36.749"/>
	</g>
	<polyline fill="none" stroke="#231F20" stroke-width="2" stroke-linejoin="round" stroke-miterlimit="10" points="49.691,66.52 
		53.74,71.117 57.705,66.52 	"/>
	
		<line fill="none" stroke="#0E3C54" stroke-width="2" stroke-miterlimit="10" stroke-dasharray="2" x1="53.549" y1="71.117" x2="53.549" y2="48.951"/>
	
		<line fill="none" stroke="#0E3C54" stroke-width="2" stroke-miterlimit="10" stroke-dasharray="2" x1="53.549" y1="45.486" x2="53.549" y2="22.627"/>
	<g>
		<polyline fill="none" stroke="#231F20" stroke-width="2" stroke-linejoin="round" stroke-miterlimit="10" points="171.424,67.403 
			166.826,63.354 171.424,59.392 		"/>
	</g>
	<g>
		<polyline fill="none" stroke="#231F20" stroke-width="2" stroke-linejoin="round" stroke-miterlimit="10" points="
			165.124,169.788 169.722,173.837 165.124,177.8 		"/>
	</g>
	<path fill="#FFFFFF" stroke="#0E3C54" stroke-width="2" stroke-linejoin="round" stroke-miterlimit="10" d="M301.348,86.603
		h-30.861c-0.859,0-1.557,0.697-1.557,2.049v56.44c0,0.367,0.697,1.063,1.557,1.063h42.615c0.86,0,1.557-0.696,1.557-1.063v-44.688
		c0-0.74-0.099-0.979-0.274-1.154l-12.373-12.374C301.835,86.701,301.598,86.603,301.348,86.603z"/>
	<path fill="none" stroke="#3D3437" stroke-width="2" stroke-miterlimit="10" d="M301.348,86.603h-30.861
		c-0.859,0-1.557,0.697-1.557,2.049v56.44c0,0.367,0.697,1.063,1.557,1.063h42.615c0.86,0,1.557-0.696,1.557-1.063v-44.688
		c0-0.74-0.099-0.979-0.274-1.154l-12.373-12.374C301.835,86.701,301.598,86.603,301.348,86.603z"/>
	<path fill="#FFFFFF" stroke="#3D3437" stroke-width="2" stroke-miterlimit="10" d="M313.102,146.155h-42.615
		c-0.861,0-1.557-0.696-1.557-1.556v-16.522h45.729V144.6C314.658,145.459,313.962,146.155,313.102,146.155z"/>
	<path fill="#FFFFFF" stroke="#3D3437" stroke-width="2" stroke-miterlimit="10" d="M301.896,88.083v11.281h11.283
		c0.485,0,0.73-0.589,0.385-0.933l-10.736-10.736C302.484,87.353,301.896,87.597,301.896,88.083z"/>
	<path fill="#FFFFFF" stroke="#0E3C54" stroke-width="2" stroke-linejoin="round" stroke-miterlimit="10" d="M51.318,86.603H20.455
		c-0.859,0-1.557,0.697-1.557,2.049v56.44c0,0.367,0.697,1.063,1.557,1.063h42.616c0.86,0,1.556-0.696,1.556-1.063v-44.688
		c0-0.74-0.098-0.979-0.273-1.154L51.98,86.876C51.805,86.701,51.566,86.603,51.318,86.603z"/>
	<path fill="none" stroke="#3D3437" stroke-width="2" stroke-miterlimit="10" d="M51.318,86.603H20.455
		c-0.859,0-1.557,0.697-1.557,2.049v56.44c0,0.367,0.697,1.063,1.557,1.063h42.616c0.86,0,1.556-0.696,1.556-1.063v-44.688
		c0-0.74-0.098-0.979-0.273-1.154L51.98,86.876C51.805,86.701,51.566,86.603,51.318,86.603z"/>
	<path fill="#FFFFFF" stroke="#3D3437" stroke-width="2" stroke-miterlimit="10" d="M63.071,146.155H20.455
		c-0.86,0-1.557-0.696-1.557-1.556v-16.522h45.729V144.6C64.627,145.459,63.932,146.155,63.071,146.155z"/>
	<path fill="#FFFFFF" stroke="#3D3437" stroke-width="2" stroke-miterlimit="10" d="M51.865,88.083v11.281h11.283
		c0.485,0,0.73-0.589,0.386-0.933L52.799,87.695C52.455,87.353,51.865,87.597,51.865,88.083z"/>
	
		<line fill="#FFFFFF" stroke="#0E3C54" stroke-width="2" stroke-linecap="round" stroke-linejoin="round" stroke-miterlimit="10" x1="188.538" y1="209.965" x2="188.538" y2="187.105"/>
	
		<line fill="#FFFFFF" stroke="#0E3C54" stroke-width="2" stroke-linecap="round" stroke-linejoin="round" stroke-miterlimit="10" x1="182.938" y1="221.395" x2="182.938" y2="198.535"/>
	
		<line fill="#FFFFFF" stroke="#0E3C54" stroke-width="2" stroke-linecap="round" stroke-linejoin="round" stroke-miterlimit="10" x1="152.644" y1="38.667" x2="152.644" y2="15.808"/>
	
		<line fill="#FFFFFF" stroke="#0E3C54" stroke-width="2" stroke-linecap="round" stroke-linejoin="round" stroke-miterlimit="10" x1="147.044" y1="50.097" x2="147.044" y2="27.237"/>
	
		<line fill="#FFFFFF" stroke="#0E3C54" stroke-width="2" stroke-linecap="round" stroke-linejoin="round" stroke-miterlimit="10" x1="96.01" y1="113.016" x2="96.01" y2="90.156"/>
	
		<line fill="#FFFFFF" stroke="#0E3C54" stroke-width="2" stroke-linecap="round" stroke-linejoin="round" stroke-miterlimit="10" x1="90.41" y1="124.445" x2="90.41" y2="101.586"/>
	
		<line fill="#FFFFFF" stroke="#0E3C54" stroke-width="2" stroke-linecap="round" stroke-linejoin="round" stroke-miterlimit="10" x1="60.581" y1="210.9" x2="60.581" y2="194.172"/>
	
		<line fill="#FFFFFF" stroke="#0E3C54" stroke-width="2" stroke-linecap="round" stroke-linejoin="round" stroke-miterlimit="10" x1="54.981" y1="219.266" x2="54.981" y2="202.536"/>
	
		<line fill="#FFFFFF" stroke="#0E3C54" stroke-width="2" stroke-linecap="round" stroke-linejoin="round" stroke-miterlimit="10" x1="284.295" y1="34.944" x2="284.295" y2="18.216"/>
	
		<line fill="#FFFFFF" stroke="#0E3C54" stroke-width="2" stroke-linecap="round" stroke-linejoin="round" stroke-miterlimit="10" x1="278.695" y1="43.31" x2="278.695" y2="26.58"/>
	<g>
		<polyline fill="none" stroke="#231F20" stroke-width="2" stroke-linejoin="round" stroke-miterlimit="10" points="298.642,174.34 
			302.692,169.743 306.654,174.341 		"/>
		
			<line fill="none" stroke="#231F20" stroke-width="2" stroke-linejoin="round" stroke-miterlimit="10" x1="302.554" y1="169.743" x2="302.553" y2="191.218"/>
	</g>
	<polyline fill="none" stroke="#231F20" stroke-width="2" stroke-linejoin="round" stroke-miterlimit="10" points="294.729,167.594 
		290.664,162.979 286.685,167.594 	"/>
	
		<line fill="none" stroke="#0E3C54" stroke-width="2" stroke-miterlimit="10" stroke-dasharray="2" x1="290.878" y1="163.195" x2="290.878" y2="185.361"/>
	
		<line fill="none" stroke="#0E3C54" stroke-width="2" stroke-miterlimit="10" stroke-dasharray="2" x1="290.88" y1="188.826" x2="290.88" y2="211.686"/>
	
		<line fill="none" stroke="#0E3C54" stroke-width="2" stroke-miterlimit="10" stroke-dasharray="2" x1="301.474" y1="25.544" x2="301.474" y2="48.403"/>
	
		<line fill="none" stroke="#0E3C54" stroke-width="2" stroke-miterlimit="10" stroke-dasharray="2" x1="33.163" y1="192.82" x2="33.163" y2="215.68"/>
	<g>
		
			<line fill="#FFFFFF" stroke="#0E3C54" stroke-width="2" stroke-miterlimit="10" x1="226.022" y1="66.392" x2="226.022" y2="69.712"/>
		
			<line fill="#FFFFFF" stroke="#0E3C54" stroke-width="2" stroke-miterlimit="10" x1="221.086" y1="71.038" x2="224.405" y2="71.038"/>
		
			<line fill="#FFFFFF" stroke="#0E3C54" stroke-width="2" stroke-miterlimit="10" x1="226.022" y1="75.843" x2="226.022" y2="72.526"/>
		
			<line fill="#FFFFFF" stroke="#0E3C54" stroke-width="2" stroke-miterlimit="10" x1="230.96" y1="71.196" x2="227.642" y2="71.197"/>
	</g>
	<g>
		
			<line fill="#FFFFFF" stroke="#0E3C54" stroke-width="2" stroke-miterlimit="10" x1="259.284" y1="21.043" x2="259.284" y2="24.363"/>
		
			<line fill="#FFFFFF" stroke="#0E3C54" stroke-width="2" stroke-miterlimit="10" x1="254.348" y1="25.689" x2="257.667" y2="25.689"/>
		
			<line fill="#FFFFFF" stroke="#0E3C54" stroke-width="2" stroke-miterlimit="10" x1="259.284" y1="30.494" x2="259.284" y2="27.178"/>
		
			<line fill="#FFFFFF" stroke="#0E3C54" stroke-width="2" stroke-miterlimit="10" x1="264.222" y1="25.848" x2="260.903" y2="25.849"/>
	</g>
	<g>
		
			<line fill="#FFFFFF" stroke="#0E3C54" stroke-width="2" stroke-miterlimit="10" x1="169.333" y1="29.695" x2="169.333" y2="33.016"/>
		
			<line fill="#FFFFFF" stroke="#0E3C54" stroke-width="2" stroke-miterlimit="10" x1="164.396" y1="34.342" x2="167.716" y2="34.342"/>
		
			<line fill="#FFFFFF" stroke="#0E3C54" stroke-width="2" stroke-miterlimit="10" x1="169.333" y1="39.146" x2="169.333" y2="35.83"/>
		
			<line fill="#FFFFFF" stroke="#0E3C54" stroke-width="2" stroke-miterlimit="10" x1="174.271" y1="34.5" x2="170.952" y2="34.501"/>
	</g>
	<g>
		
			<line fill="#FFFFFF" stroke="#0E3C54" stroke-width="2" stroke-miterlimit="10" x1="22.175" y1="59.542" x2="22.175" y2="62.862"/>
		
			<line fill="#FFFFFF" stroke="#0E3C54" stroke-width="2" stroke-miterlimit="10" x1="17.238" y1="64.188" x2="20.558" y2="64.188"/>
		
			<line fill="#FFFFFF" stroke="#0E3C54" stroke-width="2" stroke-miterlimit="10" x1="22.175" y1="68.993" x2="22.175" y2="65.677"/>
		
			<line fill="#FFFFFF" stroke="#0E3C54" stroke-width="2" stroke-miterlimit="10" x1="27.112" y1="64.347" x2="23.794" y2="64.348"/>
	</g>
	<g>
		
			<line fill="#FFFFFF" stroke="#0E3C54" stroke-width="2" stroke-miterlimit="10" x1="80.882" y1="208.359" x2="80.882" y2="211.68"/>
		
			<line fill="#FFFFFF" stroke="#0E3C54" stroke-width="2" stroke-miterlimit="10" x1="75.945" y1="213.006" x2="79.265" y2="213.006"/>
		
			<line fill="#FFFFFF" stroke="#0E3C54" stroke-width="2" stroke-miterlimit="10" x1="80.882" y1="217.811" x2="80.882" y2="214.494"/>
		
			<line fill="#FFFFFF" stroke="#0E3C54" stroke-width="2" stroke-miterlimit="10" x1="85.819" y1="213.164" x2="82.501" y2="213.165"/>
	</g>
	<g>
		
			<line fill="#FFFFFF" stroke="#0E3C54" stroke-width="2" stroke-miterlimit="10" x1="162.134" y1="189.03" x2="162.134" y2="192.351"/>
		
			<line fill="#FFFFFF" stroke="#0E3C54" stroke-width="2" stroke-miterlimit="10" x1="157.197" y1="193.677" x2="160.517" y2="193.677"/>
		
			<line fill="#FFFFFF" stroke="#0E3C54" stroke-width="2" stroke-miterlimit="10" x1="162.134" y1="198.481" x2="162.134" y2="195.165"/>
		
			<line fill="#FFFFFF" stroke="#0E3C54" stroke-width="2" stroke-miterlimit="10" x1="167.071" y1="193.835" x2="163.753" y2="193.836"/>
	</g>
	<g>
		
			<line fill="#FFFFFF" stroke="#0E3C54" stroke-width="2" stroke-miterlimit="10" x1="206.653" y1="207.157" x2="206.653" y2="210.478"/>
		
			<line fill="#FFFFFF" stroke="#0E3C54" stroke-width="2" stroke-miterlimit="10" x1="201.717" y1="211.804" x2="205.036" y2="211.804"/>
		
			<line fill="#FFFFFF" stroke="#0E3C54" stroke-width="2" stroke-miterlimit="10" x1="206.653" y1="216.608" x2="206.653" y2="213.292"/>
		
			<line fill="#FFFFFF" stroke="#0E3C54" stroke-width="2" stroke-miterlimit="10" x1="211.591" y1="211.962" x2="208.272" y2="211.963"/>
	</g>
	<path fill="#7ABEEB" stroke="#000000" stroke-width="2" stroke-miterlimit="10" d="M198.897,122.785
		c0.324-1.294,0.324-2.905,0.324-4.517c0-1.617,0-2.904-0.324-4.522l9.039-6.459c0.969-0.642,1.291-1.937,0.646-2.901l-8.714-14.848
		c-0.646-0.969-1.614-1.293-2.581-0.969l-10.006,4.843c-2.26-1.937-4.844-3.23-7.745-4.515l-0.971-10.977
		c0-0.975-0.967-1.939-1.937-1.939h-17.105c-0.967,0-1.938,0.965-1.938,1.939l-1.291,11.293c-2.905,0.968-5.163,2.586-7.746,4.52
		l-10.005-4.52c-0.967-0.316-2.261,0-2.581,0.968l-8.716,14.851c-0.646,0.969-0.323,2.255,0.647,2.904l9.035,6.451
		c-0.323,1.297-0.323,2.912-0.323,4.523s0,2.905,0.323,4.516l-9.035,6.459c-0.971,0.643-1.294,1.936-0.647,2.902l8.716,14.848
		c0.644,0.969,1.614,1.289,2.581,0.969l10.005-4.516c2.26,1.934,4.841,3.221,7.746,4.516l0.968,10.97
		c0,0.968,0.971,1.937,1.938,1.937h17.105c0.969,0,1.939-0.969,1.939-1.937l0.966-10.97c2.903-0.969,5.165-2.582,7.746-4.516
		l10.005,4.516c0.971,0.32,2.26,0,2.583-0.969l8.716-14.848c0.645-0.967,0.321-2.26-0.647-2.902L198.897,122.785z M167.914,139
		c-11.61,0-20.731-9.126-20.731-20.731c0-11.615,9.121-20.733,20.731-20.733s20.732,9.118,20.732,20.733
		C188.646,129.874,179.524,139,167.914,139z"/>
	<g>
		<path fill="#FFFFFF" stroke="#34525C" stroke-width="2" stroke-miterlimit="10" d="M190.022,117.343
			c0.477,12.211-9.057,22.498-21.277,22.96c-12.203,0.462-22.479-9.051-22.941-21.277c-0.462-12.216,9.065-22.485,21.285-22.954
			C179.299,95.608,189.573,105.138,190.022,117.343z"/>
		<path fill="#FFFFFF" stroke="#0E3C54" stroke-width="2" stroke-linejoin="round" stroke-miterlimit="10" d="M168.624,136.726
			c-10.215,0.384-18.854-7.609-19.243-17.829c-0.383-10.23,7.622-18.858,17.83-19.241c10.226-0.395,18.86,7.61,19.253,17.828
			C186.843,127.706,178.843,136.338,168.624,136.726z"/>
		<g>
			<path fill="#FFFFFF" stroke="#34525C" stroke-width="2" stroke-miterlimit="10" d="M168.378,125.19
				c-1.681,0-3.42-0.936-5.216-2.805l-2.802,2.805c1.061,1.115,2.214,2.008,3.449,2.68c0.906,0.488,2.001,0.807,3.29,0.947v1.338
				h2.767v-1.424c1.365-0.275,2.412-0.684,3.139-1.223c0.729-0.537,1.32-1.268,1.785-2.188c0.463-0.922,0.693-1.926,0.693-3.01
				c0-1.086-0.217-2.065-0.649-2.939c-0.433-0.873-1.054-1.619-1.856-2.244c-0.806-0.625-2.3-1.377-4.48-2.262
				c-1.227-0.491-2.044-0.948-2.447-1.384c-0.412-0.425-0.619-0.85-0.619-1.279c0-0.509,0.232-0.958,0.703-1.347
				c0.461-0.391,1.072-0.587,1.818-0.587c1.266,0,2.55,0.655,3.846,1.961l2.846-2.71c-0.904-0.891-1.689-1.523-2.354-1.899
				c-0.662-0.374-1.469-0.674-2.424-0.893v-1.624H167.1v1.441c-1.655,0.07-3.021,0.627-4.1,1.662
				c-1.082,1.031-1.622,2.273-1.622,3.721c0,0.873,0.205,1.698,0.609,2.469c0.411,0.772,1.027,1.471,1.852,2.088
				c0.826,0.617,2.406,1.457,4.746,2.514c1.149,0.516,1.926,1.029,2.33,1.529c0.392,0.498,0.59,1.076,0.59,1.74
				c0,0.787-0.31,1.471-0.924,2.05C169.967,124.9,169.231,125.19,168.378,125.19z"/>
		</g>
	</g>
	<path fill-rule="evenodd" clip-rule="evenodd" fill="#7ABEEB" stroke="#000000" stroke-width="2" stroke-miterlimit="10" d="
		M314.08,197.989l8.796,8.799c0.153,0.146,0.191,0.356,0.11,0.551c-0.081,0.191-0.26,0.308-0.463,0.308h-4.297
		c-0.277,0-0.505,0.229-0.505,0.507v9.714c0,0.28-0.229,0.504-0.5,0.504h-6.996c-0.278,0-0.507-0.224-0.507-0.504v-9.714
		c0-0.278-0.22-0.507-0.499-0.507h-4.293c-0.207,0-0.383-0.116-0.462-0.308c-0.082-0.191-0.046-0.404,0.108-0.551l8.795-8.799
		c0.104-0.095,0.212-0.146,0.358-0.146C313.868,197.843,313.985,197.895,314.08,197.989z"/>
	<path fill-rule="evenodd" clip-rule="evenodd" fill="#7ABEEB" stroke="#000000" stroke-width="2" stroke-miterlimit="10" d="
		M22.598,40.881l-8.797-8.799c-0.152-0.146-0.191-0.356-0.109-0.551c0.08-0.191,0.26-0.308,0.463-0.308h4.297
		c0.277,0,0.504-0.229,0.504-0.507v-9.714c0-0.28,0.229-0.504,0.5-0.504h6.996c0.279,0,0.508,0.224,0.508,0.504v9.714
		c0,0.278,0.219,0.507,0.498,0.507h4.293c0.207,0,0.383,0.116,0.463,0.308c0.082,0.191,0.045,0.404-0.109,0.551l-8.795,8.799
		c-0.104,0.095-0.211,0.146-0.357,0.146C22.809,41.027,22.691,40.976,22.598,40.881z"/>
	
		<rect x="275.676" y="95.924" fill="none" stroke="#0E3C54" stroke-width="2" stroke-miterlimit="10" width="10.359" height="10.361"/>
	
		<rect x="275.676" y="111.3" fill="#7ABEEB" stroke="#000000" stroke-width="2" stroke-miterlimit="10" width="10.359" height="10.36"/>
	
		<line fill="none" stroke="#0E3C54" stroke-width="2" stroke-miterlimit="10" x1="291.048" y1="104.797" x2="300.887" y2="104.797"/>
	<line fill="none" stroke="#0E3C54" stroke-width="2" stroke-miterlimit="10" x1="291.048" y1="111.3" x2="307.913" y2="111.3"/>
	
		<line fill="none" stroke="#0E3C54" stroke-width="2" stroke-miterlimit="10" x1="291.048" y1="119.623" x2="300.887" y2="119.623"/>
	<polyline fill="none" stroke="#0E3C54" stroke-width="2" stroke-miterlimit="10" points="275.943,99.805 280.217,103.495 
		285.771,95.924 	"/>
	
		<rect x="26.731" y="95.924" fill="#7ABEEB" stroke="#000000" stroke-width="2" stroke-miterlimit="10" width="10.359" height="10.361"/>
	<g>
		<rect x="26.731" y="111.3" fill="#FFFFFF" width="10.359" height="10.36"/>
		<g>
			<polyline fill="none" stroke="#0E3C54" stroke-width="2" stroke-miterlimit="10" points="37.091,120.66 37.091,121.66 
				36.091,121.66 			"/>
			
				<line fill="none" stroke="#0E3C54" stroke-width="2" stroke-miterlimit="10" stroke-dasharray="1.6719,1.6719" x1="34.419" y1="121.66" x2="28.567" y2="121.66"/>
			<polyline fill="none" stroke="#0E3C54" stroke-width="2" stroke-miterlimit="10" points="27.731,121.66 26.731,121.66 
				26.731,120.66 			"/>
			
				<line fill="none" stroke="#0E3C54" stroke-width="2" stroke-miterlimit="10" stroke-dasharray="1.6721,1.6721" x1="26.731" y1="118.988" x2="26.731" y2="113.136"/>
			<polyline fill="none" stroke="#0E3C54" stroke-width="2" stroke-miterlimit="10" points="26.731,112.3 26.731,111.3 
				27.731,111.3 			"/>
			
				<line fill="none" stroke="#0E3C54" stroke-width="2" stroke-miterlimit="10" stroke-dasharray="1.6719,1.6719" x1="29.403" y1="111.3" x2="35.255" y2="111.3"/>
			<polyline fill="none" stroke="#0E3C54" stroke-width="2" stroke-miterlimit="10" points="36.091,111.3 37.091,111.3 
				37.091,112.3 			"/>
			
				<line fill="none" stroke="#0E3C54" stroke-width="2" stroke-miterlimit="10" stroke-dasharray="1.6721,1.6721" x1="37.091" y1="113.972" x2="37.091" y2="119.824"/>
		</g>
	</g>
	<line fill="none" stroke="#0E3C54" stroke-width="2" stroke-miterlimit="10" x1="42.104" y1="104.797" x2="51.942" y2="104.797"/>
	<line fill="none" stroke="#0E3C54" stroke-width="2" stroke-miterlimit="10" x1="42.104" y1="111.3" x2="58.969" y2="111.3"/>
	<line fill="none" stroke="#0E3C54" stroke-width="2" stroke-miterlimit="10" x1="42.104" y1="119.623" x2="51.942" y2="119.623"/>
	<g id="XMLID_145_">
		<path id="XMLID_159_" fill="#FFFFFF" stroke="#0E3C54" stroke-width="2" stroke-linejoin="round" stroke-miterlimit="10" d="
			M234.143,50.127h-43.687c-1.506,0-2.726-1.221-2.726-2.727V20.053c0-1.506,1.22-2.726,2.726-2.726h43.687
			c1.505,0,2.725,1.22,2.725,2.726V47.4C236.867,48.906,235.647,50.127,234.143,50.127"/>
		
			<rect id="XMLID_158_" x="187.73" y="24.951" fill="#7ABEEB" stroke="#000000" stroke-width="2" stroke-miterlimit="10" width="49.137" height="6.778"/>
		
			<rect id="XMLID_157_" x="218.229" y="36.571" fill="#FFFFFF" stroke="#0E3C54" stroke-width="2" stroke-linejoin="round" stroke-miterlimit="10" width="13.556" height="4.236"/>
	</g>
	<path id="XMLID_144_" fill="#FFFFFF" stroke="#0E3C54" stroke-width="2" stroke-linejoin="round" stroke-miterlimit="10" d="
		M145.18,214.873h-43.688c-1.506,0-2.725-1.22-2.725-2.725V184.8c0-1.506,1.219-2.727,2.725-2.727h43.688
		c1.506,0,2.725,1.221,2.725,2.727v27.349C147.904,213.653,146.686,214.873,145.18,214.873"/>
	<path id="XMLID_141_" fill="#7ABEEB" stroke="#000000" stroke-width="2" stroke-miterlimit="10" d="M137.043,193.755
		c0,2.809-2.275,5.083-5.082,5.083c-2.811,0-5.084-2.274-5.084-5.083c0-2.807,2.273-5.082,5.084-5.082
		C134.768,188.673,137.043,190.948,137.043,193.755"/>
	<path id="XMLID_138_" fill="#7ABEEB" stroke="#000000" stroke-width="2" stroke-miterlimit="10" d="M142.975,193.755
		c0,2.809-2.276,5.083-5.084,5.083c-2.809,0-5.084-2.274-5.084-5.083c0-2.807,2.275-5.082,5.084-5.082
		C140.698,188.673,142.975,190.948,142.975,193.755"/>
	
		<rect id="XMLID_137_" x="103.004" y="203.677" fill="#FFFFFF" stroke="#0E3C54" stroke-width="2" stroke-linejoin="round" stroke-miterlimit="10" width="7.625" height="4.43"/>
	
		<rect id="XMLID_135_" x="114.017" y="203.677" fill="#FFFFFF" stroke="#0E3C54" stroke-width="2" stroke-linejoin="round" stroke-miterlimit="10" width="7.626" height="4.43"/>
	
		<rect id="XMLID_126_" x="125.03" y="203.677" fill="#FFFFFF" stroke="#0E3C54" stroke-width="2" stroke-linejoin="round" stroke-miterlimit="10" width="7.626" height="4.43"/>
	
		<rect id="XMLID_125_" x="136.044" y="203.677" fill="#FFFFFF" stroke="#0E3C54" stroke-width="2" stroke-linejoin="round" stroke-miterlimit="10" width="7.625" height="4.43"/>
	<g>
		<path fill="#231F20" d="M282.419,142.47v-1.272c-0.889-0.026-1.75-0.278-2.254-0.557l0.397-1.552
			c0.557,0.305,1.34,0.583,2.201,0.583c0.756,0,1.286-0.305,1.286-0.822c0-0.504-0.438-0.821-1.419-1.153
			c-1.419-0.478-2.387-1.141-2.387-2.427c0-1.18,0.822-2.095,2.241-2.36v-1.259h1.3v1.166c0.888,0.027,1.484,0.226,1.936,0.438
			l-0.397,1.499c-0.332-0.159-0.955-0.464-1.91-0.464c-0.861,0-1.14,0.384-1.14,0.756c0,0.424,0.464,0.716,1.591,1.127
			c1.591,0.557,2.215,1.286,2.215,2.492c0,1.181-0.822,2.175-2.36,2.44v1.365H282.419z"/>
		<path fill="#231F20" d="M291.1,142.47v-1.272c-0.889-0.026-1.75-0.278-2.254-0.557l0.397-1.552
			c0.557,0.305,1.34,0.583,2.201,0.583c0.756,0,1.286-0.305,1.286-0.822c0-0.504-0.438-0.821-1.419-1.153
			c-1.419-0.478-2.387-1.141-2.387-2.427c0-1.18,0.822-2.095,2.241-2.36v-1.259h1.3v1.166c0.888,0.027,1.484,0.226,1.936,0.438
			l-0.397,1.499c-0.332-0.159-0.955-0.464-1.91-0.464c-0.861,0-1.14,0.384-1.14,0.756c0,0.424,0.464,0.716,1.591,1.127
			c1.591,0.557,2.215,1.286,2.215,2.492c0,1.181-0.822,2.175-2.36,2.44v1.365H291.1z"/>
		<path fill="#231F20" d="M299.779,142.47v-1.272c-0.889-0.026-1.75-0.278-2.254-0.557l0.397-1.552
			c0.557,0.305,1.34,0.583,2.201,0.583c0.756,0,1.286-0.305,1.286-0.822c0-0.504-0.438-0.821-1.419-1.153
			c-1.419-0.478-2.387-1.141-2.387-2.427c0-1.18,0.822-2.095,2.241-2.36v-1.259h1.3v1.166c0.888,0.027,1.484,0.226,1.936,0.438
			l-0.397,1.499c-0.332-0.159-0.955-0.464-1.91-0.464c-0.861,0-1.14,0.384-1.14,0.756c0,0.424,0.464,0.716,1.591,1.127
			c1.591,0.557,2.215,1.286,2.215,2.492c0,1.181-0.822,2.175-2.36,2.44v1.365H299.779z"/>
	</g>
	<g>
		<path fill="#231F20" d="M32.477,142.47v-1.272c-0.889-0.026-1.75-0.278-2.254-0.557l0.397-1.552
			c0.557,0.305,1.34,0.583,2.201,0.583c0.756,0,1.286-0.305,1.286-0.822c0-0.504-0.438-0.821-1.419-1.153
			c-1.419-0.478-2.387-1.141-2.387-2.427c0-1.18,0.822-2.095,2.241-2.36v-1.259h1.3v1.166c0.888,0.027,1.484,0.226,1.936,0.438
			l-0.397,1.499c-0.332-0.159-0.955-0.464-1.91-0.464c-0.861,0-1.14,0.384-1.14,0.756c0,0.424,0.464,0.716,1.591,1.127
			c1.591,0.557,2.215,1.286,2.215,2.492c0,1.181-0.822,2.175-2.36,2.44v1.365H32.477z"/>
		<path fill="#231F20" d="M41.157,142.47v-1.272c-0.889-0.026-1.75-0.278-2.254-0.557l0.397-1.552
			c0.557,0.305,1.34,0.583,2.201,0.583c0.756,0,1.286-0.305,1.286-0.822c0-0.504-0.438-0.821-1.419-1.153
			c-1.419-0.478-2.387-1.141-2.387-2.427c0-1.18,0.822-2.095,2.241-2.36v-1.259h1.3v1.166c0.888,0.027,1.484,0.226,1.936,0.438
			l-0.397,1.499c-0.332-0.159-0.955-0.464-1.91-0.464c-0.861,0-1.14,0.384-1.14,0.756c0,0.424,0.464,0.716,1.591,1.127
			c1.591,0.557,2.215,1.286,2.215,2.492c0,1.181-0.822,2.175-2.36,2.44v1.365H41.157z"/>
		<path fill="#231F20" d="M49.837,142.47v-1.272c-0.889-0.026-1.75-0.278-2.254-0.557l0.397-1.552
			c0.557,0.305,1.34,0.583,2.201,0.583c0.756,0,1.286-0.305,1.286-0.822c0-0.504-0.438-0.821-1.419-1.153
			c-1.419-0.478-2.387-1.141-2.387-2.427c0-1.18,0.822-2.095,2.241-2.36v-1.259h1.3v1.166c0.888,0.027,1.484,0.226,1.936,0.438
			l-0.397,1.499c-0.332-0.159-0.955-0.464-1.91-0.464c-0.861,0-1.14,0.384-1.14,0.756c0,0.424,0.464,0.716,1.591,1.127
			c1.591,0.557,2.215,1.286,2.215,2.492c0,1.181-0.822,2.175-2.36,2.44v1.365H49.837z"/>
	</g>
	<path fill="none" stroke="#0E3C54" stroke-width="2" stroke-miterlimit="10" stroke-dasharray="2" d="M167.993,173.794
		c-30.484,0-55.198-24.714-55.198-55.199c0-27.525,20.149-50.347,46.503-54.516"/>
	<path fill="none" stroke="#0E3C54" stroke-width="2" stroke-miterlimit="10" stroke-dasharray="2" d="M167.993,63.397
		c30.484,0,55.198,24.713,55.198,55.197c0,27.24-19.732,49.873-45.684,54.381"/>
	<circle fill="#FFFFFF" stroke="#1D1D1B" stroke-width="2" stroke-miterlimit="10" cx="244.778" cy="184.681" r="30.897"/>
	<circle fill="#FFFFFF" stroke="#1D1D1B" stroke-width="2" stroke-miterlimit="10" cx="96.782" cy="44.712" r="30.897"/>
	<g>
		<g>
			<path fill="#FFFFFF" stroke="#1D1D1B" stroke-width="2" stroke-miterlimit="10" d="M257.62,180.48h-26.28
				c-2.938,0-5.317,2.378-5.317,5.314v10.336c0,2.932,2.38,5.314,5.317,5.314h26.28c2.932,0,5.312-2.383,5.312-5.314v-10.336
				C262.933,182.858,260.552,180.48,257.62,180.48z M233.153,196.791c0,1.433-2.775,1.433-2.775,0c0-3.172,0-6.349,0-9.521
				c0-1.425,2.775-1.425,2.775,0C233.153,190.442,233.153,193.619,233.153,196.791z M241.306,196.791c0,1.433-2.777,1.433-2.777,0
				c0-3.172,0-6.349,0-9.521c0-1.425,2.777-1.425,2.777,0C241.306,190.442,241.306,193.619,241.306,196.791z M249.46,196.791
				c0,1.433-2.779,1.433-2.779,0c0-3.172,0-6.349,0-9.521c0-1.425,2.779-1.425,2.779,0
				C249.46,190.442,249.46,193.619,249.46,196.791z M257.614,196.791c0,1.433-2.781,1.433-2.781,0c0-3.172,0-6.349,0-9.521
				c0-1.425,2.781-1.425,2.781,0C257.614,190.442,257.614,193.619,257.614,196.791z"/>
		</g>
		<path fill="#7ABEEB" stroke="#000000" stroke-width="2" stroke-miterlimit="10" d="M264.999,182.26
			c0,0.891-0.793,1.616-1.77,1.616h-37.502c-0.977,0-1.77-0.726-1.77-1.616v-2.967c0-0.894,0.793-1.617,1.77-1.617h37.502
			c0.977,0,1.77,0.724,1.77,1.617V182.26z"/>
		<g>
			
				<line fill="#FFFFFF" stroke="#1D1D1B" stroke-width="2" stroke-miterlimit="10" x1="231.34" y1="179.003" x2="241.825" y2="165.783"/>
			<g>
				<path fill="#FFFFFF" stroke="#1D1D1B" stroke-width="2" stroke-miterlimit="10" d="M232.59,180.254
					c3.501-4.404,6.993-8.812,10.484-13.219c1.401-1.77-1.085-4.298-2.504-2.502c-3.493,4.402-6.985,8.806-10.479,13.219
					C228.687,179.521,231.177,182.044,232.59,180.254L232.59,180.254z"/>
			</g>
		</g>
		<g>
			
				<line fill="#FFFFFF" stroke="#1D1D1B" stroke-width="2" stroke-miterlimit="10" x1="257.614" y1="179.003" x2="247.132" y2="165.783"/>
			<g>
				<path fill="#FFFFFF" stroke="#1D1D1B" stroke-width="2" stroke-miterlimit="10" d="M258.869,177.752
					c-3.496-4.413-6.988-8.816-10.483-13.219c-1.415-1.796-3.91,0.732-2.506,2.502c3.496,4.406,6.992,8.814,10.485,13.219
					C257.781,182.044,260.272,179.521,258.869,177.752L258.869,177.752z"/>
			</g>
		</g>
	</g>
	<path fill="#FFFFFF" stroke="#0E3C54" stroke-width="2" stroke-miterlimit="10" d="M306.863,70.919
		c0,1.602-1.297,2.899-2.898,2.899h-51.01c-1.602,0-2.899-1.298-2.899-2.899v-13.53c0-1.601,1.298-2.899,2.899-2.899h51.01
		c1.602,0,2.898,1.299,2.898,2.899V70.919z"/>
	<g>
		<path fill="#0E3C54" d="M267.225,68.52v-8.488h3.049c1.092,0,1.922,0.2,2.492,0.601c0.568,0.4,0.854,0.981,0.854,1.743
			c0,0.439-0.102,0.814-0.303,1.125c-0.203,0.312-0.5,0.541-0.893,0.688c0.443,0.116,0.783,0.334,1.021,0.652
			c0.237,0.319,0.355,0.708,0.355,1.166c0,0.832-0.263,1.457-0.79,1.874c-0.526,0.418-1.307,0.631-2.34,0.639H267.225z
			 M269.271,63.57h1.067c0.446-0.004,0.766-0.086,0.955-0.246c0.191-0.159,0.286-0.396,0.286-0.707c0-0.358-0.103-0.617-0.31-0.774
			c-0.205-0.158-0.538-0.237-0.996-0.237h-1.003V63.57z M269.271,64.911v2.034h1.341c0.369,0,0.652-0.084,0.852-0.253
			c0.197-0.17,0.297-0.407,0.297-0.715c0-0.707-0.352-1.062-1.055-1.066H269.271z"/>
		<path fill="#0E3C54" d="M281.582,60.031v5.556c0,0.63-0.134,1.175-0.402,1.636c-0.268,0.46-0.652,0.812-1.154,1.052
			c-0.501,0.241-1.094,0.361-1.777,0.361c-1.034,0-1.848-0.268-2.443-0.804c-0.594-0.537-0.897-1.271-0.908-2.204v-5.597h2.057
			v5.638c0.023,0.929,0.455,1.394,1.295,1.394c0.424,0,0.744-0.117,0.961-0.351c0.219-0.232,0.327-0.611,0.327-1.137v-5.544H281.582
			z"/>
		<path fill="#0E3C54" d="M285.967,63.716l1.562-3.685h2.21l-2.734,5.439v3.049h-2.075v-3.049l-2.729-5.439h2.198L285.967,63.716z"
			/>
	</g>
	<path fill="#FFFFFF" stroke="#0E3C54" stroke-width="2" stroke-miterlimit="10" d="M85.591,179.158c0,1.602-1.298,2.899-2.9,2.899
		H31.683c-1.602,0-2.9-1.298-2.9-2.899v-13.53c0-1.601,1.299-2.899,2.9-2.899H82.69c1.603,0,2.9,1.299,2.9,2.899V179.158z"/>
	<g>
		<path fill="#0E3C54" d="M46.329,174.503c0-0.3-0.106-0.532-0.317-0.7c-0.212-0.167-0.584-0.34-1.117-0.519
			c-0.532-0.179-0.967-0.352-1.306-0.519c-1.1-0.54-1.65-1.282-1.65-2.227c0-0.471,0.137-0.886,0.411-1.245s0.662-0.639,1.163-0.839
			s1.065-0.301,1.69-0.301c0.61,0,1.157,0.109,1.641,0.326c0.484,0.218,0.86,0.528,1.128,0.931c0.268,0.401,0.402,0.861,0.402,1.378
			h-2.041c0-0.346-0.106-0.613-0.317-0.805c-0.212-0.189-0.499-0.285-0.86-0.285c-0.366,0-0.654,0.081-0.866,0.242
			c-0.212,0.161-0.318,0.366-0.318,0.614c0,0.218,0.117,0.415,0.35,0.592c0.233,0.178,0.644,0.36,1.23,0.549
			c0.586,0.188,1.068,0.392,1.445,0.608c0.917,0.529,1.376,1.258,1.376,2.187c0,0.742-0.28,1.325-0.839,1.749
			s-1.327,0.635-2.303,0.635c-0.688,0-1.311-0.123-1.869-0.37c-0.558-0.246-0.977-0.585-1.259-1.014
			c-0.282-0.43-0.423-0.925-0.423-1.484h2.052c0,0.455,0.117,0.79,0.353,1.006c0.235,0.216,0.617,0.323,1.146,0.323
			c0.338,0,0.605-0.072,0.801-0.218C46.23,174.972,46.329,174.767,46.329,174.503z"/>
		<path fill="#0E3C54" d="M56.519,176.759h-2.035v-3.544h-3.014v3.544h-2.046v-8.488h2.046v3.37h3.014v-3.37h2.035V176.759z"/>
		<path fill="#0E3C54" d="M65.001,172.689c0,0.828-0.154,1.561-0.46,2.198c-0.307,0.638-0.743,1.128-1.309,1.472
			c-0.565,0.344-1.209,0.516-1.932,0.516c-0.723,0-1.364-0.166-1.924-0.498s-0.996-0.808-1.309-1.426
			c-0.313-0.617-0.478-1.327-0.493-2.127v-0.479c0-0.831,0.152-1.565,0.458-2.2c0.305-0.636,0.742-1.126,1.312-1.473
			c0.569-0.346,1.217-0.519,1.944-0.519c0.719,0,1.36,0.171,1.924,0.513c0.563,0.343,1.001,0.829,1.314,1.461
			c0.313,0.631,0.471,1.355,0.475,2.171V172.689z M62.92,172.334c0-0.843-0.141-1.483-0.423-1.921
			c-0.282-0.437-0.685-0.655-1.209-0.655c-1.026,0-1.568,0.77-1.626,2.309l-0.006,0.623c0,0.832,0.138,1.472,0.414,1.918
			c0.276,0.447,0.686,0.671,1.23,0.671c0.517,0,0.915-0.22,1.195-0.659c0.28-0.438,0.422-1.07,0.426-1.895V172.334z"/>
		<path fill="#0E3C54" d="M68.102,173.879v2.88h-2.046v-8.488h3.387c0.649,0,1.223,0.12,1.723,0.359
			c0.499,0.238,0.886,0.579,1.16,1.02c0.274,0.441,0.411,0.941,0.411,1.501c0,0.828-0.296,1.49-0.889,1.985
			c-0.593,0.495-1.406,0.743-2.44,0.743H68.102z M68.102,172.299h1.341c0.396,0,0.698-0.099,0.906-0.297s0.312-0.479,0.312-0.84
			c0-0.396-0.107-0.713-0.321-0.95c-0.213-0.236-0.505-0.357-0.874-0.361h-1.364V172.299z"/>
	</g>
	<g>
		
			<line fill="#FFFFFF" stroke="#0E3C54" stroke-width="2" stroke-miterlimit="10" x1="77.812" y1="132.352" x2="85.89" y2="140.432"/>
		<path fill="#FFFFFF" stroke="#0E3C54" stroke-width="2" stroke-miterlimit="10" d="M98.606,148.878
			c1.435,1.434,1.643,3.553,0.463,4.731l0,0c-1.18,1.179-3.299,0.973-4.733-0.463l-9.61-9.61c-1.436-1.436-1.643-3.553-0.463-4.733
			l0,0c1.179-1.178,3.299-0.972,4.732,0.463L98.606,148.878z"/>
	</g>
	<circle fill="#FFFFFF" stroke="#0E3C54" stroke-width="2" stroke-miterlimit="10" cx="70.645" cy="126.577" r="14.217"/>
	<circle fill="#7ABEEB" stroke="#000000" stroke-width="2" stroke-miterlimit="10" cx="70.646" cy="126.577" r="9.562"/>
	<g>
		<path fill="#FFFFFF" stroke="#1D1D1B" stroke-width="2" stroke-miterlimit="10" d="M79.909,31.343
			c0.111-0.137,0.225-0.269,0.336-0.403C80.134,31.074,80.021,31.206,79.909,31.343z"/>
		<path fill="#FFFFFF" stroke="#1D1D1B" stroke-width="2" stroke-miterlimit="10" d="M84.232,27.297
			c0.157-0.108,0.313-0.22,0.474-0.324C84.546,27.077,84.39,27.188,84.232,27.297z"/>
		<path fill="#FFFFFF" stroke="#1D1D1B" stroke-width="2" stroke-miterlimit="10" d="M101.958,64.904
			c-0.156,0.044-0.312,0.087-0.467,0.127C101.646,64.991,101.802,64.948,101.958,64.904z"/>
		<path fill="#FFFFFF" stroke="#1D1D1B" stroke-width="2" stroke-miterlimit="10" d="M102.938,64.607
			c-0.158,0.053-0.314,0.106-0.473,0.155C102.624,64.714,102.78,64.66,102.938,64.607z"/>
		<path fill="#FFFFFF" stroke="#1D1D1B" stroke-width="2" stroke-miterlimit="10" d="M78.737,32.952
			c0.094-0.146,0.191-0.287,0.287-0.428C78.929,32.665,78.831,32.806,78.737,32.952z"/>
		<path fill="#FFFFFF" stroke="#1D1D1B" stroke-width="2" stroke-miterlimit="10" d="M100.954,65.157
			c-0.154,0.032-0.308,0.067-0.459,0.097C100.646,65.225,100.8,65.189,100.954,65.157z"/>
		<path fill="#FFFFFF" stroke="#1D1D1B" stroke-width="2" stroke-miterlimit="10" d="M79.304,32.132
			c0.105-0.139,0.206-0.278,0.314-0.414C79.51,31.854,79.409,31.993,79.304,32.132z"/>
		<path fill="#FFFFFF" stroke="#1D1D1B" stroke-width="2" stroke-miterlimit="10" d="M83.438,27.884
			c0.145-0.115,0.296-0.232,0.447-0.34C83.734,27.651,83.583,27.769,83.438,27.884z"/>
		<path fill="#FFFFFF" stroke="#1D1D1B" stroke-width="2" stroke-miterlimit="10" d="M82.669,28.507
			c0.141-0.119,0.282-0.239,0.425-0.354C82.951,28.268,82.81,28.388,82.669,28.507z"/>
		<path fill="#FFFFFF" stroke="#1D1D1B" stroke-width="2" stroke-miterlimit="10" d="M104.833,63.883
			c-0.159,0.07-0.319,0.14-0.481,0.206C104.514,64.022,104.674,63.953,104.833,63.883z"/>
		<path fill="#FFFFFF" stroke="#1D1D1B" stroke-width="2" stroke-miterlimit="10" d="M103.897,64.268
			c-0.158,0.062-0.318,0.121-0.478,0.178C103.579,64.389,103.739,64.329,103.897,64.268z"/>
		<path fill="#FFFFFF" stroke="#1D1D1B" stroke-width="2" stroke-miterlimit="10" d="M81.931,29.165
			c0.133-0.121,0.266-0.246,0.404-0.365C82.196,28.919,82.063,29.044,81.931,29.165z"/>
		<path fill="#FFFFFF" stroke="#1D1D1B" stroke-width="2" stroke-miterlimit="10" d="M81.226,29.861
			c0.125-0.128,0.252-0.258,0.377-0.38C81.478,29.604,81.351,29.733,81.226,29.861z"/>
		<path fill="#FFFFFF" stroke="#1D1D1B" stroke-width="2" stroke-miterlimit="10" d="M80.55,30.586
			c0.12-0.132,0.238-0.263,0.357-0.393C80.788,30.323,80.67,30.454,80.55,30.586z"/>
		<path fill="#FFFFFF" stroke="#1D1D1B" stroke-width="2" stroke-miterlimit="10" d="M75.666,40.384
			c0.028-0.154,0.064-0.305,0.101-0.457C75.73,40.079,75.694,40.229,75.666,40.384z"/>
		<path fill="#FFFFFF" stroke="#1D1D1B" stroke-width="2" stroke-miterlimit="10" d="M75.894,39.376
			c0.039-0.152,0.084-0.301,0.125-0.455C75.978,39.075,75.933,39.224,75.894,39.376z"/>
		<path fill="#FFFFFF" stroke="#1D1D1B" stroke-width="2" stroke-miterlimit="10" d="M97.755,65.612
			c-0.116,0.008-0.232,0.021-0.348,0.023C97.522,65.633,97.639,65.62,97.755,65.612z"/>
		<path fill="#FFFFFF" stroke="#1D1D1B" stroke-width="2" stroke-miterlimit="10" d="M75.354,42.446
			c0.014-0.145,0.035-0.283,0.054-0.424C75.39,42.163,75.368,42.302,75.354,42.446z"/>
		<path fill="#FFFFFF" stroke="#1D1D1B" stroke-width="2" stroke-miterlimit="10" d="M76.169,38.392
			c0.047-0.153,0.098-0.305,0.148-0.458C76.267,38.087,76.216,38.238,76.169,38.392z"/>
		<path fill="#FFFFFF" stroke="#1D1D1B" stroke-width="2" stroke-miterlimit="10" d="M75.274,43.498
			c0.007-0.117,0.018-0.233,0.027-0.351C75.292,43.267,75.281,43.381,75.274,43.498z"/>
		<path fill="#FFFFFF" stroke="#1D1D1B" stroke-width="2" stroke-miterlimit="10" d="M75.485,41.405
			c0.021-0.15,0.049-0.296,0.076-0.445C75.534,41.109,75.506,41.255,75.485,41.405z"/>
		<path fill="#FFFFFF" stroke="#1D1D1B" stroke-width="2" stroke-miterlimit="10" d="M98.87,65.509
			c-0.142,0.019-0.278,0.037-0.421,0.052C98.592,65.546,98.729,65.527,98.87,65.509z"/>
		<path fill="#FFFFFF" stroke="#1D1D1B" stroke-width="2" stroke-miterlimit="10" d="M77.265,35.563
			c0.07-0.152,0.145-0.301,0.219-0.445C77.409,35.263,77.335,35.411,77.265,35.563z"/>
		<path fill="#FFFFFF" stroke="#1D1D1B" stroke-width="2" stroke-miterlimit="10" d="M99.927,65.356
			c-0.147,0.026-0.297,0.053-0.445,0.076C99.63,65.409,99.779,65.383,99.927,65.356z"/>
		<path fill="#FFFFFF" stroke="#1D1D1B" stroke-width="2" stroke-miterlimit="10" d="M77.714,34.665
			c0.08-0.147,0.16-0.292,0.244-0.44C77.874,34.373,77.794,34.518,77.714,34.665z"/>
		<path fill="#FFFFFF" stroke="#1D1D1B" stroke-width="2" stroke-miterlimit="10" d="M76.491,37.427
			c0.053-0.154,0.112-0.303,0.172-0.453C76.604,37.124,76.544,37.272,76.491,37.427z"/>
		<path fill="#FFFFFF" stroke="#1D1D1B" stroke-width="2" stroke-miterlimit="10" d="M76.856,36.482
			c0.062-0.151,0.131-0.301,0.195-0.451C76.987,36.182,76.918,36.331,76.856,36.482z"/>
		<path fill="#FFFFFF" stroke="#1D1D1B" stroke-width="2" stroke-miterlimit="10" d="M78.206,33.793
			c0.088-0.146,0.176-0.288,0.264-0.432C78.382,33.505,78.294,33.647,78.206,33.793z"/>
		<path fill="#FFFFFF" stroke="#1D1D1B" stroke-width="2" stroke-miterlimit="10" d="M85.901,26.238
			c0.172-0.099,0.347-0.198,0.523-0.294C86.248,26.04,86.073,26.14,85.901,26.238z"/>
		<path fill="#FFFFFF" stroke="#1D1D1B" stroke-width="2" stroke-miterlimit="10" d="M116.905,49.3
			c-0.074,0.322-0.156,0.641-0.242,0.955C116.751,49.94,116.831,49.622,116.905,49.3z"/>
		<path fill="#FFFFFF" stroke="#1D1D1B" stroke-width="2" stroke-miterlimit="10" d="M90.386,24.328
			c0.252-0.073,0.5-0.147,0.754-0.212C90.886,24.181,90.638,24.255,90.386,24.328z"/>
		<path fill="#FFFFFF" stroke="#1D1D1B" stroke-width="2" stroke-miterlimit="10" d="M107.493,62.48
			c-0.165,0.099-0.33,0.198-0.493,0.296C107.163,62.679,107.328,62.579,107.493,62.48z"/>
		<path fill="#FFFFFF" stroke="#1D1D1B" stroke-width="2" stroke-miterlimit="10" d="M89.479,24.618
			c0.225-0.08,0.449-0.155,0.676-0.226C89.928,24.463,89.703,24.538,89.479,24.618z"/>
		<path fill="#FFFFFF" stroke="#1D1D1B" stroke-width="2" stroke-miterlimit="10" d="M108.327,61.932
			c-0.166,0.115-0.333,0.225-0.502,0.337C107.994,62.156,108.161,62.047,108.327,61.932z"/>
		<path fill="#FFFFFF" stroke="#1D1D1B" stroke-width="2" stroke-miterlimit="10" d="M117.366,46.312
			c-0.027,0.34-0.061,0.674-0.105,1.005C117.306,46.985,117.339,46.651,117.366,46.312z"/>
		<path fill="#FFFFFF" stroke="#1D1D1B" stroke-width="2" stroke-miterlimit="10" d="M109.907,60.724
			c-0.172,0.148-0.352,0.289-0.532,0.433C109.556,61.013,109.735,60.872,109.907,60.724z"/>
		<path fill="#FFFFFF" stroke="#1D1D1B" stroke-width="2" stroke-miterlimit="10" d="M117.255,43.332
			c0.039-0.495,0.066-0.997,0.066-1.502c0-10.028-8.127-18.157-18.154-18.157c-0.333,0-0.664,0.012-0.991,0.028v19.631H117.255z"/>
		<path fill="#FFFFFF" stroke="#1D1D1B" stroke-width="2" stroke-miterlimit="10" d="M91.237,24.093
			c1.259-0.312,2.56-0.512,3.897-0.588C93.797,23.581,92.496,23.781,91.237,24.093z"/>
		<path fill="#FFFFFF" stroke="#1D1D1B" stroke-width="2" stroke-miterlimit="10" d="M117.105,48.323
			c-0.058,0.326-0.124,0.646-0.198,0.966C116.981,48.969,117.048,48.649,117.105,48.323z"/>
		<path fill="#FFFFFF" stroke="#1D1D1B" stroke-width="2" stroke-miterlimit="10" d="M109.134,61.346
			c-0.17,0.13-0.344,0.254-0.516,0.378C108.79,61.6,108.964,61.476,109.134,61.346z"/>
		<path fill="#FFFFFF" stroke="#1D1D1B" stroke-width="2" stroke-miterlimit="10" d="M86.772,25.769
			c0.182-0.093,0.366-0.188,0.551-0.277C87.139,25.58,86.954,25.676,86.772,25.769z"/>
		<path fill="#FFFFFF" stroke="#1D1D1B" stroke-width="2" stroke-miterlimit="10" d="M105.743,63.457
			c-0.16,0.08-0.32,0.154-0.483,0.233C105.423,63.611,105.583,63.537,105.743,63.457z"/>
		<path fill="#FFFFFF" stroke="#1D1D1B" stroke-width="2" stroke-miterlimit="10" d="M110.752,59.978
			c2.782-2.603,4.855-5.945,5.911-9.723C115.608,54.032,113.53,57.372,110.752,59.978z"/>
		<path fill="#FFFFFF" stroke="#1D1D1B" stroke-width="2" stroke-miterlimit="10" d="M110.653,60.069
			c-0.182,0.168-0.371,0.333-0.562,0.499C110.282,60.402,110.472,60.237,110.653,60.069z"/>
		<path fill="#FFFFFF" stroke="#1D1D1B" stroke-width="2" stroke-miterlimit="10" d="M88.564,24.954
			c0.206-0.081,0.413-0.163,0.625-0.238C88.978,24.791,88.771,24.873,88.564,24.954z"/>
		<path fill="#FFFFFF" stroke="#1D1D1B" stroke-width="2" stroke-miterlimit="10" d="M117.259,47.327
			c-0.043,0.329-0.094,0.658-0.152,0.98C117.165,47.984,117.216,47.656,117.259,47.327z"/>
		<path fill="#FFFFFF" stroke="#1D1D1B" stroke-width="2" stroke-miterlimit="10" d="M87.66,25.34
			c0.194-0.089,0.388-0.176,0.587-0.26C88.048,25.164,87.854,25.251,87.66,25.34z"/>
		<path fill="#FFFFFF" stroke="#1D1D1B" stroke-width="2" stroke-miterlimit="10" d="M85.053,26.749
			c0.167-0.104,0.331-0.211,0.499-0.312C85.384,26.538,85.22,26.646,85.053,26.749z"/>
		<path fill="#FFFFFF" stroke="#1D1D1B" stroke-width="2" stroke-miterlimit="10" d="M106.632,62.989
			c-0.163,0.088-0.326,0.178-0.488,0.263C106.306,63.167,106.469,63.077,106.632,62.989z"/>
		<path fill="#FFFFFF" stroke="#1D1D1B" stroke-width="2" stroke-miterlimit="10" d="M98.449,65.561
			c-0.228,0.023-0.462,0.037-0.694,0.052C97.987,65.598,98.222,65.584,98.449,65.561z"/>
		<path fill="#FFFFFF" stroke="#1D1D1B" stroke-width="2" stroke-miterlimit="10" d="M110.752,59.978
			c-0.034,0.029-0.065,0.062-0.099,0.092C110.687,60.039,110.718,60.007,110.752,59.978z"/>
		<path fill="#FFFFFF" stroke="#1D1D1B" stroke-width="2" stroke-miterlimit="10" d="M97.407,65.636
			c-0.352,0.021-0.705,0.028-1.062,0.028C96.702,65.664,97.056,65.656,97.407,65.636z"/>
		<path fill="#FFFFFF" stroke="#1D1D1B" stroke-width="2" stroke-miterlimit="10" d="M75.248,44.567
			c0-0.359,0.011-0.717,0.026-1.069C75.259,43.851,75.248,44.208,75.248,44.567z"/>
		<path fill="#FFFFFF" stroke="#1D1D1B" stroke-width="2" stroke-miterlimit="10" d="M110.091,60.568
			c-0.062,0.051-0.119,0.104-0.184,0.155C109.972,60.673,110.028,60.619,110.091,60.568z"/>
		<path fill="#FFFFFF" stroke="#1D1D1B" stroke-width="2" stroke-miterlimit="10" d="M107.825,62.269
			c-0.11,0.07-0.223,0.141-0.332,0.212C107.603,62.409,107.715,62.339,107.825,62.269z"/>
		<path fill="#FFFFFF" stroke="#1D1D1B" stroke-width="2" stroke-miterlimit="10" d="M102.466,64.763
			c-0.169,0.049-0.34,0.096-0.508,0.142C102.126,64.858,102.297,64.812,102.466,64.763z"/>
		<path fill="#FFFFFF" stroke="#1D1D1B" stroke-width="2" stroke-miterlimit="10" d="M106.144,63.252
			c-0.135,0.067-0.267,0.138-0.4,0.205C105.877,63.39,106.009,63.319,106.144,63.252z"/>
		<path fill="#FFFFFF" stroke="#1D1D1B" stroke-width="2" stroke-miterlimit="10" d="M103.42,64.445
			c-0.16,0.058-0.32,0.112-0.481,0.162C103.1,64.558,103.26,64.503,103.42,64.445z"/>
		<path fill="#FFFFFF" stroke="#1D1D1B" stroke-width="2" stroke-miterlimit="10" d="M104.352,64.089
			c-0.15,0.062-0.302,0.119-0.454,0.179C104.05,64.208,104.201,64.15,104.352,64.089z"/>
		<path fill="#FFFFFF" stroke="#1D1D1B" stroke-width="2" stroke-miterlimit="10" d="M75.302,43.147
			c0.016-0.233,0.028-0.472,0.053-0.701C75.33,42.676,75.317,42.914,75.302,43.147z"/>
		<path fill="#FFFFFF" stroke="#1D1D1B" stroke-width="2" stroke-miterlimit="10" d="M105.26,63.69
			c-0.142,0.066-0.284,0.131-0.427,0.192C104.976,63.821,105.118,63.757,105.26,63.69z"/>
		<path fill="#FFFFFF" stroke="#1D1D1B" stroke-width="2" stroke-miterlimit="10" d="M99.481,65.433
			c-0.203,0.03-0.407,0.053-0.611,0.076C99.074,65.485,99.278,65.463,99.481,65.433z"/>
		<path fill="#FFFFFF" stroke="#1D1D1B" stroke-width="2" stroke-miterlimit="10" d="M108.618,61.724
			c-0.098,0.07-0.193,0.14-0.291,0.208C108.425,61.863,108.521,61.794,108.618,61.724z"/>
		<path fill="#FFFFFF" stroke="#1D1D1B" stroke-width="2" stroke-miterlimit="10" d="M100.495,65.254
			c-0.189,0.038-0.38,0.069-0.568,0.103C100.115,65.323,100.306,65.292,100.495,65.254z"/>
		<path fill="#FFFFFF" stroke="#1D1D1B" stroke-width="2" stroke-miterlimit="10" d="M109.375,61.156
			c-0.081,0.065-0.161,0.128-0.241,0.189C109.214,61.284,109.294,61.222,109.375,61.156z"/>
		<path fill="#FFFFFF" stroke="#1D1D1B" stroke-width="2" stroke-miterlimit="10" d="M101.491,65.031
			c-0.179,0.046-0.357,0.083-0.537,0.126C101.134,65.114,101.312,65.077,101.491,65.031z"/>
		<path fill="#FFFFFF" stroke="#1D1D1B" stroke-width="2" stroke-miterlimit="10" d="M107,62.776
			c-0.122,0.071-0.245,0.143-0.368,0.213C106.755,62.919,106.878,62.848,107,62.776z"/>
		<path fill="#FFFFFF" stroke="#1D1D1B" stroke-width="2" stroke-miterlimit="10" d="M88.247,25.08
			c0.104-0.041,0.211-0.083,0.317-0.126C88.458,24.997,88.351,25.039,88.247,25.08z"/>
		<path fill="#FFFFFF" stroke="#1D1D1B" stroke-width="2" stroke-miterlimit="10" d="M86.425,25.944
			c0.115-0.061,0.229-0.116,0.348-0.176C86.654,25.828,86.54,25.884,86.425,25.944z"/>
		<path fill="#FFFFFF" stroke="#1D1D1B" stroke-width="2" stroke-miterlimit="10" d="M87.323,25.491
			c0.109-0.053,0.225-0.1,0.337-0.151C87.548,25.392,87.433,25.438,87.323,25.491z"/>
		<path fill="#FFFFFF" stroke="#1D1D1B" stroke-width="2" stroke-miterlimit="10" d="M89.189,24.716
			c0.096-0.034,0.193-0.064,0.289-0.098C89.383,24.651,89.285,24.682,89.189,24.716z"/>
		<path fill="#FFFFFF" stroke="#1D1D1B" stroke-width="2" stroke-miterlimit="10" d="M84.706,26.973
			c0.113-0.078,0.231-0.149,0.347-0.224C84.938,26.823,84.819,26.895,84.706,26.973z"/>
		<path fill="#FFFFFF" stroke="#1D1D1B" stroke-width="2" stroke-miterlimit="10" d="M83.886,27.544
			c0.114-0.084,0.23-0.164,0.347-0.247C84.116,27.38,84,27.46,83.886,27.544z"/>
		<path fill="#FFFFFF" stroke="#1D1D1B" stroke-width="2" stroke-miterlimit="10" d="M90.154,24.393
			c0.078-0.023,0.155-0.042,0.231-0.064C90.31,24.351,90.232,24.369,90.154,24.393z"/>
		<path fill="#FFFFFF" stroke="#1D1D1B" stroke-width="2" stroke-miterlimit="10" d="M85.552,26.438
			c0.117-0.066,0.232-0.132,0.35-0.199C85.784,26.306,85.669,26.371,85.552,26.438z"/>
		<path fill="#FFFFFF" stroke="#1D1D1B" stroke-width="2" stroke-miterlimit="10" d="M95.196,23.501
			c-0.022,0-0.043,0.004-0.062,0.004C95.153,23.505,95.174,23.501,95.196,23.501L95.196,23.501z"/>
		<path fill="#FFFFFF" stroke="#1D1D1B" stroke-width="2" stroke-miterlimit="10" d="M116.907,49.289
			c0,0.005-0.002,0.008-0.002,0.008S116.907,49.294,116.907,49.289z"/>
		<path fill="#FFFFFF" stroke="#1D1D1B" stroke-width="2" stroke-miterlimit="10" d="M117.106,48.308c0,0.006,0,0.013,0,0.013
			S117.106,48.313,117.106,48.308z"/>
		<path fill="#FFFFFF" stroke="#1D1D1B" stroke-width="2" stroke-miterlimit="10" d="M91.14,24.116
			c0.032-0.006,0.064-0.014,0.098-0.023C91.204,24.103,91.172,24.11,91.14,24.116z"/>
		<path fill="#FFFFFF" stroke="#1D1D1B" stroke-width="2" stroke-miterlimit="10" d="M116.663,50.255L116.663,50.255L116.663,50.255
			z"/>
		<path fill="#FFFFFF" stroke="#1D1D1B" stroke-width="2" stroke-miterlimit="10" d="M83.094,28.153
			c0.113-0.092,0.229-0.179,0.345-0.27C83.323,27.975,83.207,28.062,83.094,28.153z"/>
		<polygon fill="#FFFFFF" stroke="#1D1D1B" stroke-width="2" stroke-miterlimit="10" points="117.366,46.312 117.366,46.312 
			117.366,46.312 		"/>
		<path fill="#FFFFFF" stroke="#1D1D1B" stroke-width="2" stroke-miterlimit="10" d="M117.261,47.316c0,0,0,0.005-0.002,0.011
			C117.261,47.321,117.261,47.32,117.261,47.316z"/>
		<path fill="#FFFFFF" stroke="#1D1D1B" stroke-width="2" stroke-miterlimit="10" d="M76.663,36.974
			c0.064-0.168,0.124-0.331,0.193-0.491C76.787,36.643,76.728,36.806,76.663,36.974z"/>
		<path fill="#FFFFFF" stroke="#1D1D1B" stroke-width="2" stroke-miterlimit="10" d="M77.483,35.118
			c0.075-0.154,0.152-0.305,0.23-0.453C77.636,34.813,77.559,34.964,77.483,35.118z"/>
		<path fill="#FFFFFF" stroke="#1D1D1B" stroke-width="2" stroke-miterlimit="10" d="M75.408,42.022
			c0.021-0.206,0.046-0.415,0.077-0.617C75.454,41.607,75.429,41.816,75.408,42.022z"/>
		<path fill="#FFFFFF" stroke="#1D1D1B" stroke-width="2" stroke-miterlimit="10" d="M77.052,36.031
			c0.068-0.155,0.14-0.314,0.213-0.468C77.191,35.717,77.12,35.876,77.052,36.031z"/>
		<path fill="#FFFFFF" stroke="#1D1D1B" stroke-width="2" stroke-miterlimit="10" d="M76.317,37.934
			c0.056-0.17,0.111-0.34,0.174-0.507C76.429,37.594,76.373,37.764,76.317,37.934z"/>
		<path fill="#FFFFFF" stroke="#1D1D1B" stroke-width="2" stroke-miterlimit="10" d="M75.562,40.96
			c0.033-0.193,0.064-0.387,0.104-0.576C75.626,40.573,75.595,40.767,75.562,40.96z"/>
		<path fill="#FFFFFF" stroke="#1D1D1B" stroke-width="2" stroke-miterlimit="10" d="M76.019,38.921
			c0.048-0.178,0.097-0.354,0.15-0.529C76.115,38.567,76.066,38.743,76.019,38.921z"/>
		<path fill="#FFFFFF" stroke="#1D1D1B" stroke-width="2" stroke-miterlimit="10" d="M75.767,39.927
			c0.039-0.186,0.08-0.367,0.127-0.551C75.847,39.56,75.806,39.741,75.767,39.927z"/>
		<path fill="#FFFFFF" stroke="#1D1D1B" stroke-width="2" stroke-miterlimit="10" d="M82.335,28.8
			c0.109-0.1,0.222-0.196,0.334-0.293C82.557,28.604,82.444,28.7,82.335,28.8z"/>
		<path fill="#FFFFFF" stroke="#1D1D1B" stroke-width="2" stroke-miterlimit="10" d="M80.907,30.193
			c0.105-0.112,0.209-0.224,0.318-0.332C81.116,29.97,81.013,30.081,80.907,30.193z"/>
		<path fill="#FFFFFF" stroke="#1D1D1B" stroke-width="2" stroke-miterlimit="10" d="M81.603,29.481
			c0.107-0.107,0.219-0.209,0.328-0.316C81.821,29.272,81.71,29.374,81.603,29.481z"/>
		<path fill="#FFFFFF" stroke="#1D1D1B" stroke-width="2" stroke-miterlimit="10" d="M80.245,30.939
			c0.1-0.118,0.203-0.236,0.305-0.354C80.448,30.703,80.345,30.821,80.245,30.939z"/>
		<path fill="#FFFFFF" stroke="#1D1D1B" stroke-width="2" stroke-miterlimit="10" d="M79.618,31.718
			c0.096-0.127,0.193-0.251,0.291-0.375C79.812,31.467,79.714,31.591,79.618,31.718z"/>
		<path fill="#FFFFFF" stroke="#1D1D1B" stroke-width="2" stroke-miterlimit="10" d="M78.47,33.361
			c0.09-0.14,0.176-0.274,0.268-0.409C78.646,33.087,78.56,33.222,78.47,33.361z"/>
		<path fill="#FFFFFF" stroke="#1D1D1B" stroke-width="2" stroke-miterlimit="10" d="M79.024,32.524
			c0.094-0.134,0.186-0.263,0.279-0.393C79.21,32.262,79.118,32.391,79.024,32.524z"/>
		<path fill="#FFFFFF" stroke="#1D1D1B" stroke-width="2" stroke-miterlimit="10" d="M77.958,34.225
			c0.083-0.144,0.163-0.289,0.248-0.432C78.121,33.936,78.041,34.081,77.958,34.225z"/>
		<path fill="#FFFFFF" stroke="#1D1D1B" stroke-width="2" stroke-miterlimit="10" d="M116.905,49.3c0,0,0.002-0.006,0.002-0.011
			c0.074-0.32,0.141-0.64,0.198-0.966c0,0,0.001-0.01,0.001-0.016c0.059-0.322,0.109-0.651,0.152-0.98
			c0.002-0.006,0.002-0.007,0.002-0.007c0.045-0.335,0.078-0.669,0.105-1.009l0,0h-22.17V23.501c-0.022,0-0.043,0.004-0.062,0.004
			c-1.338,0.076-2.639,0.276-3.897,0.588c-0.033,0.01-0.065,0.018-0.098,0.023c-0.254,0.064-0.502,0.139-0.754,0.212
			c-0.076,0.022-0.153,0.041-0.231,0.064c-0.227,0.07-0.451,0.146-0.676,0.226c-0.096,0.033-0.193,0.063-0.289,0.098
			c-0.212,0.075-0.419,0.157-0.625,0.238c-0.106,0.043-0.214,0.085-0.317,0.126c-0.199,0.084-0.393,0.171-0.587,0.26
			c-0.112,0.052-0.228,0.099-0.337,0.151c-0.185,0.089-0.369,0.185-0.551,0.277c-0.118,0.06-0.232,0.115-0.348,0.176
			c-0.177,0.096-0.352,0.195-0.523,0.294c-0.117,0.067-0.232,0.133-0.35,0.199c-0.168,0.101-0.332,0.208-0.499,0.312
			c-0.115,0.074-0.233,0.146-0.347,0.224c-0.16,0.104-0.316,0.216-0.474,0.324C84.116,27.38,84,27.46,83.886,27.544
			c-0.151,0.107-0.303,0.225-0.447,0.34c-0.115,0.091-0.231,0.178-0.345,0.27c-0.143,0.114-0.284,0.234-0.425,0.354
			c-0.112,0.097-0.225,0.193-0.334,0.293c-0.139,0.119-0.271,0.244-0.404,0.365c-0.109,0.107-0.221,0.209-0.328,0.316
			c-0.125,0.122-0.252,0.252-0.377,0.38c-0.109,0.108-0.213,0.22-0.318,0.332c-0.119,0.13-0.237,0.261-0.357,0.393
			c-0.102,0.117-0.205,0.235-0.305,0.354c-0.111,0.135-0.225,0.267-0.336,0.403c-0.098,0.124-0.195,0.248-0.291,0.375
			c-0.108,0.136-0.209,0.275-0.314,0.414c-0.094,0.13-0.186,0.259-0.279,0.393c-0.096,0.141-0.193,0.281-0.287,0.428
			c-0.092,0.135-0.178,0.27-0.268,0.409c-0.088,0.144-0.176,0.286-0.264,0.432c-0.085,0.143-0.165,0.288-0.248,0.432
			c-0.084,0.148-0.164,0.293-0.244,0.44c-0.078,0.148-0.155,0.299-0.23,0.453c-0.074,0.145-0.148,0.293-0.219,0.445
			c-0.073,0.153-0.145,0.312-0.213,0.468c-0.064,0.15-0.134,0.3-0.195,0.451c-0.069,0.16-0.129,0.323-0.193,0.491
			c-0.06,0.15-0.119,0.299-0.172,0.453c-0.062,0.167-0.118,0.337-0.174,0.507c-0.051,0.153-0.102,0.305-0.148,0.458
			c-0.054,0.176-0.103,0.352-0.15,0.529c-0.041,0.154-0.086,0.303-0.125,0.455c-0.047,0.184-0.088,0.365-0.127,0.551
			c-0.036,0.152-0.072,0.303-0.101,0.457c-0.04,0.189-0.071,0.383-0.104,0.576c-0.027,0.149-0.056,0.295-0.076,0.445
			c-0.031,0.202-0.057,0.411-0.077,0.617c-0.019,0.141-0.04,0.279-0.054,0.424c-0.024,0.229-0.037,0.468-0.053,0.701
			c-0.01,0.117-0.021,0.233-0.027,0.351c-0.016,0.353-0.026,0.71-0.026,1.069c0,11.652,9.446,21.097,21.098,21.097
			c0.356,0,0.71-0.008,1.062-0.028c0.115-0.003,0.231-0.016,0.348-0.023c0.232-0.015,0.467-0.028,0.694-0.052
			c0.143-0.015,0.279-0.033,0.421-0.052c0.204-0.023,0.408-0.046,0.611-0.076c0.148-0.023,0.298-0.05,0.445-0.076
			c0.188-0.033,0.379-0.064,0.568-0.103c0.151-0.029,0.305-0.064,0.459-0.097c0.18-0.043,0.358-0.08,0.537-0.126
			c0.154-0.04,0.311-0.083,0.467-0.127c0.168-0.046,0.339-0.093,0.508-0.142c0.158-0.049,0.314-0.103,0.473-0.155
			c0.161-0.05,0.321-0.104,0.481-0.162c0.159-0.057,0.319-0.116,0.478-0.178c0.152-0.06,0.304-0.117,0.454-0.179
			c0.162-0.066,0.322-0.136,0.481-0.206c0.143-0.062,0.285-0.126,0.427-0.192c0.163-0.079,0.323-0.153,0.483-0.233
			c0.134-0.067,0.266-0.138,0.4-0.205c0.162-0.085,0.325-0.175,0.488-0.263c0.123-0.07,0.246-0.142,0.368-0.213
			c0.163-0.098,0.328-0.197,0.493-0.296c0.109-0.071,0.222-0.142,0.332-0.212c0.169-0.112,0.336-0.222,0.502-0.337
			c0.098-0.068,0.193-0.138,0.291-0.208c0.172-0.124,0.346-0.248,0.516-0.378c0.08-0.062,0.16-0.124,0.241-0.189
			c0.181-0.144,0.36-0.284,0.532-0.433c0.064-0.051,0.121-0.104,0.184-0.155c0.191-0.166,0.381-0.331,0.562-0.499
			c0.033-0.03,0.064-0.062,0.099-0.092c2.778-2.605,4.856-5.945,5.911-9.723l0,0C116.749,49.94,116.831,49.622,116.905,49.3z"/>
	</g>
	<path fill="#7ABEEB" stroke="#000000" stroke-width="2" stroke-miterlimit="10" d="M110.472,44.181
		c0,7.604-6.16,13.76-13.762,13.76c-7.601,0-13.761-6.156-13.761-13.76c0-7.6,6.16-13.764,13.761-13.764
		C104.312,30.417,110.472,36.581,110.472,44.181z"/>
</g>
<g id="text">
</g>
<g id="Layer_1">
</g>
<g id="Layer_3">
</g>
<g id="Layer_4">
</g>
<g id="Layer_5">
</g>
<g id="Layer_6">
</g>
<g id="Layer_7">
</g>
</svg>
