<?xml version="1.0" encoding="UTF-8" standalone="no"?>
<!-- Created with Inkscape (http://www.inkscape.org/) -->

<svg
   xmlns:dc="http://purl.org/dc/elements/1.1/"
   xmlns:cc="http://creativecommons.org/ns#"
   xmlns:rdf="http://www.w3.org/1999/02/22-rdf-syntax-ns#"
   xmlns:svg="http://www.w3.org/2000/svg"
   xmlns="http://www.w3.org/2000/svg"
   xmlns:sodipodi="http://sodipodi.sourceforge.net/DTD/sodipodi-0.dtd"
   xmlns:inkscape="http://www.inkscape.org/namespaces/inkscape"
   version="1.1"
   id="svg2"
   xml:space="preserve"
   width="300.57098"
   height="300"
   viewBox="0 0 300.57098 300"
   sodipodi:docname="mujerCel.svg"
   inkscape:version="0.92.3 (2405546, 2018-03-11)"><metadata
     id="metadata8"><rdf:RDF><cc:Work
         rdf:about=""><dc:format>image/svg+xml</dc:format><dc:type
           rdf:resource="http://purl.org/dc/dcmitype/StillImage" /><dc:title></dc:title></cc:Work></rdf:RDF></metadata><defs
     id="defs6"><clipPath
       clipPathUnits="userSpaceOnUse"
       id="clipPath44"><path
         d="M 13314.3,11.1016 H 12.582 V 18708.9 H 13314.3 Z"
         id="path42"
         inkscape:connector-curvature="0" /></clipPath></defs><sodipodi:namedview
     pagecolor="#ffffff"
     bordercolor="#666666"
     borderopacity="1"
     objecttolerance="10"
     gridtolerance="10"
     guidetolerance="10"
     inkscape:pageopacity="0"
     inkscape:pageshadow="2"
     inkscape:window-width="1366"
     inkscape:window-height="714"
     id="namedview4"
     showgrid="false"
     fit-margin-top="0"
     fit-margin-left="0"
     fit-margin-right="0"
     fit-margin-bottom="0"
     inkscape:zoom="1.28"
     inkscape:cx="239.18877"
     inkscape:cy="143.20483"
     inkscape:window-x="0"
     inkscape:window-y="0"
     inkscape:window-maximized="1"
     inkscape:current-layer="g10" /><g
     id="g10"
     inkscape:groupmode="layer"
     inkscape:label="ink_ext_XXXXXX"
     transform="matrix(1.3333333,0,0,-1.3333333,2005.0427,1668.001)"><g
       id="g2698"
       transform="matrix(0.16947222,0,0,0.12026313,-1503.9953,1026.0008)"><path
         inkscape:connector-curvature="0"
         id="path16"
         style="fill:#ffffff;fill-opacity:1;fill-rule:nonzero;stroke:none;stroke-width:0.114779"
         d="M 1331.4364,1.1101609 H 1.2582074 V 1870.8977 H 1331.4364 V 1.1101609" /><path
         inkscape:connector-curvature="0"
         id="path20"
         style="fill:#ffd5d5;fill-opacity:1;fill-rule:nonzero;stroke:none;stroke-width:0.114779"
         d="M 230.65529,1.1101609 H 110.96065 V 1870.8977 H 230.65529 V 1.1101609" /><path
         inkscape:connector-curvature="0"
         id="path24"
         style="fill:#ffd5d5;fill-opacity:1;fill-rule:nonzero;stroke:none;stroke-width:0.114779"
         d="M 478.42527,1.1101609 H 358.73029 V 1870.8977 H 478.42527 V 1.1101609" /><path
         inkscape:connector-curvature="0"
         id="path28"
         style="fill:#ffd5d5;fill-opacity:1;fill-rule:nonzero;stroke:none;stroke-width:0.114779"
         d="M 726.19526,1.1101609 H 606.50027 V 1870.8977 H 726.19526 V 1.1101609" /><path
         inkscape:connector-curvature="0"
         id="path32"
         style="fill:#ffd5d5;fill-opacity:1;fill-rule:nonzero;stroke:none;stroke-width:0.114779"
         d="M 973.96524,1.1101609 H 854.2714 V 1870.8977 H 973.96524 V 1.1101609" /><path
         inkscape:connector-curvature="0"
         id="path36"
         style="fill:#ffd5d5;fill-opacity:1;fill-rule:nonzero;stroke:none;stroke-width:0.114779"
         d="M 1221.7306,1.1101609 H 1102.0448 V 1870.8977 h 119.6858 V 1.1101609" /><g
         transform="scale(0.1)"
         clip-path="url(#clipPath44)"
         id="g40"><path
           inkscape:connector-curvature="0"
           id="path46"
           style="fill:#fbc992;fill-opacity:1;fill-rule:nonzero;stroke:none"
           d="m 6860.21,1617.3 c 75.07,-75 262.75,0 262.75,0 l -157.65,390.4 -330.32,105.6 -630.27,-155 555.39,407.8 287.4,23.3 c 0,0 111.35,-165.2 186.42,-225.3 75.07,-60 248.57,31.1 248.57,31.1 l -332.21,495.7 -450.42,7.5 -668.15,-375.4 412.9,480.5 735.7,195.1 c 240.24,172.7 92.83,382.9 92.83,382.9 L 5906.8,3032.2 5268.69,2330.5 C 5208.63,1872.6 4788.23,986.703 4773.21,949.203 L 3151.66,-170.699 3958.46,-1228.2 c 0,0 1510.49,1257.0008 1799.52,1459.7 289.03,202.703 534.14,996.6 534.14,996.6 l 317.52,52.4 182.11,-80.3 c 0,0 43.5,-179.8 81.04,-198.6 75.08,-37.498 200.36,0.1 200.36,0.1 l -70.31,339.9 -270.25,193.1 -690.46,76.8 638.37,226.4 c 0,0 104.64,-145.5 179.71,-220.6" /><path
           inkscape:connector-curvature="0"
           id="path48"
           style="fill:#e9ae7f;fill-opacity:1;fill-rule:nonzero;stroke:none"
           d="m 7002.92,1586.7 -95.65,4.2 c 29.31,-8.4 63.34,-8.2 95.65,-4.2" /><path
           inkscape:connector-curvature="0"
           id="path50"
           style="fill:#e9ae7f;fill-opacity:1;fill-rule:nonzero;stroke:none"
           d="m 5757.98,231.5 c 289.03,202.703 534.14,996.6 534.14,996.6 l 317.52,52.4 182.11,-80.3 c 0,0 43.5,-179.8 81.04,-198.6 75.08,-37.498 200.36,0.1 200.36,0.1 0,0 -140.61,85.7 -172.99,199 l -257.15,183.5 -428.35,-48.6 c 0,0 -383.23,-825.799 -496.58,-939.1 C 5621.36,299.699 4215.96,-728.398 3805.68,-1028 l 152.78,-200.2 c 0,0 1510.49,1257.0008 1799.52,1459.7" /><path
           inkscape:connector-curvature="0"
           id="path52"
           style="fill:#e9ae7f;fill-opacity:1;fill-rule:nonzero;stroke:none"
           d="m 7191.62,1578.5 -68.66,38.8 c 0,0 -56.58,-22.6 -120.04,-30.6 l 188.7,-8.2" /><path
           inkscape:connector-curvature="0"
           id="path54"
           style="fill:#e9ae7f;fill-opacity:1;fill-rule:nonzero;stroke:none"
           d="m 6883.96,1751.3 c -75.56,140.3 -118.75,205.1 -118.75,205.1 l -912.19,-269.9 189.11,-75 638.37,226.4 c 0,0 104.64,-145.5 179.71,-220.6 12.87,-12.8 29.09,-21.2 47.06,-26.4 l 95.65,-4.2 c 63.46,8 120.04,30.6 120.04,30.6 0,0 -163.43,-6.4 -239,134" /><path
           inkscape:connector-curvature="0"
           id="path56"
           style="fill:#e9ae7f;fill-opacity:1;fill-rule:nonzero;stroke:none"
           d="m 7067.48,2285.6 c -59.38,70.2 -145.73,210.5 -145.73,210.5 l -399.43,-28.1 -744.87,-511.6 227.27,1.9 555.39,407.8 287.4,23.3 c 0,0 111.35,-165.2 186.42,-225.3 75.07,-60 248.57,31.1 248.57,31.1 0,0 -155.65,20.3 -215.02,90.4" /><path
           inkscape:connector-curvature="0"
           id="path58"
           style="fill:#e9ae7f;fill-opacity:1;fill-rule:nonzero;stroke:none"
           d="m 6883.96,3084.5 c -161.93,-54 -716.11,-165.1 -716.11,-165.1 l -497.74,-671.6 161.61,75.2 412.9,480.5 735.7,195.1 c 240.24,172.7 92.83,382.9 92.83,382.9 0,0 -27.26,-243.1 -189.19,-297" /><path
           inkscape:connector-curvature="0"
           id="path60"
           style="fill:#fbc992;fill-opacity:1;fill-rule:nonzero;stroke:none"
           d="m 6519.33,1617.3 c -75.07,-75 -262.75,0 -262.75,0 l 157.65,390.4 330.32,105.6 630.27,-155 -555.39,407.8 -287.4,23.3 c 0,0 -111.35,-165.2 -186.43,-225.3 -75.07,-60 -248.56,31.1 -248.56,31.1 l 332.21,495.7 450.42,7.5 668.14,-375.4 -412.89,480.5 -735.7,195.1 c -240.23,172.7 -92.84,382.9 -92.84,382.9 l 1166.36,-349.3 638.11,-701.7 C 8170.91,1872.6 8591.31,986.703 8606.33,949.203 L 10227.9,-170.699 9421.07,-1228.2 c 0,0 -1510.48,1257.0008 -1799.52,1459.7 -289.02,202.703 -534.14,996.6 -534.14,996.6 l -317.51,52.4 -182.11,-80.3 c 0,0 -43.51,-179.8 -81.04,-198.6 -75.08,-37.498 -200.37,0.1 -200.37,0.1 l 70.31,339.9 270.26,193.1 690.45,76.8 -638.37,226.4 c 0,0 -104.63,-145.5 -179.7,-220.6" /><path
           inkscape:connector-curvature="0"
           id="path62"
           style="fill:#e9ae7f;fill-opacity:1;fill-rule:nonzero;stroke:none"
           d="m 6376.62,1586.7 95.65,4.2 c -29.32,-8.4 -63.34,-8.2 -95.65,-4.2" /><path
           inkscape:connector-curvature="0"
           id="path64"
           style="fill:#e9ae7f;fill-opacity:1;fill-rule:nonzero;stroke:none"
           d="m 7621.55,231.5 c -289.02,202.703 -534.14,996.6 -534.14,996.6 l -317.51,52.4 -182.11,-80.3 c 0,0 -43.51,-179.8 -81.04,-198.6 -75.08,-37.498 -200.37,0.1 -200.37,0.1 0,0 140.62,85.7 173,199 l 257.15,183.5 428.35,-48.6 c 0,0 383.22,-825.799 496.57,-939.1 96.72,-96.801 1502.13,-1124.898 1912.41,-1424.5 l -152.79,-200.2 c 0,0 -1510.48,1257.0008 -1799.52,1459.7" /><path
           inkscape:connector-curvature="0"
           id="path66"
           style="fill:#e9ae7f;fill-opacity:1;fill-rule:nonzero;stroke:none"
           d="m 6187.91,1578.5 68.67,38.8 c 0,0 56.58,-22.6 120.04,-30.6 l -188.71,-8.2" /><path
           inkscape:connector-curvature="0"
           id="path68"
           style="fill:#e9ae7f;fill-opacity:1;fill-rule:nonzero;stroke:none"
           d="m 6495.58,1751.3 c 75.56,140.3 118.75,205.1 118.75,205.1 l 912.19,-269.9 -189.12,-75 -638.37,226.4 c 0,0 -104.63,-145.5 -179.7,-220.6 -12.87,-12.8 -29.09,-21.2 -47.06,-26.4 l -95.65,-4.2 c -63.46,8 -120.04,30.6 -120.04,30.6 0,0 163.43,-6.4 239,134" /><path
           inkscape:connector-curvature="0"
           id="path70"
           style="fill:#e9ae7f;fill-opacity:1;fill-rule:nonzero;stroke:none"
           d="m 6312.06,2285.6 c 59.37,70.2 145.73,210.5 145.73,210.5 l 399.43,-28.1 744.87,-511.6 -227.27,1.9 -555.39,407.8 -287.4,23.3 c 0,0 -111.35,-165.2 -186.43,-225.3 -75.07,-60 -248.56,31.1 -248.56,31.1 0,0 155.64,20.3 215.02,90.4" /><path
           inkscape:connector-curvature="0"
           id="path72"
           style="fill:#e9ae7f;fill-opacity:1;fill-rule:nonzero;stroke:none"
           d="m 6495.58,3084.5 c 161.92,-54 716.11,-165.1 716.11,-165.1 l 497.74,-671.6 -161.62,75.2 -412.89,480.5 -735.7,195.1 c -240.23,172.7 -92.84,382.9 -92.84,382.9 0,0 27.27,-243.1 189.2,-297" /></g><path
         d="m 13.1898,1073.91 c 0,0 93.1852,-157.547 251.5372,-172.849 158.352,-15.304 482.384,185.009 623.399,104.349 141.014,-80.649 362.384,-39.548 440.714,70.41 L 785.93,1192.3 348.49,1145.56 13.1898,1073.91"
         style="fill:#5f1327;fill-opacity:1;fill-rule:nonzero;stroke:none;stroke-width:0.1"
         id="path74"
         inkscape:connector-curvature="0" /><path
         d="m 667.234,1380.08 c -75.763,0 -262.036,-25.81 -262.036,-258.51 0,-226.868 -27.062,-633.98 -27.062,-633.98 0,0 289.099,-22.92 289.099,0 0,-22.92 289.097,0 289.097,0 0,0 -27.061,407.112 -27.061,633.98 0,232.7 -186.272,258.51 -262.037,258.51"
         style="fill:#1c2030;fill-opacity:1;fill-rule:nonzero;stroke:none;stroke-width:0.1"
         id="path76"
         inkscape:connector-curvature="0" /><path
         d="m 1214.14,443.94 c -23.15,67.66 -84.43,115 -155.62,121.79 -58.46,5.58 -126.975,15.31 -157.089,28.3 -30.231,13.04 -63.746,43.61 -85.036,65.16 -14.307,14.49 -23.316,33.35 -25.714,53.57 -14.758,124.41 -11.49,234.515 -11.49,234.515 H 666.605 554.018 c 0,0 3.27,-110.105 -11.489,-234.515 -2.398,-20.22 -11.408,-39.08 -25.715,-53.57 -21.289,-21.55 -54.805,-52.12 -85.035,-65.16 -30.11,-12.99 -98.606,-22.71 -157.065,-28.3 -72.247,-6.89 -134.144,-55.54 -156.571,-124.56 -4.137,-12.73 -6.663,-25.25 -6.663,-36.84 0,-63.91 0,-404.33 0,-404.33 h 555.125 555.125 c 0,0 0,340.42 0,404.33 0,12.43 -2.91,25.93 -7.59,39.61"
         style="fill:#fbc992;fill-opacity:1;fill-rule:nonzero;stroke:none;stroke-width:0.1"
         id="path78"
         inkscape:connector-curvature="0" /><path
         d="m 1221.73,0 v 0 c -38.12,270.48 -281.825,458.34 -541.683,572.99 -37.257,16.44 -46.076,55.67 -46.076,96.4 0,91.46 52.735,150.68 147.625,150.68 -2.081,56.796 -2.405,127.205 -2.405,127.205 H 666.605 554.018 c 0,0 3.269,-110.105 -11.489,-234.515 -2.399,-20.22 -11.408,-39.08 -25.715,-53.57 -21.289,-21.55 -54.805,-52.12 -85.035,-65.16 -30.11,-12.99 -98.606,-22.71 -157.065,-28.3 -72.247,-6.89 -134.144,-55.54 -156.571,-124.56 -4.137,-12.73 -6.664,-25.25 -6.664,-36.84 0,-63.91 0,-404.33 0,-404.33 h 555.126 555.125"
         style="fill:#e9ae7f;fill-opacity:1;fill-rule:nonzero;stroke:none;stroke-width:0.1"
         id="path80"
         inkscape:connector-curvature="0" /><path
         d="m 504.576,1154.23 c -5.602,6.84 -15.607,14.05 -24.201,14.05 -15.635,0 -20.989,-30.44 -20.989,-46.02 0,-91.47 37.735,-101.36 58.838,-109.1 l -13.648,141.07"
         style="fill:#fbc992;fill-opacity:1;fill-rule:nonzero;stroke:none;stroke-width:0.1"
         id="path82"
         inkscape:connector-curvature="0" /><path
         d="m 829.894,1154.23 c 5.602,6.84 15.606,14.05 24.2,14.05 15.635,0 20.99,-30.44 20.99,-46.02 0,-91.47 -37.735,-101.36 -58.838,-109.1 l 13.648,141.07"
         style="fill:#fbc992;fill-opacity:1;fill-rule:nonzero;stroke:none;stroke-width:0.1"
         id="path84"
         inkscape:connector-curvature="0" /><path
         d="m 667.235,1396.48 c -14.74,0 -178.758,11.56 -178.758,-246.75 0,-7.13 11.658,-154.833 46.632,-218.876 C 570.084,866.81 623.43,826.4 623.43,826.4 c 0,0 15.307,-7.41 43.805,-7.41 28.497,0 43.804,7.41 43.804,7.41 0,0 53.347,40.41 88.321,104.454 34.975,64.043 46.633,211.746 46.633,218.876 0,258.31 -164.017,246.75 -178.758,246.75"
         style="fill:#fbc992;fill-opacity:1;fill-rule:nonzero;stroke:none;stroke-width:0.1"
         id="path86"
         inkscape:connector-curvature="0" /><path
         d="m 635.3,1147.96 c 0.002,0 38.788,-9.88 78.545,-9.88 47.903,0 94.136,11.8 131.669,35.05 -9.622,234.19 -163.998,223.35 -178.279,223.35 -14.416,0 -171.613,11.05 -178.519,-230.1 -2.799,1.18 -5.64,1.9 -8.341,1.9 -15.634,0 -20.989,-30.44 -20.989,-46.02 0,-76.58 26.451,-95.98 47.447,-104.81 6.986,-32.677 16.253,-64.58 28.276,-86.596 34.975,-64.044 88.322,-104.454 88.322,-104.454 0,0 11.425,-5.52 32.894,-7.03 -0.326,2.07 -0.491,4.39 -0.491,7.04 0,23.75 10.817,48.367 10.817,70.673 0,47.873 -98.976,52.949 -98.976,165.107 0,44.1 44.322,85.77 67.625,85.77"
         style="fill:#e9ae7f;fill-opacity:1;fill-rule:nonzero;stroke:none;stroke-width:0.1"
         id="path88"
         inkscape:connector-curvature="0" /><path
         d="m 838.246,1142.2 c -4.749,17.26 -19.327,29.97 -37.019,32.68 -81.667,12.51 -119.553,-37.55 -124.175,-44.17 -2.517,-0.99 -5.888,-1.72 -10.373,-1.72 -4.486,0 -7.857,0.73 -10.373,1.72 -4.623,6.62 -42.508,56.68 -124.176,44.17 -17.692,-2.71 -32.27,-15.42 -37.019,-32.68 -2.759,-10.02 -4.777,-23.31 -4.777,-40.73 0,-37.78 20.971,-58.44 34.143,-67.68 5.634,-3.96 12.508,-6.08 19.578,-6.08 h 68.753 c 12.589,0 24.081,6.71 29.401,17.29 5.758,11.44 11.583,30.04 13.725,59.79 5.533,3.39 10.745,3.4 10.745,3.4 0,0 5.212,-0.01 10.744,-3.4 2.142,-29.75 7.968,-48.35 13.724,-59.79 5.322,-10.58 16.813,-17.29 29.403,-17.29 h 68.753 c 7.069,0 13.943,2.12 19.578,6.08 13.171,9.24 34.142,29.9 34.142,67.68 0,17.42 -2.018,30.71 -4.777,40.73"
         style="fill:#e9ae7f;fill-opacity:1;fill-rule:nonzero;stroke:none;stroke-width:0.1"
         id="path90"
         inkscape:connector-curvature="0" /><path
         d="m 684.67,1144.27 c 0,0 -3.486,-6.88 -17.991,-6.88 -14.505,0 -17.992,6.88 -17.992,6.88 l -46.721,-40.63 c 0,0 31.957,-22.18 44.186,0 7.14,12.94 20.527,12.94 20.527,12.94 0,0 13.384,0 20.526,-12.94 12.229,-22.18 44.187,0 44.187,0 l -46.722,40.63"
         style="fill:#1c2030;fill-opacity:1;fill-rule:nonzero;stroke:none;stroke-width:0.1"
         id="path92"
         inkscape:connector-curvature="0" /><path
         d="m 656.287,1138.38 c 0,0 -39.178,58.29 -131.081,44.89 -18.603,-2.71 -33.932,-15.41 -38.925,-32.67 -2.902,-10.03 -5.024,-23.31 -5.024,-40.74 0,-37.78 22.051,-58.43 35.9,-67.68 5.925,-3.95 13.153,-6.07 20.586,-6.07 h 72.292 c 13.238,0 25.321,6.71 30.915,17.28 7.609,14.39 15.337,40.06 15.337,84.99"
         style="fill:#1c2030;fill-opacity:1;fill-rule:nonzero;stroke:none;stroke-width:0.1"
         id="path94"
         inkscape:connector-curvature="0" /><path
         d="m 537.744,1048.69 c -4.712,0 -9.322,1.35 -12.982,3.79 -13.81,9.22 -30.272,26.66 -30.272,57.38 0,14.39 1.531,26.97 4.549,37.4 3.573,12.35 14.631,21.6 28.171,23.57 8.443,1.23 16.77,1.86 24.748,1.86 54.912,0 83.464,-29.2 91.074,-38.37 -0.451,-41.21 -7.75,-63.64 -13.903,-75.27 -3.329,-6.29 -10.824,-10.36 -19.094,-10.36 h -72.291"
         style="fill:#6f142d;fill-opacity:1;fill-rule:nonzero;stroke:none;stroke-width:0.1"
         id="path96"
         inkscape:connector-curvature="0" /><path
         d="m 677.07,1138.38 c 0,0 39.178,58.29 131.081,44.89 18.604,-2.71 33.932,-15.41 38.925,-32.67 2.902,-10.03 5.024,-23.31 5.024,-40.74 0,-37.78 -22.051,-58.43 -35.9,-67.68 -5.925,-3.95 -13.153,-6.07 -20.586,-6.07 h -72.292 c -13.237,0 -25.321,6.71 -30.915,17.28 -7.609,14.39 -15.337,40.06 -15.337,84.99"
         style="fill:#1c2030;fill-opacity:1;fill-rule:nonzero;stroke:none;stroke-width:0.1"
         id="path98"
         inkscape:connector-curvature="0" /><path
         d="m 723.322,1048.69 c -8.27,0 -15.764,4.07 -19.093,10.36 -6.152,11.63 -13.448,34.05 -13.903,75.24 3.148,3.76 9.855,10.93 20.326,18 20.049,13.54 43.852,20.4 70.747,20.4 7.978,0 16.305,-0.63 24.747,-1.86 13.542,-1.97 24.599,-11.22 28.172,-23.57 3.018,-10.43 4.549,-23.01 4.549,-37.4 0,-30.72 -16.462,-48.16 -30.271,-57.38 -3.66,-2.44 -8.271,-3.79 -12.983,-3.79 h -72.291"
         style="fill:#6f142d;fill-opacity:1;fill-rule:nonzero;stroke:none;stroke-width:0.1"
         id="path100"
         inkscape:connector-curvature="0" /><path
         d="m 494.782,1103.05 72.396,68.85 c -1.499,0.16 -3.024,0.29 -4.571,0.4 l -68.078,-64.74 c 0.042,-1.54 0.129,-3.04 0.253,-4.51"
         style="fill:#9d163f;fill-opacity:1;fill-rule:nonzero;stroke:none;stroke-width:0.1"
         id="path102"
         inkscape:connector-curvature="0" /><path
         d="m 497.237,1089.39 84.347,80.22 c -1.352,0.29 -2.728,0.56 -4.126,0.82 l -81.187,-77.22 c 0.292,-1.3 0.611,-2.58 0.966,-3.82"
         style="fill:#9d163f;fill-opacity:1;fill-rule:nonzero;stroke:none;stroke-width:0.1"
         id="path104"
         inkscape:connector-curvature="0" /><path
         d="m 548.41,1172.64 c -2.649,-0.06 -5.331,-0.18 -8.039,-0.38 l -44.561,-40.87 c -0.33,-2.49 -0.598,-5.07 -0.804,-7.72 l 53.404,48.97"
         style="fill:#9d163f;fill-opacity:1;fill-rule:nonzero;stroke:none;stroke-width:0.1"
         id="path106"
         inkscape:connector-curvature="0" /><path
         d="m 693.031,1097.25 79.019,75.15 c -1.828,-0.12 -3.645,-0.25 -5.442,-0.43 l -74.159,-70.53 c 0.185,-1.44 0.379,-2.83 0.582,-4.19"
         style="fill:#9d163f;fill-opacity:1;fill-rule:nonzero;stroke:none;stroke-width:0.1"
         id="path108"
         inkscape:connector-curvature="0" /><path
         d="m 695.572,1083.66 93.408,88.84 c -1.617,0.08 -3.225,0.13 -4.818,0.16 L 694.72,1087.6 c 0.275,-1.36 0.56,-2.67 0.852,-3.94"
         style="fill:#9d163f;fill-opacity:1;fill-rule:nonzero;stroke:none;stroke-width:0.1"
         id="path110"
         inkscape:connector-curvature="0" /><path
         d="m 749.972,1169.23 c -3.72,-0.86 -7.37,-1.85 -10.929,-3.03 l -48.349,-44.34 c 0.111,-2.28 0.243,-4.49 0.396,-6.63 l 58.882,54"
         style="fill:#9d163f;fill-opacity:1;fill-rule:nonzero;stroke:none;stroke-width:0.1"
         id="path112"
         inkscape:connector-curvature="0" /><path
         d="m 667.235,1396.38 c 0,0 -170.334,12.04 -198.57,-232.64 0,0 5.893,-6.56 50.093,-11.8 3.603,21.91 8.585,44.17 18.468,63.49 -0.3,-22.03 0.894,-44.31 4.935,-65.8 28.988,-2.37 69.236,-4.07 125.074,-4.07 23.365,0 43.995,0.3 62.221,0.82 2.528,17.05 1.034,33.82 -0.672,50.75 11.339,-14.48 19.027,-31.62 21.684,-50.01 11.462,0.48 21.797,1.06 31.116,1.71 2.511,14.59 5.462,29.15 4.346,43.47 9.579,-12.14 15.884,-26.51 20.638,-41.36 52.539,5.36 59.238,12.8 59.238,12.8 -28.238,244.68 -198.571,232.64 -198.571,232.64"
         style="fill:#1c2030;fill-opacity:1;fill-rule:nonzero;stroke:none;stroke-width:0.1"
         id="path114"
         inkscape:connector-curvature="0" /><path
         d="m 1214.14,443.94 c -23.15,67.66 -84.43,115 -155.62,121.79 -53.57,5.12 -115.562,13.71 -148.736,25.11 C 898.968,554.46 796.274,217.12 671.253,92.0902 539.029,224.32 431.78,594.03 431.78,594.03 401.669,581.04 333.172,571.32 274.714,565.73 202.467,558.84 140.57,510.19 118.143,441.17 c -4.137,-12.73 -6.664,-25.25 -6.664,-36.84 0,-63.91 0,-404.33 0,-404.33 h 555.126 4.648 550.477 c 0,0 0,340.42 0,404.33 0,12.43 -2.91,25.93 -7.59,39.61"
         style="fill:#ae1743;fill-opacity:1;fill-rule:nonzero;stroke:none;stroke-width:0.1"
         id="path116"
         inkscape:connector-curvature="0" /><path
         d="M 870.548,472.11 C 827.604,352.14 754.362,175.2 671.253,92.0902 539.029,224.32 431.78,594.03 431.78,594.03 427.074,592 421.433,590.05 415.038,588.19 380.509,578.11 324.039,570.44 274.714,565.73 202.467,558.84 140.57,510.19 118.143,441.17 c -4.137,-12.73 -6.664,-25.25 -6.664,-36.84 0,-63.91 0,-404.33 0,-404.33 h 555.126 4.648 550.477 v 0 c -28.51,202.26 -171.97,358.32 -351.182,472.11"
         style="fill:#6f142d;fill-opacity:1;fill-rule:nonzero;stroke:none;stroke-width:0.1"
         id="path118"
         inkscape:connector-curvature="0" /><path
         d="m 716.836,930.878 c -16.168,0 -26.88,8.844 -32.13,9.695 -7.621,1.236 -11.909,-0.613 -14.677,-3.446 -1.517,-1.553 -4.071,-1.553 -5.588,0 -2.767,2.833 -7.056,4.682 -14.677,3.446 -5.25,-0.851 -15.962,-9.695 -32.13,-9.695 -2.396,0 -4.792,0.219 -7.175,0.708 -0.974,0.2 -1.752,-0.8 -1.295,-1.683 8.769,-16.933 27.617,-33.935 58.071,-33.935 30.454,0 49.302,17.002 58.071,33.935 0.458,0.883 -0.321,1.883 -1.295,1.683 -2.383,-0.489 -4.779,-0.708 -7.175,-0.708"
         style="fill:#ae1743;fill-opacity:1;fill-rule:nonzero;stroke:none;stroke-width:0.1"
         id="path120"
         inkscape:connector-curvature="0" /><path
         d="m 640.506,936.634 c -5.735,-2.695 -13.358,-5.757 -22.872,-5.757 -2.396,0 -4.792,0.22 -7.175,0.709 -0.974,0.2 -1.752,-0.8 -1.295,-1.684 8.711,-16.82 27.372,-33.699 57.471,-33.923 0.006,0.368 0.016,0.737 0.016,1.104 0,16.132 -11.243,27.404 -26.145,39.551"
         style="fill:#6f142d;fill-opacity:1;fill-rule:nonzero;stroke:none;stroke-width:0.1"
         id="path122"
         inkscape:connector-curvature="0" /><path
         d="m 667.235,914.751 c -34.584,0 -53.297,11.956 -54.078,12.466 -0.462,0.302 -0.592,0.92 -0.291,1.383 0.304,0.462 0.925,0.59 1.384,0.292 0.187,-0.121 19.045,-12.141 52.985,-12.141 33.994,0 52.799,12.019 52.985,12.14 0.462,0.302 1.083,0.172 1.384,-0.29 0.302,-0.463 0.171,-1.082 -0.291,-1.384 -0.78,-0.51 -19.494,-12.466 -54.078,-12.466"
         style="fill:#97163d;fill-opacity:1;fill-rule:nonzero;stroke:none;stroke-width:0.1"
         id="path124"
         inkscape:connector-curvature="0" /><path
         d="m 654.565,933.674 c 0,-1.634 -1.325,-2.959 -2.96,-2.959 -1.635,0 -2.959,1.325 -2.959,2.959 0,1.635 1.324,2.96 2.959,2.96 1.635,0 2.96,-1.325 2.96,-2.96"
         style="fill:#97163d;fill-opacity:1;fill-rule:nonzero;stroke:none;stroke-width:0.1"
         id="path126"
         inkscape:connector-curvature="0" /><path
         d="M 457.396,374.93 C 559.19,119.03 671.164,22.7199 671.253,22.6801 c 0.089,0.0398 112.062,96.3499 213.856,352.2499 22.827,57.39 41.044,110.12 52.309,144.25 4.042,12.25 14.849,45.73 18.914,60.24 -18.184,3.4 -34.325,7.22 -46.548,11.42 C 898.968,554.46 796.274,217.12 671.253,92.0902 539.029,224.32 431.78,594.03 431.78,594.03 c -11.014,-4.75 -27.166,-9.06 -46.079,-12.9 3.623,-13.39 15.175,-49.19 19.386,-61.95 11.265,-34.13 29.483,-86.86 52.309,-144.25"
         style="fill:#ed2123;fill-opacity:1;fill-rule:nonzero;stroke:none;stroke-width:0.1"
         id="path128"
         inkscape:connector-curvature="0" /><path
         d="m 429.125,592.94 c -0.47,-0.19 -0.943,-0.37 -1.429,-0.56 -0.265,-0.1 -0.536,-0.2 -0.805,-0.3 -0.465,-0.17 -0.935,-0.35 -1.413,-0.52 -0.279,-0.1 -0.559,-0.2 -0.841,-0.3 -0.502,-0.18 -1.012,-0.35 -1.527,-0.53 -0.267,-0.09 -0.531,-0.18 -0.802,-0.27 -0.597,-0.2 -1.204,-0.4 -1.819,-0.6 -0.196,-0.06 -0.388,-0.12 -0.588,-0.19 -1.568,-0.5 -3.188,-0.99 -4.862,-1.48 -0.089,-0.03 -0.183,-0.05 -0.271,-0.08 -0.718,-0.21 -1.452,-0.41 -2.188,-0.62 -0.54,-0.15 -1.084,-0.3 -1.634,-0.45 -0.778,-0.22 -1.56,-0.43 -2.358,-0.64 -0.503,-0.13 -1.018,-0.26 -1.528,-0.4 -0.584,-0.15 -1.167,-0.3 -1.761,-0.45 -0.563,-0.14 -1.135,-0.28 -1.706,-0.42 -0.554,-0.14 -1.11,-0.28 -1.672,-0.41 -0.603,-0.15 -1.212,-0.29 -1.822,-0.44 -0.541,-0.12 -1.086,-0.25 -1.633,-0.38 -0.638,-0.15 -1.278,-0.29 -1.925,-0.44 -0.531,-0.12 -1.068,-0.24 -1.604,-0.36 -0.675,-0.15 -1.35,-0.3 -2.034,-0.45 -0.485,-0.11 -0.976,-0.21 -1.464,-0.32 -1.885,-0.4 -3.792,-0.8 -5.738,-1.2 3.624,-13.39 15.175,-49.19 19.387,-61.95 11.264,-34.13 29.482,-86.86 52.308,-144.25 C 559.19,119.03 671.164,22.7199 671.253,22.6801 c 0.089,0.0398 112.062,96.3499 213.856,352.2499 9.749,24.51 18.654,48.16 26.538,69.88 -13.459,9.36 -27.17,18.46 -41.099,27.31 -0.014,-0.04 -0.028,-0.08 -0.043,-0.12 -0.614,-1.72 -1.236,-3.45 -1.864,-5.2 -0.139,-0.38 -0.28,-0.77 -0.418,-1.15 -0.494,-1.37 -0.992,-2.75 -1.493,-4.13 -0.178,-0.49 -0.356,-0.98 -0.535,-1.47 -0.547,-1.5 -1.096,-3.01 -1.651,-4.53 -0.098,-0.27 -0.193,-0.53 -0.29,-0.79 -0.651,-1.79 -1.31,-3.58 -1.974,-5.38 -0.149,-0.4 -0.301,-0.81 -0.45,-1.22 -0.522,-1.41 -1.049,-2.83 -1.578,-4.26 -0.191,-0.51 -0.383,-1.03 -0.574,-1.54 -0.578,-1.56 -1.16,-3.12 -1.747,-4.69 -0.103,-0.27 -0.203,-0.54 -0.306,-0.81 -0.692,-1.85 -1.392,-3.71 -2.095,-5.58 -0.154,-0.4 -0.309,-0.81 -0.464,-1.22 -0.554,-1.47 -1.113,-2.94 -1.674,-4.42 -0.204,-0.53 -0.406,-1.06 -0.61,-1.6 -0.596,-1.56 -1.196,-3.13 -1.801,-4.71 -0.124,-0.32 -0.247,-0.65 -0.372,-0.97 -0.724,-1.89 -1.455,-3.78 -2.19,-5.68 -0.168,-0.44 -0.337,-0.87 -0.505,-1.31 -0.578,-1.49 -1.159,-2.98 -1.744,-4.48 -0.219,-0.56 -0.438,-1.12 -0.657,-1.68 -0.614,-1.57 -1.231,-3.15 -1.852,-4.72 -0.141,-0.37 -0.282,-0.72 -0.425,-1.09 -0.758,-1.92 -1.522,-3.85 -2.292,-5.79 -0.175,-0.44 -0.353,-0.88 -0.529,-1.33 -0.604,-1.52 -1.212,-3.04 -1.822,-4.56 -0.233,-0.58 -0.466,-1.16 -0.7,-1.75 -0.624,-1.55 -1.251,-3.11 -1.881,-4.66 -0.17,-0.42 -0.338,-0.84 -0.508,-1.26 -0.79,-1.95 -1.585,-3.91 -2.386,-5.87 -0.178,-0.43 -0.357,-0.87 -0.536,-1.31 -0.634,-1.55 -1.27,-3.09 -1.91,-4.65 -0.243,-0.59 -0.486,-1.18 -0.731,-1.77 -0.656,-1.59 -1.315,-3.18 -1.977,-4.77 -0.17,-0.41 -0.338,-0.81 -0.508,-1.22 -0.825,-1.98 -1.656,-3.96 -2.491,-5.95 -0.184,-0.44 -0.369,-0.87 -0.554,-1.31 -0.659,-1.57 -1.32,-3.13 -1.985,-4.7 -0.258,-0.6 -0.517,-1.21 -0.776,-1.82 -0.669,-1.57 -1.34,-3.14 -2.016,-4.72 -0.189,-0.44 -0.376,-0.88 -0.566,-1.32 -0.853,-1.98 -1.711,-3.97 -2.574,-5.96 -0.192,-0.44 -0.387,-0.89 -0.58,-1.33 -0.684,-1.57 -1.37,-3.14 -2.06,-4.72 -0.267,-0.61 -0.534,-1.22 -0.802,-1.83 -0.685,-1.55 -1.372,-3.11 -2.063,-4.67 -0.206,-0.46 -0.411,-0.93 -0.617,-1.39 -0.883,-1.99 -1.771,-3.98 -2.663,-5.97 -0.192,-0.43 -0.387,-0.86 -0.579,-1.29 -0.713,-1.58 -1.429,-3.17 -2.148,-4.75 -0.276,-0.61 -0.552,-1.22 -0.83,-1.83 -0.703,-1.55 -1.408,-3.09 -2.116,-4.63 -0.22,-0.48 -0.438,-0.96 -0.659,-1.44 -0.913,-1.99 -1.83,-3.97 -2.751,-5.96 -0.188,-0.4 -0.377,-0.8 -0.565,-1.21 -0.744,-1.59 -1.49,-3.19 -2.239,-4.78 -0.289,-0.62 -0.578,-1.23 -0.868,-1.85 -0.714,-1.51 -1.431,-3.02 -2.149,-4.53 -0.237,-0.5 -0.473,-1 -0.71,-1.5 -0.94,-1.96 -1.882,-3.93 -2.829,-5.89 -0.188,-0.39 -0.376,-0.78 -0.564,-1.16 -0.772,-1.6 -1.548,-3.2 -2.326,-4.79 -0.294,-0.6 -0.589,-1.2 -0.883,-1.8 -0.732,-1.5 -1.466,-2.99 -2.202,-4.47 -0.251,-0.51 -0.501,-1.02 -0.752,-1.52 -0.964,-1.95 -1.932,-3.88 -2.902,-5.82 -0.19,-0.37 -0.379,-0.75 -0.568,-1.12 -0.796,-1.58 -1.593,-3.15 -2.393,-4.73 -0.308,-0.6 -0.615,-1.2 -0.924,-1.8 -0.744,-1.46 -1.49,-2.91 -2.239,-4.36 -0.262,-0.51 -0.524,-1.02 -0.786,-1.53 -0.991,-1.91 -1.985,-3.82 -2.983,-5.72 -0.179,-0.34 -0.359,-0.68 -0.539,-1.02 -0.829,-1.57 -1.659,-3.14 -2.493,-4.71 -0.314,-0.59 -0.628,-1.18 -0.943,-1.76 -0.757,-1.42 -1.516,-2.83 -2.277,-4.24 -0.277,-0.51 -0.554,-1.03 -0.832,-1.54 -1.014,-1.87 -2.03,-3.73 -3.051,-5.59 -0.171,-0.31 -0.341,-0.61 -0.512,-0.92 -0.86,-1.56 -1.721,-3.11 -2.585,-4.66 -0.322,-0.57 -0.644,-1.15 -0.966,-1.72 -0.774,-1.38 -1.548,-2.75 -2.325,-4.12 -0.285,-0.5 -0.57,-1 -0.855,-1.51 -1.037,-1.81 -2.077,-3.63 -3.12,-5.43 -0.163,-0.28 -0.328,-0.56 -0.491,-0.84 -0.891,-1.53 -1.783,-3.06 -2.679,-4.58 -0.324,-0.55 -0.649,-1.1 -0.974,-1.65 -0.789,-1.33 -1.58,-2.66 -2.372,-3.98 -0.294,-0.49 -0.588,-0.99 -0.884,-1.48 -1.059,-1.76 -2.119,-3.51 -3.185,-5.25 -0.152,-0.25 -0.305,-0.49 -0.457,-0.74 -0.922,-1.5 -1.847,-3 -2.773,-4.48 -0.331,-0.53 -0.662,-1.06 -0.994,-1.59 -0.8,-1.28 -1.601,-2.54 -2.404,-3.81 -0.305,-0.48 -0.611,-0.96 -0.918,-1.44 -1.08,-1.69 -2.163,-3.38 -3.249,-5.05 -0.132,-0.2 -0.263,-0.4 -0.394,-0.6 -0.961,-1.47 -1.923,-2.93 -2.888,-4.38 -0.337,-0.51 -0.675,-1.02 -1.013,-1.52 -0.809,-1.22 -1.621,-2.42 -2.433,-3.62 -0.318,-0.47 -0.634,-0.94 -0.951,-1.4 -1.1,-1.62 -2.202,-3.22 -3.307,-4.81 -0.112,-0.16 -0.226,-0.32 -0.339,-0.48 -0.996,-1.43 -1.995,-2.84 -2.996,-4.25 -0.341,-0.48 -0.683,-0.96 -1.024,-1.43 -0.823,-1.15 -1.648,-2.29 -2.475,-3.43 -0.323,-0.44 -0.646,-0.89 -0.97,-1.33 -1.119,-1.53 -2.239,-3.04 -3.363,-4.54 -0.09,-0.12 -0.18,-0.24 -0.269,-0.36 -1.037,-1.38 -2.076,-2.74 -3.118,-4.1 -0.342,-0.44 -0.684,-0.88 -1.027,-1.33 -0.836,-1.08 -1.673,-2.15 -2.512,-3.21 -0.332,-0.42 -0.664,-0.84 -0.996,-1.26 -1.136,-1.43 -2.271,-2.85 -3.412,-4.25 -0.068,-0.08 -0.137,-0.16 -0.205,-0.24 -1.073,-1.32 -2.149,-2.61 -3.226,-3.9 -0.346,-0.41 -0.693,-0.82 -1.04,-1.23 -0.846,-1 -1.694,-1.99 -2.543,-2.98 -0.339,-0.39 -0.678,-0.79 -1.018,-1.18 -1.152,-1.32 -2.305,-2.63 -3.461,-3.92 -0.033,-0.04 -0.067,-0.07 -0.099,-0.11 -1.123,-1.25 -2.248,-2.48 -3.374,-3.7 -0.348,-0.37 -0.695,-0.74 -1.043,-1.1201 -0.856,-0.9097 -1.715,-1.8199 -2.574,-2.7199 -0.347,-0.3598 -0.692,-0.7199 -1.039,-1.0797 -1.166,-1.2101 -2.334,-2.4101 -3.504,-3.5801 C 539.029,224.32 431.78,594.03 431.78,594.03 c -0.644,-0.27 -1.308,-0.55 -1.986,-0.82 -0.219,-0.09 -0.447,-0.18 -0.669,-0.27"
         style="fill:#d12025;fill-opacity:1;fill-rule:nonzero;stroke:none;stroke-width:0.1"
         id="path130"
         inkscape:connector-curvature="0" /><path
         d="m 659.135,970.507 c -0.515,-1.842 -4.877,-2.233 -9.742,-0.873 -4.866,1.36 -8.392,3.956 -7.877,5.798 0.515,1.842 4.877,2.234 9.742,0.874 4.865,-1.361 8.391,-3.956 7.877,-5.799"
         style="fill:#dca578;fill-opacity:1;fill-rule:nonzero;stroke:none;stroke-width:0.1"
         id="path132"
         inkscape:connector-curvature="0" /><path
         d="m 674.223,970.507 c 0.514,-1.842 4.877,-2.233 9.742,-0.873 4.865,1.36 8.391,3.956 7.877,5.798 -0.516,1.842 -4.877,2.234 -9.742,0.874 -4.866,-1.361 -8.392,-3.956 -7.877,-5.799"
         style="fill:#dca578;fill-opacity:1;fill-rule:nonzero;stroke:none;stroke-width:0.1"
         id="path134"
         inkscape:connector-curvature="0" /><path
         d="m 898.268,1280.31 -10.148,109.33 c -10.294,110.89 -103.34,195.7 -214.705,195.7 h -10e-4 c -111.366,0 -204.412,-84.81 -214.705,-195.7 L 448.541,1280.11 13.1898,1073.91 c 57.1891,-39.28 131.0662,-68.5 199.2982,-68.5 80.548,0 128.408,50.95 218.968,90.64 57.779,25.32 132.94,46.06 245.067,46.06 92.139,0 170.256,-14.72 237.671,-33.37 116.606,-32.26 201.166,-76.28 270.676,-76.28 51.22,0 101.51,14.79 143.97,43.36 l -430.572,204.49"
         style="fill:#ae1743;fill-opacity:1;fill-rule:nonzero;stroke:none;stroke-width:0.1"
         id="path136"
         inkscape:connector-curvature="0" /><path
         d="m 1184.87,1066.11 c -69.51,0 -154.07,44.03 -270.676,76.29 -67.414,18.65 -145.532,33.37 -237.671,33.37 -112.127,0 -187.288,-20.74 -245.067,-46.06 -90.559,-39.69 -138.42,-90.64 -218.968,-90.64 -56.58,0 -117.0329,20.1 -168.6423,49.36 l -30.6559,-14.52 c 57.1891,-39.28 131.0662,-68.5 199.2982,-68.5 80.548,0 128.409,50.95 218.968,90.64 57.779,25.32 132.94,46.06 245.067,46.06 92.139,0 170.257,-14.72 237.671,-33.37 116.606,-32.26 201.166,-76.28 270.676,-76.28 51.22,0 101.51,14.79 143.97,43.36 l -32.22,15.31 c -34.72,-16.53 -72.97,-25.02 -111.75,-25.02"
         style="fill:#ed2123;fill-opacity:1;fill-rule:nonzero;stroke:none;stroke-width:0.1"
         id="path138"
         inkscape:connector-curvature="0" /><path
         d="m 1097.43,1048.69 c -0.25,0.22 -284.049,244.77 -285.95,245.01 -1.9,0.24 -0.936,206.29 -86.04,285.29 -16.691,4.15 -34.119,6.35 -52.025,6.35 h -10e-4 c -111.367,0 -204.412,-84.81 -214.705,-195.7 L 448.541,1280.11 13.1898,1073.91 c 57.1891,-39.28 131.0662,-68.5 199.2982,-68.5 80.548,0 128.409,50.95 218.968,90.64 57.779,25.32 132.94,46.06 245.067,46.06 92.139,0 170.257,-14.72 237.671,-33.37 71.953,-19.91 131.696,-44.29 183.236,-60.05"
         style="fill:#6f142d;fill-opacity:1;fill-rule:nonzero;stroke:none;stroke-width:0.1"
         id="path140"
         inkscape:connector-curvature="0" /><path
         d="m 922.294,1106.46 c 1.412,-0.4 2.821,-0.8 4.224,-1.21 0.733,-0.21 1.465,-0.42 2.196,-0.64 1.351,-0.39 2.697,-0.78 4.04,-1.18 0.69,-0.2 1.382,-0.4 2.069,-0.61 1.62,-0.48 3.233,-0.96 4.84,-1.45 0.371,-0.11 0.746,-0.22 1.117,-0.33 1.96,-0.59 3.91,-1.19 5.852,-1.78 0.612,-0.19 1.219,-0.38 1.829,-0.57 1.347,-0.42 2.691,-0.83 4.029,-1.25 0.743,-0.23 1.484,-0.46 2.224,-0.7 1.219,-0.38 2.434,-0.76 3.645,-1.15 0.748,-0.23 1.496,-0.47 2.241,-0.71 1.268,-0.4 2.531,-0.81 3.791,-1.21 0.65,-0.21 1.303,-0.42 1.951,-0.63 1.803,-0.58 3.598,-1.16 5.385,-1.75 0.724,-0.23 1.443,-0.47 2.165,-0.71 1.13,-0.37 2.259,-0.74 3.383,-1.11 0.874,-0.29 1.745,-0.58 2.615,-0.87 0.948,-0.31 1.894,-0.63 2.839,-0.94 0.927,-0.31 1.855,-0.62 2.779,-0.93 0.862,-0.29 1.721,-0.58 2.579,-0.87 0.965,-0.32 1.93,-0.65 2.889,-0.97 0.579,-0.2 1.153,-0.4 1.73,-0.59 2.436,-0.83 4.855,-1.65 7.258,-2.48 0.276,-0.09 0.546,-0.18 0.816,-0.28 1.36,-0.46 2.71,-0.93 4.05,-1.39 0.29,-0.1 0.58,-0.2 0.87,-0.3 33.42,-11.53 63.78,-22.61 91.73,-31.16 -0.07,0.07 -26.9,23.19 -64.08,55.19 -35.771,12.52 -75.183,26.35 -119.156,38.52 -67.414,18.65 -145.532,33.37 -237.671,33.37 -112.127,0 -187.288,-20.74 -245.067,-46.06 -90.559,-39.69 -138.42,-90.64 -218.968,-90.64 -56.58,0 -117.0329,20.1 -168.6423,49.36 l -30.6559,-14.52 c 57.1891,-39.28 131.0662,-68.5 199.2982,-68.5 80.548,0 128.409,50.95 218.968,90.64 57.779,25.32 132.94,46.06 245.067,46.06 92.139,0 170.257,-14.72 237.671,-33.37 2.069,-0.57 4.125,-1.15 6.174,-1.73 0.645,-0.18 1.284,-0.37 1.926,-0.55"
         style="fill:#d12025;fill-opacity:1;fill-rule:nonzero;stroke:none;stroke-width:0.1"
         id="path142"
         inkscape:connector-curvature="0" /><path
         d="m 903.177,1277.98 -4.909,2.33 -7.344,79.13 c -143.687,27.22 -291.163,27.53 -434.933,0.91 l -7.45,-80.24 -0.291,-0.14 c 150.101,30.92 305.032,30.26 454.927,-1.99"
         style="fill:#ed2123;fill-opacity:1;fill-rule:nonzero;stroke:none;stroke-width:0.1"
         id="path144"
         inkscape:connector-curvature="0" /><path
         d="m 811.48,1293.7 c -0.765,0.09 -1.068,33.62 -6.723,78.78 -116.065,13.22 -233.604,9.19 -348.766,-12.13 l -7.45,-80.24 -0.291,-0.14 c 119.693,24.66 242.456,29.21 363.288,13.7 -0.02,0.01 -0.049,0.03 -0.058,0.03"
         style="fill:#d12025;fill-opacity:1;fill-rule:nonzero;stroke:none;stroke-width:0.1"
         id="path146"
         inkscape:connector-curvature="0" /><path
         d="M 303.58,0 V 197.25 L 331.979,0 Z"
         style="fill:#5f1327;fill-opacity:1;fill-rule:nonzero;stroke:none;stroke-width:0.1"
         id="path188"
         inkscape:connector-curvature="0" /><path
         d="M 1030.89,0 V 197.25 L 1002.49,0 Z"
         style="fill:#5f1327;fill-opacity:1;fill-rule:nonzero;stroke:none;stroke-width:0.1"
         id="path190"
         inkscape:connector-curvature="0" /><path
         d="m 694.46,158.47 c -0.225,0.01 -0.446,0.03 -0.669,0.05 -0.215,0.03 -0.43,0.05 -0.642,0.08 -0.223,0.03 -0.443,0.07 -0.663,0.1 -0.165,0.03 -0.334,0.05 -0.497,0.08 0.885,-0.17 1.8,-0.28 2.733,-0.34 -0.088,0.01 -0.174,0.02 -0.262,0.03"
         style="fill:#fbc992;fill-opacity:1;fill-rule:nonzero;stroke:none;stroke-width:0.1"
         id="path192"
         inkscape:connector-curvature="0" /><path
         d="m 629.27821,452.50314 h -29.742 c -7.172,0 -12.987,5.814 -12.987,12.987 0,7.172 5.815,12.986 12.987,12.986 h 29.742 c 7.173,0 12.987,-5.814 12.987,-12.986 0,-7.173 -5.814,-12.987 -12.987,-12.987 m 126.682,41.237 h -171.378 c -13.062,0 -23.687,-10.626 -23.687,-23.687 v -345.193 c 0,-13.059 10.625,-23.685 23.687,-23.685 h 171.378 c 13.061,0 23.687,10.626 23.687,23.685 v 345.193 c 0,13.061 -10.626,23.687 -23.687,23.687"
         style="fill:#afdedc;fill-opacity:1;fill-rule:nonzero;stroke:none;stroke-width:0.10000001"
         id="path1783"
         inkscape:connector-curvature="0" /><path
         d="m 686.021,161.73 c 0.292,-0.29 0.608,-0.55 0.932,-0.8 -0.325,0.25 -0.64,0.51 -0.932,0.8"
         style="fill:#fbc992;fill-opacity:1;fill-rule:nonzero;stroke:none;stroke-width:0.1"
         id="path194"
         inkscape:connector-curvature="0" /><path
         d="m 691.883,158.81 c -0.392,0.08 -0.779,0.17 -1.156,0.28 0,0 0,0 -10e-4,0 -0.002,0 -0.005,0 -0.008,0 0.408,-0.11 0.823,-0.22 1.248,-0.3 -0.028,0 -0.055,0.01 -0.083,0.02"
         style="fill:#fbc992;fill-opacity:1;fill-rule:nonzero;stroke:none;stroke-width:0.1"
         id="path196"
         inkscape:connector-curvature="0" /><path
         d="m 695.811,158.41 c -0.238,0 -0.475,0.01 -0.711,0.02 -0.096,0 -0.193,0 -0.288,0.01 0.44,-0.03 0.884,-0.04 1.331,-0.04 -0.112,0 -0.221,0.01 -0.332,0.01"
         style="fill:#fbc992;fill-opacity:1;fill-rule:nonzero;stroke:none;stroke-width:0.1"
         id="path198"
         inkscape:connector-curvature="0" /><path
         d="m 687.846,160.34 c -0.22,0.13 -0.44,0.26 -0.649,0.41 0.288,-0.2 0.586,-0.39 0.896,-0.57 -0.085,0.05 -0.163,0.11 -0.247,0.16"
         style="fill:#fbc992;fill-opacity:1;fill-rule:nonzero;stroke:none;stroke-width:0.1"
         id="path200"
         inkscape:connector-curvature="0" /><path
         d="m 699.075,158.54 c 0.403,0.04 0.803,0.08 1.2,0.13 -0.397,-0.05 -0.797,-0.09 -1.2,-0.13"
         style="fill:#fbc992;fill-opacity:1;fill-rule:nonzero;stroke:none;stroke-width:0.1"
         id="path202"
         inkscape:connector-curvature="0" /><path
         d="m 706.183,105.65 c -2.992,7.83 -5.28,14.43 -6.703,18.69 l -20.092,3.32 10.628,-7.59 c 3.238,-11.33 17.299,-19.9 17.299,-19.9 l -4.898,23.68 v 0 l 3.766,-18.2"
         style="fill:#fbc992;fill-opacity:1;fill-rule:nonzero;stroke:none;stroke-width:0.1"
         id="path204"
         inkscape:connector-curvature="0" /><path
         d="m 688.229,160.1 c 0.748,-0.41 1.551,-0.73 2.396,-0.98 -0.844,0.25 -1.648,0.57 -2.396,0.98"
         style="fill:#fbc992;fill-opacity:1;fill-rule:nonzero;stroke:none;stroke-width:0.1"
         id="path206"
         inkscape:connector-curvature="0" /><path
         d="m 699.072,158.54 c -0.002,0 -0.005,0 -0.007,0 -0.438,-0.04 -0.877,-0.07 -1.317,-0.09 -0.173,-0.01 -0.344,-0.02 -0.517,-0.02 -0.27,-0.01 -0.541,-0.02 -0.811,-0.02 -0.069,0 -0.138,-0.01 -0.207,-0.01 0.951,0 1.909,0.05 2.859,0.14"
         style="fill:#fbc992;fill-opacity:1;fill-rule:nonzero;stroke:none;stroke-width:0.1"
         id="path208"
         inkscape:connector-curvature="0" /><path
         d="m 686.984,177.73 c 0.458,-0.84 0.928,-1.7 1.412,-2.6 2.653,-4.93 6.388,-8.04 10.119,-10.02 l 11.882,1.32 1.899,-4.7 v 0 0 l -3.309,8.2 -22.003,7.8"
         style="fill:#fbc992;fill-opacity:1;fill-rule:nonzero;stroke:none;stroke-width:0.1"
         id="path210"
         inkscape:connector-curvature="0" /><path
         d="m 628.992,306.53 4.695,-1.24 c 1.709,-1.83 3.764,-3.65 6.235,-5.43 l 6.481,-1.71 c -15.83,-3.44 -29.618,-6.21 -29.618,-6.21 l -49.774,-67.16 16.162,7.52 41.289,48.05 44.515,11.81 44.515,-11.81 41.289,-48.05 16.162,-7.52 -49.774,67.16 c 0,0 -55.418,11.11 -71.611,16.51 -16.193,5.39 -18.919,29.7 -18.919,29.7 0,0 -7.785,-11.11 -2.81,-23.81 l -5.696,-1.7 v 0 c 1.824,-2.06 4.079,-4.11 6.859,-6.11"
         style="fill:#e9ae7f;fill-opacity:1;fill-rule:nonzero;stroke:none;stroke-width:0.1"
         id="path212"
         inkscape:connector-curvature="0" /><path
         d="m 674.641,328.36 -5.663,-1.69 41.148,-12.33 c 0.12,0.31 0.233,0.62 0.34,0.92 0.006,0.02 0.012,0.04 0.018,0.06 4.223,12.28 -3.169,22.83 -3.169,22.83 0,0 -1.059,-9.43 -5.769,-17.84 l -26.905,8.05"
         style="fill:#e9ae7f;fill-opacity:1;fill-rule:nonzero;stroke:none;stroke-width:0.1"
         id="path214"
         inkscape:connector-curvature="0" /><path
         d="m 637.669,134.16 27.026,19.31 4.282,0.48 -20.663,2.3 -21.575,-15.42 -1.412,-6.83 -3.861,-0.44 c 0,0 -38.323,-82.5799 -49.658,-93.91 -3.459,-3.4602 -23.667,-18.8398 -50.073,-38.53984 h 25.409 C 559.962,11.3 570.188,19.2199 575.798,23.15 c 20.468,14.3602 38.73,58.35 47.648,82.81 v 0 c 0.006,0.02 0.011,0.03 0.017,0.05 0.221,0.6 0.435,1.2 0.645,1.78 0.006,0.01 0.012,0.03 0.018,0.05 3.251,9.03 5.086,14.97 5.086,14.97 l 6.325,1.04 2.132,10.31"
         style="fill:#e9ae7f;fill-opacity:1;fill-rule:nonzero;stroke:none;stroke-width:0.1"
         id="path216"
         inkscape:connector-curvature="0" /><path
         d="m 697.922,264.77 -7.828,4.4 -0.965,0.01 9.358,-5.25 -0.565,0.84 v 0"
         style="fill:#e9ae7f;fill-opacity:1;fill-rule:nonzero;stroke:none;stroke-width:0.1"
         id="path218"
         inkscape:connector-curvature="0" /><path
         d="m 649.987,269.84 -1.161,-0.66 20.144,0.34 z"
         style="fill:#e9ae7f;fill-opacity:1;fill-rule:nonzero;stroke:none;stroke-width:0.1"
         id="path220"
         inkscape:connector-curvature="0" /><path
         d="m 639.467,263.93 -24.698,-13.88 -15.995,-23.86 c 0,0 5.945,-3.12 12.38,-4.51 l 28.313,42.25"
         style="fill:#e9ae7f;fill-opacity:1;fill-rule:nonzero;stroke:none;stroke-width:0.1"
         id="path222"
         inkscape:connector-curvature="0" /><path
         d="m 642.253,206.11 -13.654,-3.36 -9.764,-24.18 -33.533,-9.92 18.912,-7.5 24.753,8.78 12.456,30.84 27.555,8.81 -5.478,1.75 -21.247,-5.22"
         style="fill:#e9ae7f;fill-opacity:1;fill-rule:nonzero;stroke:none;stroke-width:0.1"
         id="path224"
         inkscape:connector-curvature="0" /><path
         d="m 649.859,160.18 c 0.31,0.17 0.61,0.37 0.899,0.57 -0.29,-0.2 -0.588,-0.4 -0.899,-0.57"
         style="fill:#fbc992;fill-opacity:1;fill-rule:nonzero;stroke:none;stroke-width:0.1"
         id="path226"
         inkscape:connector-curvature="0" /><path
         d="m 649.728,160.1 c -0.779,-0.42 -1.618,-0.76 -2.501,-1.01 -2.564,-0.74 -5.49,-0.81 -8.346,-0.55 3.84,-0.36 7.808,-0.1 10.847,1.56"
         style="fill:#fbc992;fill-opacity:1;fill-rule:nonzero;stroke:none;stroke-width:0.1"
         id="path228"
         inkscape:connector-curvature="0" /><path
         d="m 674.455,211.33 -5.477,-1.75 -27.555,-8.81 -12.456,-30.84 -3.309,-8.2 c 0,0 16.343,-0.64 23.9,13.4 7.557,14.03 11.875,20.51 11.875,20.51 l 91.219,-26.99 -18.912,-7.5 -17.053,-1.9 -8.35,-0.93 -39.36,-4.37 -39.36,4.37 -10.825,-0.47 2.475,1.4 -17.053,1.9 -18.912,7.5 33.533,9.92 9.764,24.18 13.654,3.36 -41.781,-10.28 -22.726,-0.19 33.604,23.08 c -1.037,0.48 -1.646,0.8 -1.646,0.8 0,0 15.565,2.03 21.502,9.04 5.938,7.02 14.574,21.05 14.574,21.05 l 39.942,-2.81 74.487,-51.16 -22.727,0.19 z m -59.686,38.72 24.698,13.88 -28.313,-42.25 c -6.435,1.39 -12.38,4.51 -12.38,4.51 z m 35.218,19.79 18.983,-0.32 -20.144,-0.34 z M 860.633,94.9203 c -1.501,3.75 -43.542,92.3397 -49.548,138.1297 l -63.811,70.17 -37.148,11.12 -41.148,12.33 5.663,1.69 26.905,-8.05 c 4.71,8.41 5.769,17.84 5.769,17.84 l -38.338,-11.48 -38.338,11.48 c 0,0 2.726,-24.31 18.919,-29.7 16.193,-5.4 71.611,-16.51 71.611,-16.51 l 49.774,-67.16 -16.162,7.52 -56.294,31.63 -9.358,5.25 0.965,-0.01 7.828,-4.4 -2.893,4.31 -5.901,0.1 -1.161,0.66 -18.99,-0.32 -18.99,0.32 -1.161,-0.66 -5.901,-0.1 -3.458,-5.15 -56.294,-31.63 -16.162,-7.52 49.774,67.16 c 0,0 13.788,2.77 29.618,6.21 l -6.481,1.71 c -2.471,1.78 -4.526,3.6 -6.235,5.43 l -4.695,1.24 c -2.78,2 -5.035,4.05 -6.859,6.11 L 590.68,303.22 526.869,233.05 C 520.863,187.26 478.823,98.6703 477.322,94.9203 L 341.495,1.11016 h 180.24 c 26.406,19.70004 46.614,35.07964 50.073,38.53984 11.335,11.3301 49.658,93.91 49.658,93.91 l 3.861,0.44 1.412,6.83 21.575,15.42 20.663,-2.3 -4.282,-0.48 -27.026,-19.31 -2.132,-10.31 -4.898,-23.68 c 0,0 14.061,8.57 17.299,19.9 l 25.715,18.35 42.835,-4.86 c 0,0 38.323,-82.5799 49.658,-93.91 3.459,-3.4602 23.667,-18.8398 50.073,-38.53984 h 180.24 L 860.633,94.9203"
         style="fill:#fbc992;fill-opacity:1;fill-rule:nonzero;stroke:none;stroke-width:0.1"
         id="path230"
         inkscape:connector-curvature="0" /><path
         d="m 637.678,158.67 c 0.399,-0.05 0.799,-0.09 1.201,-0.13 -0.402,0.04 -0.803,0.08 -1.201,0.13"
         style="fill:#fbc992;fill-opacity:1;fill-rule:nonzero;stroke:none;stroke-width:0.1"
         id="path232"
         inkscape:connector-curvature="0" /><path
         d="m 651,160.93 c 0.326,0.25 0.641,0.51 0.933,0.8 -0.292,-0.29 -0.607,-0.55 -0.933,-0.8"
         style="fill:#fbc992;fill-opacity:1;fill-rule:nonzero;stroke:none;stroke-width:0.1"
         id="path234"
         inkscape:connector-curvature="0" /><path
         d="m 716.488,133.56 -42.835,4.86 -25.715,-18.35 c -3.238,-11.33 -17.299,-19.9 -17.299,-19.9 0,0 12.528,-3.7598 20.036,-0.01 3.754,1.88 8.104,19.86 8.104,19.86 l 10.198,4.5 10.198,-4.5 c 0,0 4.35,-17.98 8.104,-19.86 7.508,-3.7498 20.036,0.01 20.036,0.01 0,0 -14.061,8.57 -17.299,19.9 l -10.628,7.59 20.092,-3.32 c 1.423,-4.26 3.711,-10.86 6.703,-18.69 l -3.766,18.2 v 0 l 6.324,-1.04 c 0,0 24.512,-79.3897 53.414,-99.66 5.612,-3.9301 15.837,-11.85 28.656,-22.03984 h 25.408 C 789.813,20.8102 769.605,36.1898 766.146,39.65 c -11.335,11.3301 -49.658,93.91 -49.658,93.91"
         style="fill:#e9ae7f;fill-opacity:1;fill-rule:nonzero;stroke:none;stroke-width:0.1"
         id="path236"
         inkscape:connector-curvature="0" /><path
         d="m 618.792,157.85 10.825,0.47 8.045,0.35 c 0.005,0 0.011,0 0.016,0 0.398,-0.05 0.799,-0.09 1.201,-0.13 0,0 10e-4,0 0.002,0 2.856,-0.26 5.782,-0.19 8.346,0.55 0.883,0.25 1.722,0.59 2.501,1.01 0.044,0.03 0.087,0.05 0.131,0.08 0.311,0.17 0.609,0.37 0.899,0.57 0.081,0.06 0.163,0.12 0.242,0.18 0.326,0.25 0.641,0.51 0.933,0.8 6.169,6.17 14.329,17.09 17.044,20.79 2.467,-3.37 9.43,-12.68 15.311,-18.99 v 0 c 10e-4,0 0.003,0 0.004,0 0.286,-0.31 0.569,-0.61 0.849,-0.9 0.01,-0.01 0.022,-0.02 0.033,-0.03 0.285,-0.3 0.569,-0.59 0.847,-0.87 0.292,-0.29 0.607,-0.55 0.932,-0.8 0.08,-0.06 0.162,-0.12 0.244,-0.18 0.209,-0.15 0.429,-0.28 0.649,-0.41 0.084,-0.05 0.162,-0.11 0.247,-0.16 0.001,0 0.001,0 0.002,0 h 10e-4 c 0.044,-0.03 0.085,-0.05 0.128,-0.08 10e-4,0 0.002,0 0.003,0 10e-4,0 0.002,0 0.002,0 0.748,-0.41 1.552,-0.73 2.396,-0.98 0.031,-0.01 0.063,-0.02 0.093,-0.03 0.003,0 0.006,0 0.008,0 10e-4,0 10e-4,0 10e-4,0 0.377,-0.11 0.764,-0.2 1.156,-0.28 0.028,-0.01 0.055,-0.02 0.083,-0.02 0.008,0 0.015,-0.01 0.023,-0.01 0.163,-0.03 0.332,-0.05 0.497,-0.08 0.22,-0.03 0.44,-0.07 0.663,-0.1 0.212,-0.03 0.427,-0.05 0.642,-0.08 0.223,-0.02 0.444,-0.04 0.669,-0.05 0.088,-0.01 0.174,-0.02 0.262,-0.03 0.03,0 0.059,0 0.09,0 0.095,-0.01 0.192,-0.01 0.288,-0.01 0.236,-0.01 0.473,-0.02 0.711,-0.02 0.111,0 0.22,-0.01 0.332,-0.01 0.023,0 0.046,0 0.07,0 0.069,0 0.138,0.01 0.207,0.01 0.27,0 0.541,0.01 0.811,0.02 0.173,0 0.344,0.01 0.517,0.02 0.44,0.02 0.879,0.05 1.317,0.09 0.002,0 0.005,0 0.007,0 10e-4,0 10e-4,0 10e-4,0 v 0 c 10e-4,0 0.002,0 0.002,0 0.403,0.04 0.803,0.08 1.2,0.13 0.002,0 0.004,0 0.006,0 0.004,0 0.008,0 0.012,0 l 8.044,-0.35 8.35,0.93 -2.152,1.22 -2.239,1.26 v 0 0 l -1.899,4.7 -11.882,-1.32 c -3.731,1.98 -7.466,5.09 -10.119,10.02 -0.484,0.9 -0.954,1.76 -1.412,2.6 l 22.003,-7.8 24.753,-8.78 18.912,7.5 -91.219,26.99 c 0,0 -4.318,-6.48 -11.875,-20.51 -7.557,-14.04 -23.9,-13.4 -23.9,-13.4 l -4.391,-2.48 -2.475,-1.4"
         style="fill:#e9ae7f;fill-opacity:1;fill-rule:nonzero;stroke:none;stroke-width:0.1"
         id="path238"
         inkscape:connector-curvature="0" /><path
         d="m 634.561,216.41 c 3.662,2.93 8.185,8.36 11.859,13.16 l 9.591,7.04 12.966,1.05 12.966,-1.05 9.59,-7.04 c 3.676,-4.8 8.198,-10.23 11.861,-13.16 1.945,-1.56 4.554,-2.09 7.349,-2.04 0.178,0 0.356,0.01 0.535,0.02 0.144,0 0.287,0.01 0.431,0.02 0.14,0.01 0.28,0.02 0.421,0.03 l 25.352,-18.61 22.727,-0.19 -74.487,51.16 -39.942,2.81 c 0,0 -8.636,-14.03 -14.574,-21.05 -5.937,-7.01 -21.502,-9.04 -21.502,-9.04 0,0 0.609,-0.32 1.646,-0.8 l -33.604,-23.08 22.726,0.19 25.354,18.61 c 3.309,-0.27 6.47,0.16 8.735,1.97"
         style="fill:#e9ae7f;fill-opacity:1;fill-rule:nonzero;stroke:none;stroke-width:0.1"
         id="path240"
         inkscape:connector-curvature="0" /><rect
         rx="5.9394503"
         ry="13.058365"
         transform="scale(1,-1)"
         y="-478.50797"
         x="586.65131"
         height="26.11673"
         width="55.974304"
         id="rect2570"
         style="fill:#ffffff;fill-opacity:1;stroke-width:0.45876029" /></g></g></svg>