<?xml version="1.0" encoding="UTF-8" standalone="no"?>
<!-- Created with Inkscape (http://www.inkscape.org/) -->

<svg
   xmlns:dc="http://purl.org/dc/elements/1.1/"
   xmlns:cc="http://creativecommons.org/ns#"
   xmlns:rdf="http://www.w3.org/1999/02/22-rdf-syntax-ns#"
   xmlns:svg="http://www.w3.org/2000/svg"
   xmlns="http://www.w3.org/2000/svg"
   xmlns:sodipodi="http://sodipodi.sourceforge.net/DTD/sodipodi-0.dtd"
   xmlns:inkscape="http://www.inkscape.org/namespaces/inkscape"
   width="96.53788mm"
   height="18.328028mm"
   viewBox="0 0 96.53788 18.328028"
   version="1.1"
   id="svg3640"
   inkscape:version="0.92.3 (2405546, 2018-03-11)"
   sodipodi:docname="tarjetasCredito.svg">
  <defs
     id="defs3634" />
  <sodipodi:namedview
     id="base"
     pagecolor="#ffffff"
     bordercolor="#666666"
     borderopacity="1.0"
     inkscape:pageopacity="0.0"
     inkscape:pageshadow="2"
     inkscape:zoom="0.35"
     inkscape:cx="-206.13766"
     inkscape:cy="-79.650097"
     inkscape:document-units="mm"
     inkscape:current-layer="layer1"
     showgrid="false"
     fit-margin-top="0"
     fit-margin-left="0"
     fit-margin-right="0"
     fit-margin-bottom="0"
     inkscape:window-width="1366"
     inkscape:window-height="714"
     inkscape:window-x="0"
     inkscape:window-y="0"
     inkscape:window-maximized="1" />
  <metadata
     id="metadata3637">
    <rdf:RDF>
      <cc:Work
         rdf:about="">
        <dc:format>image/svg+xml</dc:format>
        <dc:type
           rdf:resource="http://purl.org/dc/dcmitype/StillImage" />
        <dc:title></dc:title>
      </cc:Work>
    </rdf:RDF>
  </metadata>
  <g
     inkscape:label="Capa 1"
     inkscape:groupmode="layer"
     id="layer1"
     transform="translate(-55.296543,-109.43122)">
    <g
       id="g4230"
       transform="matrix(0.35277777,0,0,-0.35277777,128.0342,224.50868)">
      <g
         transform="translate(-157.45772,10.962246)"
         id="g3632">
        <g
           id="g318"
           transform="translate(223.90581,287.26423)">
          <path
             d="m 0,0 c 0.477,-12.211 -9.057,-22.498 -21.277,-22.96 -12.203,-0.462 -22.48,9.051 -22.942,21.277 -0.462,12.216 9.066,22.486 21.285,22.954 C -10.724,21.734 -0.449,12.205 0,0 Z"
             style="fill:none;stroke:#34525c;stroke-width:2;stroke-linecap:butt;stroke-linejoin:miter;stroke-miterlimit:10;stroke-dasharray:none;stroke-opacity:1"
             id="path320"
             inkscape:connector-curvature="0" />
        </g>
        <g
           id="g334"
           transform="translate(202.26121,279.41653)">
          <path
             d="M 0,0 C -1.681,0 -3.42,0.936 -5.216,2.805 L -8.018,0 c 1.061,-1.115 2.214,-2.008 3.45,-2.68 0.906,-0.488 2.001,-0.806 3.29,-0.947 v -1.338 h 2.766 v 1.424 c 1.366,0.275 2.412,0.684 3.139,1.223 0.729,0.537 1.32,1.267 1.785,2.187 0.463,0.922 0.693,1.926 0.693,3.01 0,1.086 -0.216,2.065 -0.649,2.939 C 6.023,6.691 5.402,7.437 4.6,8.063 3.794,8.688 2.3,9.439 0.119,10.324 c -1.226,0.491 -2.044,0.948 -2.447,1.384 -0.412,0.425 -0.619,0.85 -0.619,1.279 0,0.509 0.232,0.958 0.703,1.347 0.461,0.391 1.072,0.587 1.818,0.587 1.266,0 2.55,-0.655 3.846,-1.961 l 2.846,2.71 c -0.905,0.891 -1.69,1.523 -2.354,1.899 -0.662,0.374 -1.469,0.674 -2.424,0.893 v 1.624 H -1.278 V 18.645 C -2.934,18.574 -4.299,18.018 -5.378,16.982 -6.46,15.951 -7,14.709 -7,13.262 -7,12.389 -6.795,11.563 -6.391,10.793 -5.979,10.021 -5.363,9.322 -4.539,8.705 -3.713,8.088 -2.133,7.248 0.207,6.191 1.356,5.676 2.133,5.162 2.537,4.662 2.929,4.164 3.127,3.586 3.127,2.922 3.127,2.135 2.817,1.451 2.203,0.872 1.589,0.29 0.854,0 0,0 Z"
             style="fill:none;stroke:#34525c;stroke-width:2;stroke-linecap:butt;stroke-linejoin:miter;stroke-miterlimit:10;stroke-dasharray:none;stroke-opacity:1"
             id="path336"
             inkscape:connector-curvature="0" />
        </g>
      </g>
      <g
         transform="translate(-342.81934,9.9656786)"
         id="g3588">
        <g
           id="g422"
           transform="translate(241.11857,269.77177)">
          <path
             d="m 0,0 h -43.687 c -1.505,0 -2.725,1.221 -2.725,2.727 v 27.347 c 0,1.506 1.22,2.726 2.725,2.726 L 0,32.8 c 1.505,0 2.725,-1.22 2.725,-2.726 V 2.727 C 2.725,1.221 1.505,0 0,0"
             style="fill:#ffffff;fill-opacity:1;fill-rule:nonzero;stroke:#0e3c54;stroke-width:2;stroke-linecap:butt;stroke-linejoin:round;stroke-miterlimit:10;stroke-dasharray:none;stroke-opacity:1"
             id="path424"
             inkscape:connector-curvature="0" />
        </g>
        <path
           d="m 194.70597,294.94727 h 49.137 v -6.778 h -49.137 z"
           style="fill:#7abeeb;fill-opacity:1;fill-rule:nonzero;stroke:#000000;stroke-width:2;stroke-linecap:butt;stroke-linejoin:miter;stroke-miterlimit:10;stroke-dasharray:none;stroke-opacity:1"
           id="path426"
           inkscape:connector-curvature="0" />
        <path
           d="m 225.20497,283.32727 h 13.556 v -4.236 h -13.556 z"
           style="fill:#ffffff;fill-opacity:1;fill-rule:nonzero;stroke:#0e3c54;stroke-width:2;stroke-linecap:butt;stroke-linejoin:round;stroke-miterlimit:10;stroke-dasharray:none;stroke-opacity:1"
           id="path428"
           inkscape:connector-curvature="0" />
      </g>
      <g
         transform="translate(-303.95319,263.09391)"
         id="g3600">
        <g
           id="g430"
           transform="translate(145.1797,20.3174)">
          <path
             d="m 0,0 h -43.688 c -1.505,0 -2.724,1.22 -2.724,2.725 v 27.348 c 0,1.506 1.219,2.727 2.724,2.727 H 0 c 1.506,0 2.725,-1.221 2.725,-2.727 V 2.725 C 2.725,1.22 1.506,0 0,0"
             style="fill:#ffffff;fill-opacity:1;fill-rule:nonzero;stroke:#0e3c54;stroke-width:2;stroke-linecap:butt;stroke-linejoin:round;stroke-miterlimit:10;stroke-dasharray:none;stroke-opacity:1"
             id="path432"
             inkscape:connector-curvature="0" />
        </g>
        <g
           id="g434"
           transform="translate(137.043,41.4355)">
          <path
             d="m 0,0 c 0,-2.809 -2.275,-5.083 -5.082,-5.083 -2.811,0 -5.084,2.274 -5.084,5.083 0,2.807 2.273,5.082 5.084,5.082 C -2.275,5.082 0,2.807 0,0"
             style="fill:#7abeeb;fill-opacity:1;fill-rule:nonzero;stroke:#000000;stroke-width:2;stroke-linecap:butt;stroke-linejoin:miter;stroke-miterlimit:10;stroke-dasharray:none;stroke-opacity:1"
             id="path436"
             inkscape:connector-curvature="0" />
        </g>
        <g
           id="g438"
           transform="translate(142.9746,41.4355)">
          <path
             d="m 0,0 c 0,-2.809 -2.276,-5.083 -5.084,-5.083 -2.809,0 -5.084,2.274 -5.084,5.083 0,2.807 2.275,5.082 5.084,5.082 C -2.276,5.082 0,2.807 0,0"
             style="fill:#7abeeb;fill-opacity:1;fill-rule:nonzero;stroke:#000000;stroke-width:2;stroke-linecap:butt;stroke-linejoin:miter;stroke-miterlimit:10;stroke-dasharray:none;stroke-opacity:1"
             id="path440"
             inkscape:connector-curvature="0" />
        </g>
        <path
           d="m 103.004,31.514 h 7.625 v -4.43 h -7.625 z"
           style="fill:#ffffff;fill-opacity:1;fill-rule:nonzero;stroke:#0e3c54;stroke-width:2;stroke-linecap:butt;stroke-linejoin:round;stroke-miterlimit:10;stroke-dasharray:none;stroke-opacity:1"
           id="path442"
           inkscape:connector-curvature="0" />
        <path
           d="m 114.017,31.514 h 7.626 v -4.43 h -7.626 z"
           style="fill:#ffffff;fill-opacity:1;fill-rule:nonzero;stroke:#0e3c54;stroke-width:2;stroke-linecap:butt;stroke-linejoin:round;stroke-miterlimit:10;stroke-dasharray:none;stroke-opacity:1"
           id="path444"
           inkscape:connector-curvature="0" />
        <path
           d="m 125.03,31.514 h 7.626 v -4.43 h -7.626 z"
           style="fill:#ffffff;fill-opacity:1;fill-rule:nonzero;stroke:#0e3c54;stroke-width:2;stroke-linecap:butt;stroke-linejoin:round;stroke-miterlimit:10;stroke-dasharray:none;stroke-opacity:1"
           id="path446"
           inkscape:connector-curvature="0" />
        <path
           d="m 136.044,31.514 h 7.625 v -4.43 h -7.625 z"
           style="fill:#ffffff;fill-opacity:1;fill-rule:nonzero;stroke:#0e3c54;stroke-width:2;stroke-linecap:butt;stroke-linejoin:round;stroke-miterlimit:10;stroke-dasharray:none;stroke-opacity:1"
           id="path448"
           inkscape:connector-curvature="0" />
      </g>
      <g
         transform="translate(-323.88455,144.50234)"
         id="g3612">
        <g
           id="g538"
           transform="translate(306.8633,164.2715)">
          <path
             d="m 0,0 c 0,-1.602 -1.297,-2.899 -2.898,-2.899 h -51.01 c -1.602,0 -2.9,1.297 -2.9,2.899 v 13.53 c 0,1.601 1.298,2.9 2.9,2.9 h 51.01 C -1.297,16.43 0,15.131 0,13.53 Z"
             style="fill:#ffffff;fill-opacity:1;fill-rule:nonzero;stroke:none"
             id="path540"
             inkscape:connector-curvature="0" />
        </g>
        <g
           id="g542"
           transform="translate(306.8633,164.2715)">
          <path
             d="m 0,0 c 0,-1.602 -1.297,-2.899 -2.898,-2.899 h -51.01 c -1.602,0 -2.9,1.297 -2.9,2.899 v 13.53 c 0,1.601 1.298,2.9 2.9,2.9 h 51.01 C -1.297,16.43 0,15.131 0,13.53 Z"
             style="fill:none;stroke:#0e3c54;stroke-width:2;stroke-linecap:butt;stroke-linejoin:miter;stroke-miterlimit:10;stroke-dasharray:none;stroke-opacity:1"
             id="path544"
             inkscape:connector-curvature="0" />
        </g>
        <g
           id="g546"
           transform="translate(269.2705,170.2793)">
          <path
             d="m 0,0 v -2.034 h 1.341 c 0.369,0 0.652,0.084 0.851,0.253 0.198,0.17 0.297,0.407 0.297,0.715 0,0.707 -0.351,1.062 -1.054,1.066 z m 0,1.341 h 1.067 c 0.447,0.004 0.766,0.086 0.955,0.246 0.192,0.159 0.287,0.395 0.287,0.707 0,0.358 -0.103,0.617 -0.31,0.774 C 1.794,3.227 1.461,3.306 1.003,3.306 H 0 Z M -2.046,-3.608 V 4.88 H 1.003 C 2.095,4.88 2.925,4.68 3.495,4.279 4.063,3.879 4.349,3.298 4.349,2.536 4.349,2.097 4.247,1.722 4.046,1.411 3.843,1.1 3.546,0.87 3.153,0.723 3.597,0.606 3.937,0.389 4.174,0.07 4.411,-0.249 4.529,-0.638 4.529,-1.096 4.529,-1.928 4.267,-2.553 3.739,-2.97 3.213,-3.388 2.433,-3.601 1.399,-3.608 Z"
             style="fill:#0e3c54;fill-opacity:1;fill-rule:nonzero;stroke:none"
             id="path548"
             inkscape:connector-curvature="0" />
        </g>
        <g
           id="g550"
           transform="translate(281.582,175.1592)">
          <path
             d="m 0,0 v -5.556 c 0,-0.63 -0.134,-1.174 -0.402,-1.635 -0.268,-0.46 -0.653,-0.812 -1.155,-1.052 -0.501,-0.241 -1.093,-0.361 -1.777,-0.361 -1.034,0 -1.848,0.267 -2.443,0.803 -0.594,0.537 -0.898,1.272 -0.909,2.204 V 0 h 2.057 v -5.638 c 0.024,-0.928 0.455,-1.393 1.295,-1.393 0.424,0 0.744,0.117 0.961,0.35 0.219,0.233 0.327,0.612 0.327,1.137 V 0 Z"
             style="fill:#0e3c54;fill-opacity:1;fill-rule:nonzero;stroke:none"
             id="path552"
             inkscape:connector-curvature="0" />
        </g>
        <g
           id="g554"
           transform="translate(285.9668,171.4746)">
          <path
             d="m 0,0 1.562,3.685 h 2.209 l -2.734,-5.44 v -3.049 h -2.075 v 3.049 l -2.729,5.44 h 2.199 z"
             style="fill:#0e3c54;fill-opacity:1;fill-rule:nonzero;stroke:none"
             id="path556"
             inkscape:connector-curvature="0" />
        </g>
      </g>
      <g
         transform="translate(-101.64992,223.23119)"
         id="g3626">
        <g
           id="g558"
           transform="translate(85.5908,56.0322)">
          <path
             d="m 0,0 c 0,-1.602 -1.298,-2.899 -2.9,-2.899 h -51.008 c -1.602,0 -2.901,1.297 -2.901,2.899 v 13.53 c 0,1.601 1.299,2.9 2.901,2.9 H -2.9 c 1.602,0 2.9,-1.299 2.9,-2.9 z"
             style="fill:#ffffff;fill-opacity:1;fill-rule:nonzero;stroke:none"
             id="path560"
             inkscape:connector-curvature="0" />
        </g>
        <g
           id="g562"
           transform="translate(85.5908,56.0322)">
          <path
             d="m 0,0 c 0,-1.602 -1.298,-2.899 -2.9,-2.899 h -51.008 c -1.602,0 -2.901,1.297 -2.901,2.899 v 13.53 c 0,1.601 1.299,2.9 2.901,2.9 H -2.9 c 1.602,0 2.9,-1.299 2.9,-2.9 z"
             style="fill:none;stroke:#0e3c54;stroke-width:2;stroke-linecap:butt;stroke-linejoin:miter;stroke-miterlimit:10;stroke-dasharray:none;stroke-opacity:1"
             id="path564"
             inkscape:connector-curvature="0" />
        </g>
        <g
           id="g566"
           transform="translate(46.3286,60.6875)">
          <path
             d="m 0,0 c 0,0.3 -0.106,0.532 -0.317,0.7 -0.212,0.167 -0.584,0.34 -1.117,0.519 -0.532,0.178 -0.967,0.351 -1.306,0.518 -1.099,0.54 -1.65,1.283 -1.65,2.227 0,0.471 0.138,0.886 0.411,1.245 0.274,0.359 0.662,0.639 1.164,0.839 0.501,0.2 1.065,0.301 1.69,0.301 0.61,0 1.157,-0.11 1.641,-0.327 C 1,5.805 1.376,5.494 1.644,5.092 1.912,4.69 2.046,4.23 2.046,3.714 H 0.006 C 0.006,4.06 -0.1,4.327 -0.312,4.519 -0.523,4.708 -0.81,4.804 -1.171,4.804 -1.537,4.804 -1.826,4.723 -2.037,4.562 -2.249,4.4 -2.355,4.195 -2.355,3.947 c 0,-0.218 0.117,-0.415 0.35,-0.592 0.233,-0.177 0.643,-0.36 1.23,-0.548 C -0.188,2.618 0.293,2.415 0.67,2.198 1.588,1.669 2.046,0.94 2.046,0.012 c 0,-0.742 -0.279,-1.325 -0.839,-1.749 -0.56,-0.424 -1.327,-0.635 -2.303,-0.635 -0.688,0 -1.311,0.123 -1.868,0.37 -0.558,0.246 -0.977,0.585 -1.259,1.014 -0.282,0.429 -0.423,0.925 -0.423,1.484 h 2.052 c 0,-0.455 0.117,-0.79 0.353,-1.006 0.235,-0.216 0.616,-0.323 1.145,-0.323 0.338,0 0.605,0.072 0.802,0.218 C -0.098,-0.469 0,-0.264 0,0"
             style="fill:#0e3c54;fill-opacity:1;fill-rule:nonzero;stroke:none"
             id="path568"
             inkscape:connector-curvature="0" />
        </g>
        <g
           id="g570"
           transform="translate(56.519,58.4316)">
          <path
             d="M 0,0 H -2.035 V 3.544 H -5.048 V 0 h -2.047 v 8.488 h 2.047 v -3.37 h 3.013 v 3.37 H 0 Z"
             style="fill:#0e3c54;fill-opacity:1;fill-rule:nonzero;stroke:none"
             id="path572"
             inkscape:connector-curvature="0" />
        </g>
        <g
           id="g574"
           transform="translate(62.9199,62.8564)">
          <path
             d="m 0,0 c 0,0.843 -0.141,1.483 -0.423,1.921 -0.282,0.436 -0.685,0.655 -1.209,0.655 -1.026,0 -1.569,-0.769 -1.627,-2.308 l -0.006,-0.623 c 0,-0.832 0.138,-1.472 0.414,-1.918 0.276,-0.448 0.686,-0.671 1.23,-0.671 0.517,0 0.915,0.219 1.195,0.659 0.28,0.438 0.422,1.07 0.426,1.894 z m 2.081,-0.355 c 0,-0.829 -0.154,-1.561 -0.46,-2.199 -0.308,-0.637 -0.744,-1.128 -1.309,-1.471 -0.566,-0.344 -1.21,-0.516 -1.933,-0.516 -0.723,0 -1.364,0.166 -1.923,0.498 -0.56,0.332 -0.997,0.808 -1.309,1.426 C -5.166,-2 -5.331,-1.29 -5.346,-0.49 v 0.478 c 0,0.831 0.153,1.566 0.458,2.2 0.305,0.636 0.742,1.126 1.311,1.473 0.57,0.346 1.218,0.519 1.945,0.519 0.718,0 1.36,-0.171 1.924,-0.513 C 0.855,3.324 1.293,2.838 1.606,2.206 1.919,1.575 2.077,0.851 2.081,0.035 Z"
             style="fill:#0e3c54;fill-opacity:1;fill-rule:nonzero;stroke:none"
             id="path576"
             inkscape:connector-curvature="0" />
        </g>
        <g
           id="g578"
           transform="translate(68.1021,62.8916)">
          <path
             d="m 0,0 h 1.341 c 0.396,0 0.698,0.099 0.906,0.297 0.208,0.198 0.312,0.478 0.312,0.84 0,0.396 -0.107,0.713 -0.321,0.95 C 2.025,2.323 1.733,2.444 1.364,2.448 H 0 Z M 0,-1.58 V -4.46 H -2.046 V 4.028 H 1.341 C 1.99,4.028 2.564,3.908 3.063,3.669 3.563,3.431 3.949,3.09 4.224,2.649 4.498,2.208 4.634,1.708 4.634,1.148 4.634,0.32 4.338,-0.342 3.746,-0.837 3.153,-1.332 2.339,-1.58 1.306,-1.58 Z"
             style="fill:#0e3c54;fill-opacity:1;fill-rule:nonzero;stroke:none"
             id="path580"
             inkscape:connector-curvature="0" />
        </g>
      </g>
    </g>
  </g>
</svg>
